<svg id="Layer_1" data-name="Layer 1" xmlns="http://www.w3.org/2000/svg" xmlns:xlink="http://www.w3.org/1999/xlink" viewBox="0 0 389.41 60.9"><defs><style>.cls-1{fill:url(#linear-gradient);}</style><linearGradient id="linear-gradient" x1="36.63" y1="63.53" x2="426.04" y2="63.53" gradientUnits="userSpaceOnUse"><stop offset="0.01" stop-color="#3f4079"/><stop offset="0.18" stop-color="#3b467b"/><stop offset="0.41" stop-color="#315680"/><stop offset="0.66" stop-color="#1f7089"/><stop offset="0.93" stop-color="#079495"/><stop offset="1" stop-color="#009f98"/></linearGradient></defs><title>apna_dental_logo2</title><path class="cls-1" d="M39.71,79.94a2.87,2.87,0,0,1-2.58-1.44A3.09,3.09,0,0,1,37,75.44L53.81,35.18a3,3,0,0,1,2.94-2.1,2.91,2.91,0,0,1,2.94,2.1L76.61,75.56a3.17,3.17,0,0,1-.21,3,2.9,2.9,0,0,1-2.61,1.35,3.16,3.16,0,0,1-1.71-.51A2.89,2.89,0,0,1,70.91,78L56,41.06h1.68L42.59,78a3,3,0,0,1-1.23,1.44A3.2,3.2,0,0,1,39.71,79.94Zm3.18-10.32,2.4-5.16H68.81l2.4,5.16Z" transform="translate(-36.63 -33.08)"/><path class="cls-1" d="M86.21,94a3,3,0,0,1-3.06-3.06V63.56A17.32,17.32,0,0,1,85.37,55a16,16,0,0,1,5.88-6A16.56,16.56,0,0,1,114,55a16.68,16.68,0,0,1,2.19,8.52,17.69,17.69,0,0,1-2,8.49A15.56,15.56,0,0,1,108.71,78a15.18,15.18,0,0,1-14.37.72,15.44,15.44,0,0,1-5.07-4v16.2a3,3,0,0,1-.84,2.19A2.94,2.94,0,0,1,86.21,94Zm13.44-19.2a10.24,10.24,0,0,0,5.46-1.47,10.68,10.68,0,0,0,3.81-4,11.64,11.64,0,0,0,1.41-5.73,11.76,11.76,0,0,0-1.41-5.79,10.68,10.68,0,0,0-3.81-4,10.82,10.82,0,0,0-10.89,0,10.38,10.38,0,0,0-3.81,4A12,12,0,0,0,89,63.56a11.84,11.84,0,0,0,1.38,5.73,10.32,10.32,0,0,0,9.24,5.49Z" transform="translate(-36.63 -33.08)"/><path class="cls-1" d="M128.39,80a3,3,0,0,1-3.06-3.06V50.18A2.94,2.94,0,0,1,126.2,48a3,3,0,0,1,5.25,2.22V76.94a3,3,0,0,1-.84,2.19A2.94,2.94,0,0,1,128.39,80Zm24.66,0A3,3,0,0,1,150,76.94V62.18a11,11,0,0,0-1.26-5.58,7.94,7.94,0,0,0-3.39-3.21,10.92,10.92,0,0,0-4.89-1,10.05,10.05,0,0,0-4.56,1,8.53,8.53,0,0,0-3.24,2.73,6.67,6.67,0,0,0-1.2,3.93h-3.78a12.6,12.6,0,0,1,1.83-6.75,13.21,13.21,0,0,1,5-4.71,14.63,14.63,0,0,1,7.14-1.74,15.31,15.31,0,0,1,7.41,1.77,12.77,12.77,0,0,1,5.16,5.19,17.16,17.16,0,0,1,1.89,8.4V76.94A3,3,0,0,1,153.05,80Z" transform="translate(-36.63 -33.08)"/><path class="cls-1" d="M179.93,80.18A14.45,14.45,0,0,1,172.07,78a15.56,15.56,0,0,1-5.49-5.94,17.69,17.69,0,0,1-2-8.49A16.68,16.68,0,0,1,166.76,55a16.2,16.2,0,0,1,5.94-6,16.54,16.54,0,0,1,22.74,6,16.68,16.68,0,0,1,2.19,8.52h-2.34a17.69,17.69,0,0,1-2,8.49A15.56,15.56,0,0,1,187.79,78,14.45,14.45,0,0,1,179.93,80.18Zm1.2-5.4a10.24,10.24,0,0,0,5.46-1.47,10.45,10.45,0,0,0,3.78-4,11.84,11.84,0,0,0,1.38-5.73,12,12,0,0,0-1.38-5.79,10.45,10.45,0,0,0-3.78-4,10.82,10.82,0,0,0-10.89,0,10.6,10.6,0,0,0-3.84,4,11.76,11.76,0,0,0-1.41,5.79,11.64,11.64,0,0,0,1.41,5.73,10.6,10.6,0,0,0,3.84,4A10.29,10.29,0,0,0,181.13,74.78ZM194.57,80a3,3,0,0,1-3.06-3.06V67.76l1.14-6.36,5,2.16V76.94A3,3,0,0,1,194.57,80Z" transform="translate(-36.63 -33.08)"/><path class="cls-1" d="M228.05,79.94a3.07,3.07,0,0,1-3.12-3.12V36.2a3,3,0,0,1,.9-2.25,3.07,3.07,0,0,1,2.22-.87h10.86a24.84,24.84,0,0,1,9.39,1.71,21.57,21.57,0,0,1,12.15,12.27,25.47,25.47,0,0,1,1.68,9.42,25.7,25.7,0,0,1-1.68,9.45,21.51,21.51,0,0,1-12.15,12.3,24.84,24.84,0,0,1-9.39,1.71Zm3.12-5.52h7.74a17,17,0,0,0,8.91-2.31,16.49,16.49,0,0,0,6.09-6.36,19,19,0,0,0,2.22-9.27,18.92,18.92,0,0,0-2.22-9.3,16.32,16.32,0,0,0-6.09-6.3,17.22,17.22,0,0,0-8.91-2.28h-7.74Z" transform="translate(-36.63 -33.08)"/><path class="cls-1" d="M286.73,80.18a18.05,18.05,0,0,1-8.85-2.13,15.57,15.57,0,0,1-6.06-5.88,16.76,16.76,0,0,1-2.19-8.61,17.65,17.65,0,0,1,2.07-8.67A15.14,15.14,0,0,1,277.43,49a16.39,16.39,0,0,1,8.4-2.13,15,15,0,0,1,8,2.07,13.49,13.49,0,0,1,5.13,5.7A18.87,18.87,0,0,1,300.77,63a2.51,2.51,0,0,1-.78,1.89,2.74,2.74,0,0,1-2,.75H273.83v-4.8h24l-2.46,1.68a12.84,12.84,0,0,0-1.2-5.37A8.75,8.75,0,0,0,285.83,52a10.92,10.92,0,0,0-5.85,1.5,9.66,9.66,0,0,0-3.69,4.11A13.42,13.42,0,0,0,275,63.56a11.48,11.48,0,0,0,1.5,5.88,11,11,0,0,0,4.14,4.08,12.05,12.05,0,0,0,6.06,1.5,11.38,11.38,0,0,0,3.81-.69,11.84,11.84,0,0,0,3.15-1.59,3.4,3.4,0,0,1,1.95-.69,2.62,2.62,0,0,1,1.83.63,2.84,2.84,0,0,1,1.08,2,2.13,2.13,0,0,1-1,1.86,16.59,16.59,0,0,1-5.07,2.64A18.14,18.14,0,0,1,286.73,80.18Z" transform="translate(-36.63 -33.08)"/><path class="cls-1" d="M311.63,80a3,3,0,0,1-2.19-.87,2.93,2.93,0,0,1-.87-2.19V50.18a2.91,2.91,0,0,1,.87-2.22,3,3,0,0,1,5.25,2.22V76.94a3,3,0,0,1-.84,2.19A3,3,0,0,1,311.63,80Zm24.66,0a3,3,0,0,1-3.06-3.06V62.18A11,11,0,0,0,332,56.6a7.94,7.94,0,0,0-3.39-3.21,11,11,0,0,0-4.89-1,10,10,0,0,0-4.56,1,8.53,8.53,0,0,0-3.24,2.73,6.6,6.6,0,0,0-1.2,3.93h-3.78a12.6,12.6,0,0,1,1.83-6.75,13.21,13.21,0,0,1,5-4.71,14.63,14.63,0,0,1,7.14-1.74,15.34,15.34,0,0,1,7.41,1.77,12.77,12.77,0,0,1,5.16,5.19,17.16,17.16,0,0,1,1.89,8.4V76.94a3,3,0,0,1-.87,2.19A3,3,0,0,1,336.29,80Z" transform="translate(-36.63 -33.08)"/><path class="cls-1" d="M348.1,53.48a2.91,2.91,0,0,1-2-.72,2.34,2.34,0,0,1-.77-1.8,2.48,2.48,0,0,1,.77-1.92,2.91,2.91,0,0,1,2-.72H362a2.87,2.87,0,0,1,2,.72,2.49,2.49,0,0,1,.79,1.92,2.36,2.36,0,0,1-.79,1.8,2.87,2.87,0,0,1-2,.72Zm13.32,26.46a9.83,9.83,0,0,1-5.4-1.53,10.64,10.64,0,0,1-3.77-4.17,12.51,12.51,0,0,1-1.39-5.94V39.68a2.89,2.89,0,0,1,3-3,2.88,2.88,0,0,1,3,3V68.3a6.11,6.11,0,0,0,1.33,4,4,4,0,0,0,3.23,1.62h2a2.35,2.35,0,0,1,1.83.84,3.12,3.12,0,0,1,.75,2.16,2.73,2.73,0,0,1-1,2.16,3.83,3.83,0,0,1-2.56.84Z" transform="translate(-36.63 -33.08)"/><path class="cls-1" d="M387.22,80.18A14.45,14.45,0,0,1,379.36,78a15.56,15.56,0,0,1-5.49-5.94,17.69,17.69,0,0,1-2-8.49A16.68,16.68,0,0,1,374.05,55a16.2,16.2,0,0,1,5.94-6,16.54,16.54,0,0,1,22.74,6,16.68,16.68,0,0,1,2.19,8.52h-2.34a17.69,17.69,0,0,1-2,8.49A15.56,15.56,0,0,1,395.08,78,14.45,14.45,0,0,1,387.22,80.18Zm1.2-5.4a10.24,10.24,0,0,0,5.46-1.47,10.45,10.45,0,0,0,3.78-4A11.84,11.84,0,0,0,399,63.56a12,12,0,0,0-1.38-5.79,10.45,10.45,0,0,0-3.78-4,10.82,10.82,0,0,0-10.89,0,10.6,10.6,0,0,0-3.84,4,11.76,11.76,0,0,0-1.41,5.79,11.64,11.64,0,0,0,1.41,5.73,10.6,10.6,0,0,0,3.84,4A10.29,10.29,0,0,0,388.42,74.78ZM401.86,80a3,3,0,0,1-3.06-3.06V67.76l1.14-6.36,5,2.16V76.94A3,3,0,0,1,401.86,80Z" transform="translate(-36.63 -33.08)"/><path class="cls-1" d="M421.84,79.94a7.91,7.91,0,0,1-4.68-1.44A9.56,9.56,0,0,1,414,74.57a13.63,13.63,0,0,1-1.14-5.73V36.08a3,3,0,1,1,6,0V68.84a7.18,7.18,0,0,0,.84,3.66,2.47,2.47,0,0,0,2.16,1.44h1.5a2.49,2.49,0,0,1,2,.84,3.12,3.12,0,0,1,.75,2.16,2.57,2.57,0,0,1-1.14,2.16,4.83,4.83,0,0,1-2.94.84Z" transform="translate(-36.63 -33.08)"/></svg>