<svg xmlns="http://www.w3.org/2000/svg" xmlns:xlink="http://www.w3.org/1999/xlink" width="74" height="74" viewBox="0 0 74 74">
  <defs>
    <linearGradient id="linear-gradient" x1="0.5" y1="0.021" x2="0.5" y2="0.985" gradientUnits="objectBoundingBox">
      <stop offset="0" stop-color="#ace8ff"/>
      <stop offset="1" stop-color="#fff"/>
    </linearGradient>
    <clipPath id="clip-path">
      <circle id="Oval" cx="36" cy="36" r="36" stroke="#69d6ff" stroke-miterlimit="10" stroke-width="1" fill="url(#linear-gradient)"/>
    </clipPath>
  </defs>
  <g id="Group_3" data-name="Group 3" transform="translate(1 1)">
    <g id="Oval-2" data-name="Oval" stroke="#69d6ff" stroke-miterlimit="10" stroke-width="1" fill="url(#linear-gradient)">
      <circle cx="36" cy="36" r="36" stroke="none"/>
      <circle cx="36" cy="36" r="36.5" fill="none"/>
    </g>
    <g id="Group_3-2" data-name="Group 3" clip-path="url(#clip-path)">
      <g id="cloud" transform="translate(9 13)">
        <g id="Group_10" data-name="Group 10" opacity="0.5">
          <path id="Shape" d="M7.122,2.762A2.667,2.667,0,0,0,4.61,0,2.363,2.363,0,0,0,2.952.7a2.887,2.887,0,0,0-.8,1.527H2.129A2.263,2.263,0,0,0,0,4.6,2.263,2.263,0,0,0,2.129,6.97H7.094a2.007,2.007,0,0,0,1.888-2.1A2.011,2.011,0,0,0,7.122,2.762Z" transform="translate(38)" fill="#fff"/>
          <path id="Shape-2" data-name="Shape" d="M4.286,0A2.6,2.6,0,0,0,1.714,2.593c.007.053.012.106.013.161l.022.643-.6.212A1.749,1.749,0,0,0,1.714,7h8.571a1.751,1.751,0,0,0,.027-3.5c-.04.006-.082.011-.124.014l-.651.044-.214-.628A1.714,1.714,0,0,0,7.714,1.75a1.689,1.689,0,0,0-.3.032l-.6.11-.3-.543A2.563,2.563,0,0,0,4.286,0Z" transform="translate(0 8)" fill="#fff"/>
        </g>
      </g>
      <g id="icon_bengaluru" transform="translate(4.406 13.532)">
        <g id="Group" transform="translate(0 2.598)">
          <g id="Clipped" transform="translate(27.13 4.546)">
            <path id="Path" d="M0,0H9.72V39.616H0Z" fill="#fff" stroke="#14bfff" stroke-linecap="round" stroke-linejoin="round" stroke-miterlimit="10" stroke-width="0.972"/>
          </g>
          <g id="Clipped-2" data-name="Clipped" transform="translate(26.482 3.247)">
            <path id="Path-2" data-name="Path" d="M0,0H10.8V1.948H0Z" fill="#fff" stroke="#14bfff" stroke-linecap="round" stroke-linejoin="round" stroke-miterlimit="10" stroke-width="0.972"/>
          </g>
          <g id="Clipped-3" data-name="Clipped" transform="translate(26.482 11.69)">
            <path id="Path-3" data-name="Path" d="M0,0H11.664V33.121H0Z" fill="#fff" stroke="#14bfff" stroke-linecap="round" stroke-linejoin="round" stroke-miterlimit="10" stroke-width="0.972"/>
          </g>
          <g id="Clipped-4" data-name="Clipped" transform="translate(25.546 9.742)">
            <path id="Path-4" data-name="Path" d="M0,0H13.248V1.948H0Z" fill="#fff" stroke="#14bfff" stroke-linecap="round" stroke-linejoin="round" stroke-miterlimit="10" stroke-width="0.972"/>
          </g>
          <g id="Clipped-5" data-name="Clipped" transform="translate(24.538 19.483)">
            <path id="Path-5" data-name="Path" d="M0,0H14.9V24.679H0Z" fill="#fff" stroke="#14bfff" stroke-linecap="round" stroke-linejoin="round" stroke-miterlimit="10" stroke-width="0.972"/>
          </g>
          <g id="Clipped-6" data-name="Clipped" transform="translate(23.242 19.483)">
            <path id="Path-6" data-name="Path" d="M0,0H17.64V1.948H0Z" fill="#fff" stroke="#14bfff" stroke-linecap="round" stroke-linejoin="round" stroke-miterlimit="10" stroke-width="0.972"/>
          </g>
          <g id="Clipped-7" data-name="Clipped" transform="translate(30.37)">
            <path id="Path-7" data-name="Path" d="M0,0H3.24V44.811H0Z" fill="#fff" stroke="#14bfff" stroke-linecap="round" stroke-linejoin="round" stroke-miterlimit="10" stroke-width="0.972"/>
          </g>
          <g id="Clipped-8" data-name="Clipped" transform="translate(0 43.884)">
            <path id="Path-8" data-name="Path" d="M0,0H63.12V2.753H0Z" fill="#fff" stroke="#14bfff" stroke-linecap="round" stroke-linejoin="round" stroke-miterlimit="10" stroke-width="0.972"/>
          </g>
          <g id="Clipped-9" data-name="Clipped" transform="translate(1.08 46.644)">
            <path id="Path-9" data-name="Path" d="M0,0H62.04V12.3H0Z" fill="#1c208f"/>
          </g>
          <path id="Combined_Shape" data-name="Combined Shape" d="M1.3,13.059a.72.72,0,1,1,.72.72A.72.72,0,0,1,1.3,13.059ZM0,12.41a.72.72,0,1,1,.72.72A.72.72,0,0,1,0,12.41Zm1.3-1.3a.72.72,0,1,1,.72.72A.72.72,0,0,1,1.3,11.111ZM0,10.462a.72.72,0,1,1,.72.72A.72.72,0,0,1,0,10.462Zm1.3-1.3a.72.72,0,1,1,.72.72A.72.72,0,0,1,1.3,9.163ZM0,7.864a.72.72,0,1,1,.72.72A.72.72,0,0,1,0,7.864Zm1.3-.65a.72.72,0,1,1,.72.72A.72.72,0,0,1,1.3,7.214ZM0,5.916a.72.72,0,1,1,.72.72A.72.72,0,0,1,0,5.916Zm1.3-.65a.72.72,0,1,1,.72.72A.72.72,0,0,1,1.3,5.266ZM0,3.967a.72.72,0,1,1,.72.72A.72.72,0,0,1,0,3.967Zm1.3-1.3a.72.72,0,1,1,.72.72A.72.72,0,0,1,1.3,2.668ZM0,2.019a.72.72,0,1,1,.72.72A.72.72,0,0,1,0,2.019ZM1.3.72a.72.72,0,1,1,.72.72A.72.72,0,0,1,1.3.72Z" transform="translate(35.158 26.232)" fill="#1c208f"/>
          <g id="Clipped-10" data-name="Clipped" transform="translate(26.086 26.232)">
            <path id="Combined_Shape-2" data-name="Combined Shape" d="M0,13.059a.72.72,0,1,1,.72.72A.72.72,0,0,1,0,13.059Zm1.3-.649a.72.72,0,1,1,.72.72A.72.72,0,0,1,1.3,12.41ZM0,11.111a.72.72,0,1,1,.72.72A.72.72,0,0,1,0,11.111Zm1.3-.65a.72.72,0,1,1,.72.72A.72.72,0,0,1,1.3,10.462ZM0,9.163a.72.72,0,1,1,.72.72A.72.72,0,0,1,0,9.163Zm1.3-1.3a.72.72,0,1,1,.72.72A.72.72,0,0,1,1.3,7.864ZM0,7.214a.72.72,0,1,1,.72.72A.72.72,0,0,1,0,7.214Zm1.3-1.3a.72.72,0,1,1,.72.72A.72.72,0,0,1,1.3,5.916ZM0,5.266a.72.72,0,1,1,.72.72A.72.72,0,0,1,0,5.266Zm1.3-1.3a.72.72,0,1,1,.72.72A.72.72,0,0,1,1.3,3.967ZM0,2.668a.72.72,0,1,1,.72.72A.72.72,0,0,1,0,2.668Zm1.3-.65a.72.72,0,1,1,.72.72A.72.72,0,0,1,1.3,2.019ZM0,.72a.72.72,0,1,1,.72.72A.72.72,0,0,1,0,.72Z" fill="#1c208f"/>
          </g>
        </g>
        <path id="Path-10" data-name="Path" d="M0,0H3.24V5.2H0Z" transform="translate(30.37)" fill="#fff" stroke="#14bfff" stroke-linecap="round" stroke-linejoin="round" stroke-miterlimit="10" stroke-width="0.972"/>
      </g>
    </g>
  </g>
</svg>
