<svg xmlns="http://www.w3.org/2000/svg" xmlns:xlink="http://www.w3.org/1999/xlink" width="74" height="74" viewBox="0 0 74 74">
  <defs>
    <linearGradient id="linear-gradient" x1="0.5" y1="0.021" x2="0.5" y2="0.985" gradientUnits="objectBoundingBox">
      <stop offset="0" stop-color="#ace8ff"/>
      <stop offset="1" stop-color="#fff"/>
    </linearGradient>
    <clipPath id="clip-path">
      <circle id="Oval" cx="36" cy="36" r="36" stroke="#69d6ff" stroke-miterlimit="10" stroke-width="1" fill="url(#linear-gradient)"/>
    </clipPath>
  </defs>
  <g id="Group_5" data-name="Group 5" transform="translate(1 1)">
    <g id="Oval-2" data-name="Oval" stroke="#69d6ff" stroke-miterlimit="10" stroke-width="1" fill="url(#linear-gradient)">
      <circle cx="36" cy="36" r="36" stroke="none"/>
      <circle cx="36" cy="36" r="36.5" fill="none"/>
    </g>
    <g id="Group_5-2" data-name="Group 5" clip-path="url(#clip-path)">
      <g id="icon_chennai" transform="translate(0.9 12.72)">
        <g id="Group" transform="translate(0.539 7.379)">
          <g id="Clipped" transform="translate(0 40.401)">
            <path id="Path" d="M0,0H71.712V15.84H0Z" fill="#1c208f"/>
          </g>
          <g id="Clipped-2" data-name="Clipped" transform="translate(17.184 25.811)">
            <path id="Path-2" data-name="Path" d="M0,0H37.344V4.015H0Z" fill="#fff" stroke="#14bfff" stroke-linecap="round" stroke-linejoin="round" stroke-miterlimit="10" stroke-width="0.972"/>
          </g>
          <g id="Clipped-3" data-name="Clipped" transform="translate(19.699 11.406)">
            <path id="Shape" d="M0,14.411V6.969H32.314v7.442ZM4.582,6.968V0H27.737V6.968Z" fill="#fff" stroke="#14bfff" stroke-linecap="round" stroke-linejoin="round" stroke-miterlimit="10" stroke-width="0.972"/>
          </g>
          <g id="Clipped-4" data-name="Clipped" transform="translate(28.179 2.286)">
            <path id="Shape-2" data-name="Shape" d="M0,9.121v-5.1H1.753V0H13.606V4.016h1.747v5.1Z" fill="#fff" stroke="#14bfff" stroke-linecap="round" stroke-linejoin="round" stroke-miterlimit="10" stroke-width="0.972"/>
          </g>
          <g id="Clipped-5" data-name="Clipped" transform="translate(19.974)">
            <path id="Shape-3" data-name="Shape" d="M21.127,40.406V29.832H31.693V40.406ZM0,40.406V29.832H10.567V40.406ZM12.621,6.3V2.286h6.522V6.3ZM9,2.261V0H22.772V2.261Z" fill="#fff" stroke="#14bfff" stroke-linecap="round" stroke-linejoin="round" stroke-miterlimit="10" stroke-width="0.972"/>
          </g>
          <g id="Clipped-6" data-name="Clipped" transform="translate(19.974 36.66)">
            <path id="Shape-4" data-name="Shape" d="M21.127,3.74V0H31.693V3.74ZM0,3.74V0H10.567V3.74Z" fill="#fff" stroke="#14bfff" stroke-linecap="round" stroke-linejoin="round" stroke-miterlimit="10" stroke-width="0.972"/>
          </g>
          <g id="Clipped-7" data-name="Clipped" transform="translate(21.417 30.938)">
            <path id="Combined_Shape" data-name="Combined Shape" d="M27.366,2.1a.72.72,0,1,1,.72.72A.72.72,0,0,1,27.366,2.1Zm-2.08,0a.72.72,0,1,1,.72.72A.72.72,0,0,1,25.286,2.1Zm-2.079,0a.72.72,0,1,1,.72.72A.72.72,0,0,1,23.207,2.1Zm-2.074,0a.72.72,0,1,1,.72.72A.72.72,0,0,1,21.134,2.1Zm-14.9,0a.72.72,0,1,1,.72.72A.72.72,0,0,1,6.233,2.1ZM4.16,2.1a.72.72,0,1,1,.72.72A.72.72,0,0,1,4.16,2.1Zm-2.08,0a.72.72,0,1,1,.72.72A.72.72,0,0,1,2.08,2.1ZM0,2.1a.72.72,0,1,1,.72.72A.72.72,0,0,1,0,2.1ZM26.318.72a.72.72,0,1,1,.72.72A.72.72,0,0,1,26.318.72Zm-2.081,0a.72.72,0,1,1,.72.72A.72.72,0,0,1,24.237.72Zm-2.074,0a.72.72,0,1,1,.72.72A.72.72,0,0,1,22.163.72ZM5.19.72a.72.72,0,1,1,.72.72A.72.72,0,0,1,5.19.72ZM3.11.72a.72.72,0,1,1,.72.72A.72.72,0,0,1,3.11.72ZM1.031.72a.72.72,0,1,1,.72.72A.72.72,0,0,1,1.031.72Z" fill="#1c208f"/>
          </g>
          <path id="Path-3" data-name="Path" d="M15.751,10.036H0V8.755A4.942,4.942,0,0,1,3.123,4.509a8.153,8.153,0,0,0,3.161-2.5L7.86,0,9.427,2.011a8.173,8.173,0,0,0,3.168,2.5,4.947,4.947,0,0,1,3.118,4.246l.038,1.282Z" transform="translate(27.981 19.732)" fill="#fff" stroke="#14bfff" stroke-linecap="round" stroke-linejoin="round" stroke-miterlimit="10" stroke-width="0.972"/>
          <path id="Shape-5" data-name="Shape" d="M0,31.575V20.258a2.729,2.729,0,0,1,1.92-2.472,5.579,5.579,0,0,0,2.2-1.461l1.094-1.165,1.1,1.153a5.608,5.608,0,0,0,2.2,1.46,2.734,2.734,0,0,1,1.977,2.471v11.33ZM8.838,9.53H1.574V9.012A1.92,1.92,0,0,1,2.918,7.3a7.285,7.285,0,0,0,.973-.4l1.318-.7,1.319.71a6.721,6.721,0,0,0,.967.4A1.922,1.922,0,0,1,8.838,9.018v.513ZM2.508,2.479V2.1A1.4,1.4,0,0,1,3.5.819a4.571,4.571,0,0,0,.71-.293L5.19,0l.972.526A4.433,4.433,0,0,0,6.88.82,1.408,1.408,0,0,1,7.871,2.1v.378Z" transform="translate(30.65 8.844)" fill="#fff" stroke="#14bfff" stroke-linecap="round" stroke-linejoin="round" stroke-miterlimit="10" stroke-width="0.972"/>
          <g id="Clipped-8" data-name="Clipped" transform="translate(33.76 31.145)">
            <path id="Path-4" data-name="Path" d="M0,9.256V3.241a3.452,3.452,0,0,1,1.753-3L2.176,0,2.6.238a3.452,3.452,0,0,1,1.753,3V9.256H0Z" fill="#fff" stroke="#14bfff" stroke-linecap="round" stroke-linejoin="round" stroke-miterlimit="10" stroke-width="0.972"/>
          </g>
        </g>
        <path id="Path-5" data-name="Path" d="M7.091,2.184c-.256-.166-1.2-.557-1.567-.8A10.941,10.941,0,0,1,4.058,0,11.376,11.376,0,0,1,2.592,1.416c-.371.243-1.312.641-1.567.8A2.338,2.338,0,0,0,0,4.176V7.5H8.11V4.144A2.338,2.338,0,0,0,7.091,2.184Z" transform="translate(32.02)" fill="#fff" stroke="#14bfff" stroke-linecap="round" stroke-linejoin="round" stroke-miterlimit="10" stroke-width="0.972"/>
        <path id="Path-6" data-name="Path" d="M0,0H71.1V2.7H0Z" transform="translate(0 46.98)" fill="#fff" stroke="#14bfff" stroke-linecap="round" stroke-linejoin="round" stroke-miterlimit="10" stroke-width="0.972"/>
      </g>
      <g id="cloud" transform="translate(15 9.015)" opacity="0.5">
        <g id="Group_11" data-name="Group 11" transform="translate(0)">
          <path id="Shape-6" data-name="Shape" d="M7.122,2.762A2.667,2.667,0,0,0,4.61,0,2.363,2.363,0,0,0,2.952.7a2.887,2.887,0,0,0-.8,1.527H2.129A2.263,2.263,0,0,0,0,4.6,2.263,2.263,0,0,0,2.129,6.97H7.094a2.007,2.007,0,0,0,1.888-2.1A2.011,2.011,0,0,0,7.122,2.762Z" fill="#fff"/>
          <path id="Shape-7" data-name="Shape" d="M4.286,0A2.6,2.6,0,0,0,1.714,2.593c.007.053.012.106.013.161l.022.643-.6.212A1.749,1.749,0,0,0,1.714,7h8.571a1.751,1.751,0,0,0,.027-3.5c-.04.006-.082.011-.124.014l-.651.044-.214-.628A1.714,1.714,0,0,0,7.714,1.75a1.689,1.689,0,0,0-.3.032l-.6.11-.3-.543A2.563,2.563,0,0,0,4.286,0Z" transform="translate(40 9.985)" fill="#fff"/>
        </g>
      </g>
    </g>
  </g>
</svg>
