<svg id="Layer_1" data-name="Layer 1" xmlns="http://www.w3.org/2000/svg" viewBox="0 0 30.65 40.01"><defs><style>.cls-1{fill:#e8f7ff;}.cls-2{fill:#effaff;}.cls-3{fill:#14bfff;}.cls-4{fill:#36c8ff;}.cls-5{fill:#63d4ff;}.cls-6{fill:#ffdaaa;}</style></defs><title>doctors</title><g id="doctor"><path id="Path" class="cls-1" d="M915.71,576c0,4.55,4.15,8.24,9.27,8.25V573.63a7.22,7.22,0,0,1-6.42-3.61A7.78,7.78,0,0,0,915.71,576Z" transform="translate(-909.66 -560.99)"/><path id="Path-2" class="cls-2" d="M925,573.63v10.59c5.12,0,9.27-3.7,9.28-8.25a7.82,7.82,0,0,0-2.86-6A7.2,7.2,0,0,1,925,573.63Z" transform="translate(-909.66 -560.99)"/><path id="Path-3" class="cls-3" d="M932.57,587.55a17,17,0,0,0-15.17,0l7.58,6.74Z" transform="translate(-909.66 -560.99)"/><path id="Path-4" class="cls-4" d="M917.4,587.55a13.43,13.43,0,0,0-7.74,11.84V601H925v-6.71Z" transform="translate(-909.66 -560.99)"/><path id="Path-5" class="cls-5" d="M932.57,587.55,925,594.29V601h15.33v-1.61A13.44,13.44,0,0,0,932.57,587.55Z" transform="translate(-909.66 -560.99)"/><path id="Path-6" class="cls-6" d="M925,573.63c3.93,0,7.12-2.82,7.12-6.31S928.92,561,925,561s-7.11,2.83-7.11,6.32a5.65,5.65,0,0,0,.68,2.71A7.22,7.22,0,0,0,925,573.63Z" transform="translate(-909.66 -560.99)"/></g></svg>