<svg xmlns="http://www.w3.org/2000/svg" viewBox="0 0 48.36 48.36"><defs><style>.cls-1{fill:#36c8ff;}.cls-2{fill:#63d4ff;}.cls-3{fill:#ffdaaa;}.cls-4{fill:#fff1de;}.cls-5{fill:#effaff;}</style></defs><title>Asset 6</title><g id="Layer_2" data-name="Layer 2"><g id="Layer_1-2" data-name="Layer 1"><path id="Path" class="cls-1" d="M32.68,0A15.77,15.77,0,0,0,17,15.68a15.93,15.93,0,0,0,2.21,7.85l-.95,6.66,6.66-1a15.44,15.44,0,0,0,7.76,2.12A15.77,15.77,0,0,0,48.36,15.68,15.77,15.77,0,0,0,32.68,0Z"/><path id="Path-2" class="cls-2" d="M48.36,15.68A15.77,15.77,0,0,0,32.68,0V31.36A15.77,15.77,0,0,0,48.36,15.68Z"/><path id="Path-3" class="cls-3" d="M24.67,37,20.4,39.87c-.28-.11-3.3.09-7.65-4.26S8.6,28.24,8.49,28l2.84-4.27L8.5,18H2.83A2.82,2.82,0,0,0,0,20.85H0c0,6.8,3.47,13.67,8.65,18.85s12,8.65,18.86,8.65a2.82,2.82,0,0,0,2.81-2.83h0V39.86Z"/><path id="Path-4" class="cls-4" d="M30.32,45.53V39.86L24.67,37,20.4,39.87c-.28-.11-3.29.09-7.65-4.26l-4.1,4.1c5.18,5.17,12,8.65,18.86,8.65a2.83,2.83,0,0,0,2.81-2.83Z"/><path id="Combined_Shape" data-name="Combined Shape" class="cls-5" d="M36.19,16.74a1.9,1.9,0,1,1,1.9,1.9A1.9,1.9,0,0,1,36.19,16.74Zm-5.08,0A1.91,1.91,0,1,1,33,18.64,1.9,1.9,0,0,1,31.11,16.74Zm-5.07,0a1.9,1.9,0,1,1,1.9,1.86A1.88,1.88,0,0,1,26,16.74Z"/></g></g></svg>