<svg xmlns="http://www.w3.org/2000/svg" width="40.96" height="35.357" viewBox="0 0 40.96 35.357">
  <g id="heartbeat" transform="translate(0 -0.001)">
    <path id="Path" d="M20.48,35.357a3.292,3.292,0,0,1-2.239-.875L3.948,21.286A12.269,12.269,0,0,1,20.48,3.153,12.269,12.269,0,0,1,37.012,21.286L22.8,34.409A3.28,3.28,0,0,1,20.48,35.357Z" transform="translate(0 0.001)" fill="#63d4ff"/>
    <path id="Path-2" data-name="Path" d="M8.211,0A12.3,12.3,0,0,0,0,3.153v32.2a3.279,3.279,0,0,0,2.316-.948L16.532,21.286A12.269,12.269,0,0,0,8.211,0Z" transform="translate(20.48 0.001)" fill="#36c8ff"/>
    <path id="Path-3" data-name="Path" d="M23.035,5.943a1.2,1.2,0,0,0-.991.524L19.757,9.819,17.19.869A1.2,1.2,0,0,0,14.975.64l-2.8,5.3H0a12.281,12.281,0,0,0,1.731,2.4H12.9a1.2,1.2,0,0,0,1.061-.64l1.743-3.3,2.449,8.539a1.2,1.2,0,0,0,2.145.345l3.37-4.94H36.158a12.284,12.284,0,0,0,1.731-2.4H23.035Z" transform="translate(1.536 12.263)" fill="#f2f4f7"/>
    <path id="Path-4" data-name="Path" d="M4.091,0A1.2,1.2,0,0,0,3.1.524L.813,3.876,0,1.043V7.807A1.2,1.2,0,0,0,1.355,7.34L4.725,2.4H17.213A12.285,12.285,0,0,0,18.944,0H4.091Z" transform="translate(20.48 18.206)" fill="#c7e7ff"/>
  </g>
</svg>
