<svg xmlns="http://www.w3.org/2000/svg" width="28.99" height="29.413" viewBox="0 0 28.99 29.413">
  <g id="microscope" transform="translate(-0.034)">
    <path id="Path" d="M10.059,19.235A10.06,10.06,0,0,1,5.934,0l1.7,3.78a5.915,5.915,0,0,0,2.423,11.31v4.145Z" transform="translate(0.034 4.795)" fill="#63d4ff"/>
    <path id="Path-2" data-name="Path" d="M7.89,0H0V3.173H9.285a.889.889,0,0,0,.889-.889A2.284,2.284,0,0,0,7.89,0Z" transform="translate(9.534 19.594)" fill="#63d4ff"/>
    <path id="Path-3" data-name="Path" d="M3.221.351a1.2,1.2,0,0,0-1.7,0L.351,1.525a1.2,1.2,0,0,0,0,1.7L2.229,5.1,5.1,2.229Z" transform="translate(1.378)" fill="#36c8ff"/>
    <path id="Path-4" data-name="Path" d="M6.934,6.1V1.95A5.9,5.9,0,0,1,2.549,0a4.98,4.98,0,0,0-1.3,1.369L0,3.317A10.024,10.024,0,0,0,6.934,6.1Z" transform="translate(3.158 17.935)" fill="#36c8ff"/>
    <path id="Path-5" data-name="Path" d="M4.027,2.392A4.939,4.939,0,0,0,3.412,0H0V3.173H4.027Z" transform="translate(9.534 19.594)" fill="#36c8ff"/>
    <path id="Path-6" data-name="Path" d="M5.892,0A3.2,3.2,0,0,0,3.2,1.471l-3.2,5L4.544,8.545,9.088,6.468V3.195A3.2,3.2,0,0,0,5.892,0Z" transform="translate(2.698 18.791)" fill="#63d4ff"/>
    <circle id="Oval" cx="1.099" cy="1.099" r="1.099" transform="translate(7.336 20.983)" fill="#1c208f"/>
    <path id="Path-7" data-name="Path" d="M0,3.638,3.037,6.675A5.924,5.924,0,0,1,5.97,3.78L4.269,0A10.057,10.057,0,0,0,0,3.638Z" transform="translate(1.699 4.795)" fill="#36c8ff"/>
    <circle id="Oval-2" data-name="Oval" cx="6.717" cy="6.717" r="6.717" transform="translate(15.59 4.55)" fill="#2d31b2"/>
    <path id="Path-8" data-name="Path" d="M8.059,3.4a1.019,1.019,0,0,1-.478-1.155h0A1.019,1.019,0,0,0,6.329.993h0A1.019,1.019,0,0,1,5.173.515,1.019,1.019,0,0,0,3.4.515,1.019,1.019,0,0,1,2.246.993h0A1.019,1.019,0,0,0,.993,2.245h0A1.019,1.019,0,0,1,.515,3.4a1.019,1.019,0,0,0,0,1.771A1.019,1.019,0,0,1,.993,6.327h0A1.019,1.019,0,0,0,2.245,7.581h0A1.019,1.019,0,0,1,3.4,8.059a1.019,1.019,0,0,0,1.771,0,1.019,1.019,0,0,1,1.155-.478h0A1.019,1.019,0,0,0,7.581,6.329h0a1.019,1.019,0,0,1,.478-1.155A1.019,1.019,0,0,0,8.059,3.4Z" transform="translate(18.02 6.98)" fill="#effaff"/>
    <path id="Path-9" data-name="Path" d="M2.149,1.278A5.972,5.972,0,0,1,2.278.045L2.246.038h0A1.019,1.019,0,0,0,.993,1.29h0A1.019,1.019,0,0,1,.515,2.446a1.019,1.019,0,0,0,0,1.771A1.019,1.019,0,0,1,.993,5.372h0A1.019,1.019,0,0,0,2.245,6.626h0A1.019,1.019,0,0,1,3.4,7.1a1.019,1.019,0,0,0,1.771,0,1.016,1.016,0,0,1,.334-.352A6.273,6.273,0,0,1,2.149,1.278Z" transform="translate(18.02 7.936)" fill="#e8f7ff"/>
    <path id="Path-10" data-name="Path" d="M6.167.566a1.932,1.932,0,0,0-2.732,0L.566,3.435a1.932,1.932,0,0,0,0,2.732l7.111,7.111,5.6-5.6Z" transform="translate(2.322 0.943)" fill="#63d4ff"/>
    <path id="Path-11" data-name="Path" d="M4.747,4.933A7.021,7.021,0,0,1,6.254.653L6.167.566a1.932,1.932,0,0,0-2.732,0L.566,3.435a1.932,1.932,0,0,0,0,2.732l7.111,7.111L9.21,11.745C6.5,10.2,4.747,7.724,4.747,4.933Z" transform="translate(2.322 0.943)" fill="#36c8ff"/>
    <path id="Path-12" data-name="Path" d="M8.576,1.506,7.375.3A1.039,1.039,0,0,0,5.906.3L.3,5.906a1.039,1.039,0,0,0,0,1.469l1.2,1.2a1.039,1.039,0,0,0,1.469,0l5.6-5.6a1.039,1.039,0,0,0,0-1.469Z" transform="translate(8.359 6.98)" fill="#63d4ff"/>
    <path id="Path-13" data-name="Path" d="M19.786,0H2.221A2.221,2.221,0,0,0,0,2.221V3.2a.951.951,0,0,0,.951.951H21.293A1.324,1.324,0,0,0,22.616,2.83,2.83,2.83,0,0,0,19.786,0Z" transform="translate(0.478 25.259)" fill="#63d4ff"/>
    <path id="Path-14" data-name="Path" d="M1.6,0,.3,1.292a1.039,1.039,0,0,0,0,1.469l1.2,1.2a1.038,1.038,0,0,0,1.469,0L5,1.938A11.337,11.337,0,0,1,1.6,0Z" transform="translate(8.359 11.594)" fill="#36c8ff"/>
  </g>
</svg>
