<svg xmlns="http://www.w3.org/2000/svg" xmlns:xlink="http://www.w3.org/1999/xlink" width="74" height="74" viewBox="0 0 74 74">
  <defs>
    <linearGradient id="linear-gradient" x1="0.5" y1="0.021" x2="0.5" y2="0.985" gradientUnits="objectBoundingBox">
      <stop offset="0" stop-color="#ace8ff"/>
      <stop offset="1" stop-color="#fff"/>
    </linearGradient>
    <clipPath id="clip-path">
      <circle id="Oval" cx="36" cy="36" r="36" stroke="#69d6ff" stroke-miterlimit="10" stroke-width="1" fill="url(#linear-gradient)"/>
    </clipPath>
  </defs>
  <g id="Mumbai-vector" transform="translate(1 1)">
    <g id="Oval-2" data-name="Oval" stroke="#69d6ff" stroke-miterlimit="10" stroke-width="1" fill="url(#linear-gradient)">
      <circle cx="36" cy="36" r="36" stroke="none"/>
      <circle cx="36" cy="36" r="36.5" fill="none"/>
    </g>
    <g id="Group_8" data-name="Group 8" clip-path="url(#clip-path)">
      <g id="Group_11" data-name="Group 11" transform="translate(8 12.015)">
        <path id="Shape" d="M1.86,2.762A2.667,2.667,0,0,1,4.373,0,2.363,2.363,0,0,1,6.031.7a2.887,2.887,0,0,1,.8,1.527h.024A2.263,2.263,0,0,1,8.982,4.6,2.263,2.263,0,0,1,6.854,6.97H1.888A2.007,2.007,0,0,1,0,4.866,2.011,2.011,0,0,1,1.86,2.762Z" transform="translate(43.018)" fill="#fff"/>
        <path id="Shape-2" data-name="Shape" d="M7.714,0a2.6,2.6,0,0,1,2.571,2.593c-.007.053-.012.106-.013.161l-.022.643.6.212A1.749,1.749,0,0,1,10.286,7H1.714a1.751,1.751,0,0,1-.027-3.5c.04.006.082.011.124.014l.651.044.214-.628A1.714,1.714,0,0,1,4.286,1.75a1.689,1.689,0,0,1,.3.032l.6.11.3-.543A2.563,2.563,0,0,1,7.714,0Z" transform="translate(0 9.985)" fill="#fff"/>
      </g>
      <g id="icon_mumbai" transform="translate(-7.2 16.2)">
        <g id="Group" transform="translate(0 4.489)">
          <g id="Clipped" transform="translate(0.359 33.223)">
            <path id="Path" d="M0,0H84.785V31.185H0Z" fill="#1c208f"/>
          </g>
          <g id="Clipped-2" data-name="Clipped">
            <g id="Group-2" data-name="Group">
              <path id="Path-2" data-name="Path" d="M0,0H84.6V2.7H0Z" transform="translate(0 39.611)" fill="#fff" stroke="#14bfff" stroke-linecap="round" stroke-linejoin="round" stroke-miterlimit="10" stroke-width="0.972"/>
              <path id="Path-3" data-name="Path" d="M0,0H84.653V6.658H0Z" transform="translate(0.661 32.853)" fill="#fff" stroke="#14bfff" stroke-linecap="round" stroke-linejoin="round" stroke-miterlimit="10" stroke-width="0.972"/>
              <g id="Group-3" data-name="Group" transform="translate(12.74)">
                <path id="Path-4" data-name="Path" d="M2.455,32.853H0L5.9,0H8.355Z" transform="translate(22.874)" fill="#fff" stroke="#14bfff" stroke-linecap="round" stroke-linejoin="round" stroke-miterlimit="10" stroke-width="0.972"/>
                <path id="Path-5" data-name="Path" d="M5.9,32.853H8.355L2.462,0H0Z" transform="translate(29.463)" fill="#fff" stroke="#14bfff" stroke-linecap="round" stroke-linejoin="round" stroke-miterlimit="10" stroke-width="0.972"/>
                <path id="Path_2" data-name="Path 2" d="M15.072,0,0,28.949l5.186-.093Z" transform="translate(12.371 3.362)" fill="#fff"/>
                <path id="Path_2-2" data-name="Path 2" d="M-15.072,0,0,28.949l-5.186-.093Z" transform="translate(48.443 3.362)" fill="#fff"/>
                <path id="Path_2-3" data-name="Path 2" d="M-26.072,0,0,28.949l-5.186-.093Z" transform="translate(60.443 3.362)" fill="#fff"/>
                <path id="Path_2-4" data-name="Path 2" d="M26.072,0,0,28.949l5.186-.093Z" transform="translate(0.371 3.362)" fill="#fff"/>
                <path id="Shape-3" data-name="Shape" d="M31.6,0,61.067,32.853Zm0,0L55.13,32.853Zm0,0L49.188,32.853Zm0,0,11.09,32.853ZM29.463,0,17.556,32.853Zm0,0L11.879,32.853Zm0,0L5.936,32.853Zm0,0L0,32.853Z" fill="#fff" stroke="#14bfff" stroke-linecap="round" stroke-linejoin="round" stroke-miterlimit="10" stroke-width="0.972"/>
              </g>
              <path id="Combined_Shape" data-name="Combined Shape" d="M58.03,2.372a.807.807,0,1,1,.807.806A.806.806,0,0,1,58.03,2.372Zm-2.332,0a.807.807,0,1,1,.807.806A.806.806,0,0,1,55.7,2.372Zm-2.326,0a.807.807,0,1,1,.807.806A.806.806,0,0,1,53.373,2.372Zm-2.333,0a.807.807,0,1,1,.807.806A.806.806,0,0,1,51.04,2.372Zm-2.333,0a.807.807,0,1,1,.807.806A.806.806,0,0,1,48.707,2.372Zm-2.333,0a.807.807,0,1,1,.807.806A.806.806,0,0,1,46.374,2.372Zm-2.239,0a.807.807,0,1,1,.807.806A.806.806,0,0,1,44.135,2.372Zm-2.333,0a.807.807,0,1,1,.807.806A.806.806,0,0,1,41.8,2.372Zm-2.333,0a.807.807,0,1,1,.807.806A.806.806,0,0,1,39.47,2.372Zm-2.333,0a.807.807,0,1,1,.807.806A.806.806,0,0,1,37.137,2.372Zm-2.326,0a.807.807,0,1,1,.807.806A.806.806,0,0,1,34.811,2.372Zm-2.333,0a.807.807,0,1,1,.807.806A.806.806,0,0,1,32.478,2.372Zm-2.333,0a.807.807,0,1,1,.807.806A.806.806,0,0,1,30.146,2.372Zm-2.261,0a.807.807,0,1,1,.807.806A.806.806,0,0,1,27.885,2.372Zm-2.333,0a.807.807,0,1,1,.807.806A.806.806,0,0,1,25.552,2.372Zm-2.326,0a.807.807,0,1,1,.807.806A.806.806,0,0,1,23.226,2.372Zm-2.333,0a.807.807,0,1,1,.807.806A.806.806,0,0,1,20.894,2.372Zm-2.333,0a.807.807,0,1,1,.807.806A.806.806,0,0,1,18.561,2.372Zm-2.332,0a.807.807,0,1,1,.807.806A.806.806,0,0,1,16.229,2.372Zm-2.24,0a.807.807,0,1,1,.807.806A.806.806,0,0,1,13.989,2.372Zm-2.333,0a.807.807,0,1,1,.807.806A.806.806,0,0,1,11.656,2.372Zm-2.333,0a.807.807,0,1,1,.807.806A.806.806,0,0,1,9.323,2.372Zm-2.332,0a.807.807,0,1,1,.807.806A.806.806,0,0,1,6.991,2.372Zm-2.326,0a.807.807,0,1,1,.807.806A.806.806,0,0,1,4.666,2.372Zm-2.333,0a.807.807,0,1,1,.807.806A.806.806,0,0,1,2.333,2.372ZM0,2.372a.807.807,0,1,1,.807.806A.806.806,0,0,1,0,2.372ZM59.207.806a.807.807,0,1,1,.807.806A.807.807,0,0,1,59.207.806Zm-2.333,0a.807.807,0,1,1,.807.806A.807.807,0,0,1,56.875.806Zm-2.333,0a.807.807,0,1,1,.807.806A.807.807,0,0,1,54.542.806Zm-2.332,0a.807.807,0,1,1,.807.806A.807.807,0,0,1,52.21.806Zm-2.326,0a.807.807,0,1,1,.807.806A.807.807,0,0,1,49.884.806Zm-2.333,0a.807.807,0,1,1,.807.806A.807.807,0,0,1,47.552.806Zm-2.333,0a.807.807,0,1,1,.807.806A.807.807,0,0,1,45.219.806Zm-2.261,0a.807.807,0,1,1,.807.806A.807.807,0,0,1,42.958.806Zm-2.333,0a.807.807,0,1,1,.807.806A.807.807,0,0,1,40.625.806ZM38.3.806a.807.807,0,1,1,.807.806A.807.807,0,0,1,38.3.806Zm-2.333,0a.807.807,0,1,1,.807.806A.807.807,0,0,1,35.967.806Zm-2.333,0a.807.807,0,1,1,.807.806A.807.807,0,0,1,33.634.806ZM31.3.806a.807.807,0,1,1,.807.806A.807.807,0,0,1,31.3.806Zm-2.239,0a.807.807,0,1,1,.807.806A.807.807,0,0,1,29.062.806Zm-2.333,0a.807.807,0,1,1,.807.806A.807.807,0,0,1,26.729.806ZM24.4.806a.807.807,0,1,1,.807.806A.807.807,0,0,1,24.4.806Zm-2.333,0a.807.807,0,1,1,.807.806A.807.807,0,0,1,22.064.806Zm-2.326,0a.807.807,0,1,1,.807.806A.807.807,0,0,1,19.738.806Zm-2.333,0a.807.807,0,1,1,.807.806A.807.807,0,0,1,17.405.806Zm-2.333,0a.807.807,0,1,1,.807.806A.807.807,0,0,1,15.072.806Zm-2.261,0a.807.807,0,1,1,.807.806A.807.807,0,0,1,12.812.806Zm-2.332,0a.807.807,0,1,1,.807.806A.807.807,0,0,1,10.48.806Zm-2.326,0a.807.807,0,1,1,.807.806A.807.807,0,0,1,8.154.806Zm-2.333,0a.807.807,0,1,1,.807.806A.807.807,0,0,1,5.821.806Zm-2.333,0a.807.807,0,1,1,.807.806A.807.807,0,0,1,3.488.806Zm-2.333,0a.807.807,0,1,1,.807.806A.807.807,0,0,1,1.156.806Z" transform="translate(13.017 34.767)" fill="#1c208f"/>
            </g>
          </g>
        </g>
        <path id="Path-6" data-name="Path" d="M0,0H3.588V5.9H0Z" transform="translate(41.45)" fill="#fff" stroke="#14bfff" stroke-linecap="round" stroke-linejoin="round" stroke-miterlimit="10" stroke-width="0.972"/>
      </g>
    </g>
  </g>
</svg>
