<svg xmlns="http://www.w3.org/2000/svg" xmlns:xlink="http://www.w3.org/1999/xlink" width="74" height="74" viewBox="0 0 74 74">
  <defs>
    <linearGradient id="linear-gradient" x1="0.5" y1="0.021" x2="0.5" y2="0.985" gradientUnits="objectBoundingBox">
      <stop offset="0" stop-color="#ace8ff"/>
      <stop offset="1" stop-color="#fff"/>
    </linearGradient>
    <clipPath id="clip-path">
      <circle id="Oval" cx="36" cy="36" r="36" stroke="#69d6ff" stroke-miterlimit="10" stroke-width="1" fill="url(#linear-gradient)"/>
    </clipPath>
  </defs>
  <g id="new-delhi-vector" transform="translate(1 1)">
    <g id="Oval-2" data-name="Oval" stroke="#69d6ff" stroke-miterlimit="10" stroke-width="1" fill="url(#linear-gradient)">
      <circle cx="36" cy="36" r="36" stroke="none"/>
      <circle cx="36" cy="36" r="36.5" fill="none"/>
    </g>
    <g id="Group_6" data-name="Group 6" clip-path="url(#clip-path)">
      <g id="cloud" transform="translate(11 8)">
        <g id="Group_12" data-name="Group 12" opacity="0.5">
          <path id="Shape" d="M7.122,2.762A2.667,2.667,0,0,0,4.61,0,2.363,2.363,0,0,0,2.952.7a2.887,2.887,0,0,0-.8,1.527H2.129A2.263,2.263,0,0,0,0,4.6,2.263,2.263,0,0,0,2.129,6.97H7.094a2.007,2.007,0,0,0,1.888-2.1A2.011,2.011,0,0,0,7.122,2.762Z" transform="translate(0 5.015)" fill="#fff"/>
          <path id="Shape-2" data-name="Shape" d="M7.714,0a2.6,2.6,0,0,1,2.571,2.593c-.007.053-.012.106-.013.161l-.022.643.6.212A1.749,1.749,0,0,1,10.286,7H1.714a1.751,1.751,0,0,1-.027-3.5c.04.006.082.011.124.014l.651.044.214-.628A1.714,1.714,0,0,1,4.286,1.75a1.689,1.689,0,0,1,.3.032l.6.11.3-.543A2.563,2.563,0,0,1,7.714,0Z" transform="translate(24)" fill="#fff"/>
        </g>
      </g>
      <g id="icon_new-delhi" transform="translate(3.89 21.15)">
        <g id="Group" transform="translate(0 10.367)">
          <g id="Clipped" transform="translate(0 16.697)">
            <path id="Shape-3" data-name="Shape" d="M0,24.264V13.107H54.861V24.264ZM18.535,12.843V0H40.7V12.843Z" transform="translate(5.599)" fill="#fff" stroke="#14bfff" stroke-linecap="round" stroke-linejoin="round" stroke-miterlimit="10" stroke-width="0.972"/>
            <path id="Path" d="M0,0H67.184V16.714H0Z" transform="translate(0 13.106)" fill="#1c208f"/>
            <path id="Path-2" data-name="Path" d="M0,0H69.05V2.786H0Z" transform="translate(0.643 12.714)" fill="#fff" stroke="#14bfff" stroke-linecap="round" stroke-linejoin="round" stroke-miterlimit="10" stroke-width="0.972"/>
          </g>
          <g id="Clipped-2" data-name="Clipped" transform="translate(27.319 13.496)">
            <path id="Path-3" data-name="Path" d="M1.578,0A1.592,1.592,0,0,1,3.162,1.6V3.2H0V1.6A1.593,1.593,0,0,1,1.578,0Z" fill="#fff" stroke="#14bfff" stroke-linecap="round" stroke-linejoin="round" stroke-miterlimit="10" stroke-width="0.972"/>
          </g>
          <g id="Clipped-3" data-name="Clipped" transform="translate(30.481 13.496)">
            <path id="Shape-4" data-name="Shape" d="M3.168,3.2V1.6a1.581,1.581,0,1,1,3.163,0V3.2ZM0,3.2V1.6A1.593,1.593,0,0,1,1.579,0,1.593,1.593,0,0,1,3.163,1.6V3.2Z" fill="#fff" stroke="#14bfff" stroke-linecap="round" stroke-linejoin="round" stroke-miterlimit="10" stroke-width="0.972"/>
          </g>
          <g id="Clipped-4" data-name="Clipped" transform="translate(36.812 13.496)">
            <path id="Path-4" data-name="Path" d="M1.578,0A1.592,1.592,0,0,1,3.162,1.6V3.2H0V1.6A1.593,1.593,0,0,1,1.578,0Z" fill="#fff" stroke="#14bfff" stroke-linecap="round" stroke-linejoin="round" stroke-miterlimit="10" stroke-width="0.972"/>
          </g>
          <g id="Clipped-5" data-name="Clipped" transform="translate(39.974 2.242)">
            <path id="Shape-5" data-name="Shape" d="M3.162,5.875H2.45L2.047,0h2.2L3.809,5.875H3.162v0ZM0,14.455v-1.6a1.593,1.593,0,0,1,1.578-1.6,1.593,1.593,0,0,1,1.584,1.6v1.6Z" fill="#fff" stroke="#14bfff" stroke-linecap="round" stroke-linejoin="round" stroke-miterlimit="10" stroke-width="0.972"/>
          </g>
          <g id="Clipped-6" data-name="Clipped" transform="translate(26.204)">
            <path id="Shape-6" data-name="Shape" d="M1.11,8.118H.4L0,2.242H2.189L1.761,8.118H1.11v0ZM18.534,2.823H15.324V2.362A2.762,2.762,0,0,1,16.933,0a2.772,2.772,0,0,1,1.6,2.362v.461Z" fill="#fff" stroke="#14bfff" stroke-linecap="round" stroke-linejoin="round" stroke-miterlimit="10" stroke-width="0.972"/>
          </g>
          <g id="Clipped-7" data-name="Clipped" transform="translate(25.711)">
            <path id="Path-5" data-name="Path" d="M3.21,2.824H0V2.362A2.77,2.77,0,0,1,1.6,0,2.763,2.763,0,0,1,3.21,2.362v.461Z" fill="#fff" stroke="#14bfff" stroke-linecap="round" stroke-linejoin="round" stroke-miterlimit="10" stroke-width="0.972"/>
          </g>
          <g id="Clipped-8" data-name="Clipped" transform="translate(27.604 22.609)">
            <path id="Shape-7" data-name="Shape" d="M6.027,4.1V1.588A1.593,1.593,0,0,1,7.612,0h0A1.593,1.593,0,0,1,9.2,1.6V4.1ZM0,4.1V1.588A1.592,1.592,0,0,1,1.579,0h0A1.593,1.593,0,0,1,3.163,1.6V4.1ZM12.062,4.09v-2.5A1.591,1.591,0,0,1,13.646,0h0a1.592,1.592,0,0,1,1.578,1.588v2.5Z" fill="#fff" stroke="#14bfff" stroke-linecap="round" stroke-linejoin="round" stroke-miterlimit="10" stroke-width="0.972"/>
          </g>
          <g id="Clipped-9" data-name="Clipped" transform="translate(49.372 1.205)">
            <path id="Path-6" data-name="Path" d="M0,0H6.514V15.66H0Z" fill="#fff" stroke="#14bfff" stroke-linecap="round" stroke-linejoin="round" stroke-miterlimit="10" stroke-width="0.972"/>
          </g>
          <g id="Clipped-10" data-name="Clipped" transform="translate(46.298 15.013)">
            <path id="Path-7" data-name="Path" d="M0,0H12.655V14.467H0Z" fill="#fff" stroke="#14bfff" stroke-linecap="round" stroke-linejoin="round" stroke-miterlimit="10" stroke-width="0.972"/>
          </g>
          <g id="Clipped-11" data-name="Clipped" transform="translate(46.304 11.817)">
            <path id="Path-8" data-name="Path" d="M1.578,0A1.592,1.592,0,0,1,3.162,1.6V3.2H0V1.6A1.593,1.593,0,0,1,1.578,0Z" transform="translate(0)" fill="#fff" stroke="#14bfff" stroke-linecap="round" stroke-linejoin="round" stroke-miterlimit="10" stroke-width="0.972"/>
          </g>
          <g id="Clipped-12" data-name="Clipped" transform="translate(49.467 11.817)">
            <path id="Path-9" data-name="Path" d="M1.578,0A1.592,1.592,0,0,1,3.162,1.6V3.2H0V1.6A1.593,1.593,0,0,1,1.578,0Z" transform="translate(0)" fill="#fff" stroke="#14bfff" stroke-linecap="round" stroke-linejoin="round" stroke-miterlimit="10" stroke-width="0.972"/>
          </g>
          <g id="Clipped-13" data-name="Clipped" transform="translate(52.629 11.817)">
            <path id="Path-10" data-name="Path" d="M1.578,0A1.592,1.592,0,0,1,3.162,1.6V3.2H0V1.6A1.593,1.593,0,0,1,1.578,0Z" transform="translate(0)" fill="#fff" stroke="#14bfff" stroke-linecap="round" stroke-linejoin="round" stroke-miterlimit="10" stroke-width="0.972"/>
          </g>
          <g id="Clipped-14" data-name="Clipped" transform="translate(55.791 11.817)">
            <path id="Path-11" data-name="Path" d="M1.579,0A1.592,1.592,0,0,1,3.162,1.6V3.2H0V1.6A1.593,1.593,0,0,1,1.579,0Z" transform="translate(0)" fill="#fff" stroke="#14bfff" stroke-linecap="round" stroke-linejoin="round" stroke-miterlimit="10" stroke-width="0.972"/>
          </g>
          <g id="Clipped-15" data-name="Clipped" transform="translate(49.372 15.013)">
            <path id="Path-12" data-name="Path" d="M0,0H6.514V14.467H0Z" fill="#fff" stroke="#14bfff" stroke-linecap="round" stroke-linejoin="round" stroke-miterlimit="10" stroke-width="0.972"/>
          </g>
          <g id="Clipped-16" data-name="Clipped" transform="translate(14.468 1.205)">
            <path id="Shape-8" data-name="Shape" d="M36.535,25.505V22.992A1.593,1.593,0,0,1,38.112,21.4h0a1.586,1.586,0,0,1,1.122.47A1.6,1.6,0,0,1,39.7,23v2.5ZM0,15.661V0H6.514V15.661Z" fill="#fff" stroke="#14bfff" stroke-linecap="round" stroke-linejoin="round" stroke-miterlimit="10" stroke-width="0.972"/>
          </g>
          <g id="Clipped-17" data-name="Clipped" transform="translate(11.401 15.013)">
            <path id="Path-13" data-name="Path" d="M0,0H12.655V14.467H0Z" fill="#fff" stroke="#14bfff" stroke-linecap="round" stroke-linejoin="round" stroke-miterlimit="10" stroke-width="0.972"/>
          </g>
          <g id="Clipped-18" data-name="Clipped" transform="translate(11.383 11.817)">
            <path id="Path-14" data-name="Path" d="M1.6,0A1.592,1.592,0,0,1,3.18,1.6V3.2H0V1.6A1.608,1.608,0,0,1,.468.465,1.575,1.575,0,0,1,1.6,0Z" transform="translate(0 0)" fill="#fff" stroke="#14bfff" stroke-linecap="round" stroke-linejoin="round" stroke-miterlimit="10" stroke-width="0.972"/>
          </g>
          <g id="Clipped-19" data-name="Clipped" transform="translate(14.552 11.817)">
            <path id="Path-15" data-name="Path" d="M1.578,0A1.592,1.592,0,0,1,3.162,1.6V3.2H0V1.6A1.593,1.593,0,0,1,1.578,0Z" transform="translate(0)" fill="#fff" stroke="#14bfff" stroke-linecap="round" stroke-linejoin="round" stroke-miterlimit="10" stroke-width="0.972"/>
          </g>
          <g id="Clipped-20" data-name="Clipped" transform="translate(17.714 11.817)">
            <path id="Path-16" data-name="Path" d="M1.6,0A1.593,1.593,0,0,1,3.162,1.6V3.2H0V1.6A1.608,1.608,0,0,1,.469.465,1.575,1.575,0,0,1,1.6,0Z" transform="translate(0 0)" fill="#fff" stroke="#14bfff" stroke-linecap="round" stroke-linejoin="round" stroke-miterlimit="10" stroke-width="0.972"/>
          </g>
          <g id="Clipped-21" data-name="Clipped" transform="translate(20.876 11.817)">
            <path id="Path-17" data-name="Path" d="M1.6,0A1.592,1.592,0,0,1,3.18,1.6V3.2H0V1.6A1.608,1.608,0,0,1,.469.465,1.575,1.575,0,0,1,1.6,0Z" transform="translate(0 0)" fill="#fff" stroke="#14bfff" stroke-linecap="round" stroke-linejoin="round" stroke-miterlimit="10" stroke-width="0.972"/>
          </g>
          <g id="Clipped-22" data-name="Clipped" transform="translate(14.468 15.013)">
            <path id="Path-18" data-name="Path" d="M0,0H6.514V14.467H0Z" fill="#fff" stroke="#14bfff" stroke-linecap="round" stroke-linejoin="round" stroke-miterlimit="10" stroke-width="0.972"/>
          </g>
          <g id="Clipped-23" data-name="Clipped" transform="translate(16.13 22.609)">
            <path id="Path-19" data-name="Path" d="M1.554,0A1.592,1.592,0,0,1,3.138,1.6V4.1H0V1.589A1.593,1.593,0,0,1,1.554,0Z" fill="#fff" stroke="#14bfff" stroke-linecap="round" stroke-linejoin="round" stroke-miterlimit="10" stroke-width="0.972"/>
          </g>
          <g id="Clipped-24" data-name="Clipped" transform="translate(28.467 18.371)">
            <path id="Combined_Shape" data-name="Combined Shape" d="M11.557,1.96a.667.667,0,1,1,.668.67A.669.669,0,0,1,11.557,1.96Zm-1.922,0a.667.667,0,1,1,.668.67A.669.669,0,0,1,9.635,1.96Zm-1.928,0a.667.667,0,1,1,.667.67A.669.669,0,0,1,7.707,1.96Zm-1.929,0a.667.667,0,1,1,.668.67A.669.669,0,0,1,5.778,1.96Zm-1.922,0a.667.667,0,1,1,.668.67A.669.669,0,0,1,3.856,1.96Zm-1.928,0a.667.667,0,1,1,.667.67A.669.669,0,0,1,1.928,1.96ZM0,1.96a.667.667,0,1,1,.668.67A.669.669,0,0,1,0,1.96ZM10.589.67a.668.668,0,1,1,.668.67A.669.669,0,0,1,10.589.67ZM8.662.67a.667.667,0,1,1,.667.67A.669.669,0,0,1,8.662.67ZM6.733.67a.668.668,0,1,1,.668.67A.669.669,0,0,1,6.733.67ZM4.811.67a.667.667,0,1,1,.667.67A.669.669,0,0,1,4.811.67ZM2.884.67a.667.667,0,1,1,.667.67A.669.669,0,0,1,2.884.67ZM.955.67a.667.667,0,1,1,.668.67A.669.669,0,0,1,.955.67Z" fill="#1c208f"/>
          </g>
        </g>
        <g id="Group-2" data-name="Group" transform="translate(11.977)">
          <path id="Shape-9" data-name="Shape" d="M36.189,11.758V9.593h9.4v2.164Zm-35.6,0V9.592H10v2.165ZM35,9.305V7.848a1.146,1.146,0,0,0,1.11-.863A8.711,8.711,0,0,1,40.562,1.8l.077.043v0A8.808,8.808,0,0,1,45.084,7a1.188,1.188,0,0,0,1.109.858h.018V9.305Zm-35,0V7.854H.012A1.152,1.152,0,0,0,1.114,7,8.877,8.877,0,0,1,5.635,1.8v0l.006,0a8.7,8.7,0,0,1,4.45,5.186,1.146,1.146,0,0,0,1.11.863V9.305Z" fill="#fff" stroke="#14bfff" stroke-linecap="round" stroke-linejoin="round" stroke-miterlimit="10" stroke-width="0.972"/>
        </g>
      </g>
    </g>
  </g>
</svg>
