<svg xmlns="http://www.w3.org/2000/svg" width="72" height="72" viewBox="0 0 72 72">
  <g id="online-report" transform="translate(0)">
    <path id="Path" d="M58.5,0H5.049A5.055,5.055,0,0,0,0,5.049V42.925a5.236,5.236,0,0,0,4.253,5.131H59.3a5.235,5.235,0,0,0,4.253-5.131V5.049A5.055,5.055,0,0,0,58.5,0Z" transform="translate(4.224 16.359)" fill="#36c8ff"/>
    <path id="Path-2" data-name="Path" d="M5.9,42.925V5.049A5.055,5.055,0,0,1,10.953,0h-5.9A5.055,5.055,0,0,0,0,5.049V42.925a5.236,5.236,0,0,0,4.253,5.131h5.9A5.236,5.236,0,0,1,5.9,42.925Z" transform="translate(4.224 16.36)" fill="#63d4ff"/>
    <path id="Path-3" data-name="Path" d="M71.157,0H.843A.847.847,0,0,0,0,.851V3.78A3.943,3.943,0,0,0,3.912,7.73H68.088A3.943,3.943,0,0,0,72,3.78V.851A.847.847,0,0,0,71.157,0Z" transform="translate(0 64.27)" fill="#dfebfa"/>
    <path id="Path-4" data-name="Path" d="M71.157,0H.843A.847.847,0,0,0,0,.851V3.78A3.943,3.943,0,0,0,3.912,7.73H68.088A3.943,3.943,0,0,0,72,3.78V.851A.847.847,0,0,0,71.157,0Z" transform="translate(0 64.27)" fill="#36c8ff"/>
    <path id="Path-5" data-name="Path" d="M12.164,3.78V.851A.847.847,0,0,1,13.008,0H.843A.847.847,0,0,0,0,.851V3.78A3.943,3.943,0,0,0,3.912,7.73H16.077A3.943,3.943,0,0,1,12.164,3.78Z" transform="translate(0 64.27)" fill="#53d0ff"/>
    <path id="Path-6" data-name="Path" d="M0,0V1.965A1.752,1.752,0,0,0,1.739,3.72H19.265A1.752,1.752,0,0,0,21,1.965V0" transform="translate(25.498 64.27)" fill="#b1dbfc"/>
    <path id="Path-7" data-name="Path" d="M9.489,1.965V0H0V1.965A1.752,1.752,0,0,0,1.739,3.72h9.489A1.752,1.752,0,0,1,9.489,1.965Z" transform="translate(25.498 64.27)" fill="#8bcaff"/>
    <path id="Path-8" data-name="Path" d="M53.574,0H.906A.906.906,0,0,0,0,.906v37.1a.906.906,0,0,0,.906.906H53.574a.906.906,0,0,0,.906-.906V.906A.906.906,0,0,0,53.574,0Z" transform="translate(8.76 20.862)" fill="#c7efff"/>
    <path id="Path-9" data-name="Path" d="M37.644,0H8.434L0,8.434V51.967a1.869,1.869,0,0,0,1.869,1.869H37.678a1.869,1.869,0,0,0,1.869-1.869V1.9A1.9,1.9,0,0,0,37.644,0Z" transform="translate(16.227)" fill="#fff"/>
    <path id="Path-10" data-name="Path" d="M3.549,46.934V0L0,3.549V47.081A1.869,1.869,0,0,0,1.869,48.95H4.937A2.16,2.16,0,0,1,3.549,46.934Z" transform="translate(16.227 4.885)" fill="#fff"/>
    <path id="Path-11" data-name="Path" d="M0,8.434H6.533a1.9,1.9,0,0,0,1.9-1.9V0Z" transform="translate(16.227)" fill="#b1dbfc"/>
    <path id="Path-12" data-name="Path" d="M1.576,4.79.194,3.294a.758.758,0,0,1,0-1.013.626.626,0,0,1,.935,0l.914.99L4.871.21a.626.626,0,0,1,.935,0,.758.758,0,0,1,0,1.013L2.511,4.79A.626.626,0,0,1,1.576,4.79Z" transform="translate(24 12)" fill="#1c208f"/>
    <path id="Path_Copy" data-name="Path Copy" d="M1.576,4.79.194,3.294a.758.758,0,0,1,0-1.013.626.626,0,0,1,.935,0l.914.99L4.871.21a.626.626,0,0,1,.935,0,.758.758,0,0,1,0,1.013L2.511,4.79A.626.626,0,0,1,1.576,4.79Z" transform="translate(24 20)" fill="#1c208f"/>
    <path id="Path-13" data-name="Path" d="M15.125,2.173H.875A1,1,0,0,1,0,1.086,1,1,0,0,1,.875,0H15.125A1,1,0,0,1,16,1.086,1,1,0,0,1,15.125,2.173Z" transform="translate(33 13)" fill="#b1dbfc"/>
    <path id="Path_Copy_2" data-name="Path Copy 2" d="M15.125,2.173H.875A1,1,0,0,1,0,1.086,1,1,0,0,1,.875,0H15.125A1,1,0,0,1,16,1.086,1,1,0,0,1,15.125,2.173Z" transform="translate(33 22)" fill="#b1dbfc"/>
    <path id="Path_Copy-2" data-name="Path Copy" d="M1.576,4.79.194,3.294a.758.758,0,0,1,0-1.013.626.626,0,0,1,.935,0l.914.99L4.871.21a.626.626,0,0,1,.935,0,.758.758,0,0,1,0,1.013L2.511,4.79A.626.626,0,0,1,1.576,4.79Z" transform="translate(24 29)" fill="#1c208f"/>
    <path id="Path_Copy_2-2" data-name="Path Copy 2" d="M15.125,2.173H.875A1,1,0,0,1,0,1.086,1,1,0,0,1,.875,0H15.125A1,1,0,0,1,16,1.086,1,1,0,0,1,15.125,2.173Z" transform="translate(33 31)" fill="#b1dbfc"/>
  </g>
</svg>
