<svg id="pediatrician" xmlns="http://www.w3.org/2000/svg" width="27" height="51.2" viewBox="0 0 27 51.2">
  <path id="Path" d="M13.5,0A13.606,13.606,0,0,0,0,13.6V37.7a13.5,13.5,0,0,0,27,0V13.6A13.606,13.606,0,0,0,13.5,0Z" fill="#63d4ff"/>
  <path id="Path-2" data-name="Path" d="M13.5,13.6V37.7A13.521,13.521,0,0,1,0,51.2V0A13.606,13.606,0,0,1,13.5,13.6Z" transform="translate(13.5)" fill="#36c8ff"/>
  <path id="Path-3" data-name="Path" d="M22.95,6.03a10.42,10.42,0,0,0-18.9,0,4.492,4.492,0,0,0,0,8.94,10.42,10.42,0,0,0,18.9,0,4.492,4.492,0,0,0,0-8.94Z" transform="translate(0 6.1)" fill="#ffdaaa"/>
  <path id="Path-4" data-name="Path" d="M13.5,10.5a4.472,4.472,0,0,1-4.05,4.47A10.457,10.457,0,0,1,0,21V0A10.457,10.457,0,0,1,9.45,6.03,4.472,4.472,0,0,1,13.5,10.5Z" transform="translate(13.5 6.1)" fill="#ffe7c8"/>
  <path id="Path-5" data-name="Path" d="M0,0H3V3H0Z" transform="translate(9 13.6)" fill="#68544f"/>
  <path id="Path-6" data-name="Path" d="M0,0H3V3H0Z" transform="translate(15 13.6)" fill="#53433f"/>
  <path id="Path-7" data-name="Path" d="M4.5,0A4.5,4.5,0,1,0,9,4.5,4.494,4.494,0,0,0,4.5,0Z" transform="translate(9 18.1)" fill="#ff8597"/>
  <path id="Path-8" data-name="Path" d="M10.5,0a4.252,4.252,0,0,0-3,1.26A4.25,4.25,0,0,0,4.5,0,4.589,4.589,0,0,0,0,4.74c0,3.33,3.36,5.61,7.5,9.12,4.17-3.54,7.5-5.7,7.5-9.12A4.589,4.589,0,0,0,10.5,0Z" transform="translate(6 30.95)" fill="#ececf1"/>
  <path id="Path-9" data-name="Path" d="M0,13.86V1.26A4.251,4.251,0,0,1,3,0,4.589,4.589,0,0,1,7.5,4.74C7.5,8.16,4.17,10.32,0,13.86Z" transform="translate(13.5 30.95)" fill="#e2e2e7"/>
  <path id="Path-10" data-name="Path" d="M4.5,4.5A4.494,4.494,0,0,1,0,9V0A4.494,4.494,0,0,1,4.5,4.5Z" transform="translate(13.5 18.1)" fill="#ff6c6c"/>
</svg>
