<svg id="policy" xmlns="http://www.w3.org/2000/svg" width="22.852" height="30" viewBox="0 0 22.852 30">
  <path id="Path" d="M15.82,0H3.223A3.226,3.226,0,0,0,0,3.223V26.777A3.226,3.226,0,0,0,3.223,30H19.629a3.226,3.226,0,0,0,3.223-3.223V7.031Z" fill="#36c8ff"/>
  <path id="Path-2" data-name="Path" d="M0,0V30H8.2a3.226,3.226,0,0,0,3.223-3.223V7.031L4.395,0Z" transform="translate(11.426)" fill="#63d4ff"/>
  <g id="Group" transform="translate(4 8)">
    <path id="Path-3" data-name="Path" d="M0,3.084V8.837a9.948,9.948,0,0,0,6.792,9.481,9.948,9.948,0,0,0,6.792-9.481V3.084A6.323,6.323,0,0,1,9.258,0H4.325A6.323,6.323,0,0,1,0,3.084Z" transform="translate(0.033 0.033)" fill="#202890"/>
    <path id="Path-4" data-name="Path" d="M2.467,0H0V18.318A9.948,9.948,0,0,0,6.792,8.837V3.084A6.323,6.323,0,0,1,2.467,0Z" transform="translate(6.825 0.033)" fill="#2d31b2"/>
    <path id="Path-5" data-name="Path" d="M3.458,6.917a1.194,1.194,0,0,1-.847-.351L.351,4.306A1.2,1.2,0,0,1,2.046,2.611L3.458,4.023,7.131.351A1.2,1.2,0,0,1,8.826,2.046l-4.52,4.52a1.2,1.2,0,0,1-.848.351Z" transform="translate(2.237 5.763)" fill="#fff"/>
    <path id="Path-6" data-name="Path" d="M2.542.351,0,2.893v3.39L4.237,2.046A1.2,1.2,0,0,0,2.542.351Z" transform="translate(6.825 5.763)" fill="#fff"/>
  </g>
  <path id="Path-7" data-name="Path" d="M0,0V6.152a.879.879,0,0,0,.879.879H7.031Z" transform="translate(15.82)" fill="#2d31b2"/>
</svg>
