<svg id="share" xmlns="http://www.w3.org/2000/svg" width="15" height="16.6" viewBox="0 0 15 16.6">
  <path id="_" data-name="" d="M12.5,16.6a2.273,2.273,0,0,0,1.2-.34,2.531,2.531,0,0,0,.89-.91,2.377,2.377,0,0,0,.33-1.21,2.324,2.324,0,0,0-.33-1.2,2.476,2.476,0,0,0-.89-.89,2.324,2.324,0,0,0-1.2-.33,2.443,2.443,0,0,0-1.64.62h0L4.92,8.9A3.369,3.369,0,0,0,5,8.3a2.772,2.772,0,0,0-.08-.56h0L10.78,4.3A2.569,2.569,0,0,0,12.5,5a2.412,2.412,0,0,0,1.24-.34,2.536,2.536,0,0,0,.92-.92,2.431,2.431,0,0,0,0-2.48,2.536,2.536,0,0,0-.92-.92,2.431,2.431,0,0,0-2.48,0,2.536,2.536,0,0,0-.92.92A2.412,2.412,0,0,0,10,2.5a3.358,3.358,0,0,0,.08.58h0L4.22,6.48A2.458,2.458,0,0,0,2.5,5.82a2.412,2.412,0,0,0-1.24.34,2.536,2.536,0,0,0-.92.92,2.431,2.431,0,0,0,0,2.48,2.536,2.536,0,0,0,.92.92,2.412,2.412,0,0,0,1.24.34,2.458,2.458,0,0,0,1.72-.66h0l5.9,3.44a2.35,2.35,0,0,0-.04.54,2.377,2.377,0,0,0,.33,1.21,2.531,2.531,0,0,0,.89.91A2.273,2.273,0,0,0,12.5,16.6Z" fill="#1d252d"/>
</svg>
