<svg id="shield_6_" data-name="shield (6)" xmlns="http://www.w3.org/2000/svg" width="54" height="63" viewBox="0 0 54 63">
  <path id="Path" d="M51.148,42.071A31.762,31.762,0,0,1,43.485,53.93,40.16,40.16,0,0,1,28.51,62.745,4.607,4.607,0,0,1,27.055,63H27a4.679,4.679,0,0,1-.893-.087,4.85,4.85,0,0,1-.614-.166A40.158,40.158,0,0,1,10.5,53.936,31.7,31.7,0,0,1,2.84,42.08C-.254,33.735-.078,24.544.063,17.157l0-.113c.029-.61.047-1.251.057-1.958A6.7,6.7,0,0,1,6.451,8.544c7.291-.4,12.931-2.767,17.75-7.433l.042-.038a4.082,4.082,0,0,1,5.515,0l.041.038c4.82,4.667,10.46,7.029,17.751,7.433a6.7,6.7,0,0,1,6.328,6.541c.01.712.029,1.352.057,1.958v.048C54.078,24.492,54.254,33.7,51.148,42.071Z" fill="#63d4ff"/>
  <path id="Path-2" data-name="Path" d="M24.142,42.071A31.755,31.755,0,0,1,16.464,53.93,40.259,40.259,0,0,1,1.458,62.745a4.737,4.737,0,0,1-.619.168A4.713,4.713,0,0,1,0,63V0A4.1,4.1,0,0,1,2.708,1.072l.041.038C7.58,5.777,13.231,8.139,20.537,8.544a6.7,6.7,0,0,1,6.341,6.541c.01.712.029,1.352.057,1.958v.048C27.079,24.492,27.254,33.7,24.142,42.071Z" transform="translate(27)" fill="#36c8ff"/>
  <path id="Path-3" data-name="Path" d="M32,16A16.02,16.02,0,0,1,16.057,32H16A16,16,0,1,1,16,0h.056A16.02,16.02,0,0,1,32,16Z" transform="translate(11 16)" fill="#fff"/>
  <path id="Path-4" data-name="Path" d="M16,16A16.048,16.048,0,0,1,0,32V0A16.048,16.048,0,0,1,16,16Z" transform="translate(27 16)" fill="#fff"/>
  <path id="Path-5" data-name="Path" d="M15.444,3.079l-7.261,6.9L6.614,11.472a1.971,1.971,0,0,1-2.685,0L.556,8.265a1.741,1.741,0,0,1,0-2.551,1.968,1.968,0,0,1,2.684,0L5.272,7.645,12.76.529a1.967,1.967,0,0,1,2.684,0A1.741,1.741,0,0,1,15.444,3.079Z" transform="translate(19 26)" fill="#1c208f"/>
  <path id="Path-6" data-name="Path" d="M7.431,3.394,0,10.213V5.376L4.684.583a1.91,1.91,0,0,1,2.747,0A2.021,2.021,0,0,1,7.431,3.394Z" transform="translate(27 26)" fill="#1c208f"/>
</svg>
