<svg xmlns="http://www.w3.org/2000/svg" width="31.582" height="31.582" viewBox="0 0 31.582 31.582">
  <g id="telephone" transform="translate(0)">
    <path id="Path" d="M10.239,0A10.3,10.3,0,0,0,0,10.239,10.4,10.4,0,0,0,1.443,15.37L.822,19.719,5.17,19.1a10.108,10.108,0,0,0,5.069,1.382A10.3,10.3,0,0,0,20.479,10.239,10.3,10.3,0,0,0,10.239,0Z" transform="translate(11.103)" fill="#36c8ff"/>
    <path id="Path-2" data-name="Path" d="M10.239,10.239A10.3,10.3,0,0,0,0,0V20.479A10.3,10.3,0,0,0,10.239,10.239Z" transform="translate(21.343)" fill="#63d4ff"/>
    <path id="Path-3" data-name="Path" d="M16.112,12.4l-2.788,1.859c-.185-.07-2.153.057-5-2.785s-2.715-4.81-2.785-5L7.4,3.688,5.552,0h-3.7A1.842,1.842,0,0,0,0,1.837C0,6.28,2.27,10.771,5.65,14.151s7.871,5.65,12.313,5.65A1.842,1.842,0,0,0,19.8,17.95v-3.7Z" transform="translate(0 11.782)" fill="#202890"/>
    <path id="Path-4" data-name="Path" d="M14.151,6.478v-3.7L10.463.927,7.674,2.785c-.185-.07-2.153.057-5-2.785L0,2.679c3.38,3.38,7.871,5.65,12.313,5.65A1.842,1.842,0,0,0,14.151,6.478Z" transform="translate(5.65 23.253)" fill="#2d31b2"/>
    <path id="Combined_Shape" data-name="Combined Shape" d="M6.626,1.215a1.242,1.242,0,0,1,2.484,0,1.242,1.242,0,0,1-2.484,0Zm-3.313,0a1.243,1.243,0,0,1,2.485,0,1.243,1.243,0,0,1-2.485,0ZM0,1.215A1.229,1.229,0,0,1,1.242,0,1.229,1.229,0,0,1,2.485,1.215,1.229,1.229,0,0,1,1.242,2.429,1.228,1.228,0,0,1,0,1.215Z" transform="translate(17.006 9.718)" fill="#effaff"/>
  </g>
</svg>
