<svg id="Group_5" data-name="Group 5" xmlns="http://www.w3.org/2000/svg" width="151.111" height="131.316" viewBox="0 0 151.111 131.316">
  <path id="Fill_5" data-name="Fill 5" d="M.014,41.519c0,.183.009.369.013.547.072,3.587.267,6.258.36,7.258l0,.038a6.9,6.9,0,0,0,.157.946,10.9,10.9,0,0,0,2.518,4.638,13.061,13.061,0,0,0,5.77,3.769c.089.03.187.055.293.081a13.9,13.9,0,0,0,1.954.306h.009c.576.063,1.225.11,1.929.148.479.025.979.05,1.5.068l.7.026h.013c1.28.038,2.671.051,4.121.051,3.837,0,8.093-.11,11.816-.237.195-.009.39-.009.581,0,2.348.076,6.3.131,10.747.174h.046c1.166.013,2.362.026,3.574.03h.021c.06,0,.114,0,.169,0,.492,0,.992,0,1.488.008h.373c2.166.013,4.346.026,6.419.034,4.07.013,7.44-2.824,7.695-6.466.114-1.654.2-3.069.254-3.578.343-3.549,2.069-29.775-6.033-41.375C53.061,3.053,46.727,1.022,40.588.318c-.373-.042-.746-.081-1.115-.11a53.576,53.576,0,0,0-5.44-.2c-.53,0-1.051.017-1.556.038-.208,0-.415.013-.619.021-.263.008-.522.008-.781,0C30.646.047,30.205.03,29.747.018a51.6,51.6,0,0,0-9.268.559,30.951,30.951,0,0,0-5.986,1.539c-.318.119-.632.242-.941.377A16.194,16.194,0,0,0,6.42,7.988C2.656,13.377,1.015,21.928.371,29.894c-.144,1.756-.237,3.485-.3,5.147-.021.572-.034,1.132-.047,1.688-.034,1.7-.034,3.319-.013,4.79" transform="translate(54.492 71.804)" fill="#15185f"/>
  <path id="Fill_6" data-name="Fill 6" d="M4.963,7.368C9.033.407,18.316-.287,24.312.077c6-.364,15.279.33,19.349,7.291,6.26,10.7,4.928,34.905,4.662,38.178a10.758,10.758,0,0,1-6.526,8.63c-2.266.858-11.144-1.267-17.641-1.544-6.5.277-15.063,2.4-17.328,1.544A10.759,10.759,0,0,1,.3,45.546C.035,42.273-1.3,18.072,4.963,7.368" transform="translate(59.157 76.893)" fill="#2c30ac"/>
  <path id="Fill_7" data-name="Fill 7" d="M5.272,10.12c-1.093,0-1.635-1.326-1.887-2.181A15.334,15.334,0,0,0,1.348,3.612C.785,2.787-.617,1.417.308.418A1.219,1.219,0,0,1,1.232,0,3.533,3.533,0,0,1,3.307,1.073C5.355,2.9,7.071,5.762,6.821,8.414a1.765,1.765,0,0,1-.966,1.592,1.651,1.651,0,0,1-.583.115" transform="translate(104.469 77.85)" fill="#2c30ac"/>
  <path id="Fill_8" data-name="Fill 8" d="M3.966,3.066a1.571,1.571,0,0,1-.984-.476A6.364,6.364,0,0,0,1.162,1.426C.73,1.242-.215,1.037.044.465A.985.985,0,0,1,1.031,0a3.527,3.527,0,0,1,.6.057C2.975.291,4.358.98,4.744,2.02a.687.687,0,0,1-.165.8.919.919,0,0,1-.613.245" transform="translate(99.011 74.66)" fill="#2c30ac"/>
  <path id="Fill_9" data-name="Fill 9" d="M31.8,1.583S34.784-.4,34.795.074c.083,4.03,10.528,28.666.326,28.74C28.5,29.615,0,28.74,0,28.74s2.232-4.918,2.287-14.164C2.31,10.734,9.221.863,9.221.863L31.8,1.583" transform="translate(62.827 98.108)" fill="#fffffe"/>
  <path id="Fill_10" data-name="Fill 10" d="M36.222,13.073S32.984,29.8,26.873,31.215C18.954,34.2,6.99,20.169.359,17.754-1.158,17.2,2.5,10.632,4.4,11.993c3.973,2.854,9.84,4.468,16.7,8.671.226-1.168,3.86-18.037,4.184-20.25.46-3.144,10.939,12.659,10.939,12.659" transform="translate(29.685 91.402)" fill="#efa8a4"/>
  <path id="Fill_11" data-name="Fill 11" d="M15.74,7.337C10.834,3.183,12.723,2.489,8.156.3,5.853-.789,6.491,1.3,8,2.82S9.049,4.512,7.34,4.168,4.665,2.648,2.214,1.035C1.847.793.878.943,1.2,1.352.705,1.152,0,1.876.526,2.6c-.443-.146-.74.574-.215,1.477-.62-.065-.329,1.355,1.025,2.819,1.619,1.79,2.562,3.276,8.606,3.969a5.311,5.311,0,0,0,2.321-.022,4.136,4.136,0,0,1,1.469-.1c4.552,3.839,3.1-2.476,2.009-3.4" transform="translate(20.759 98.376)" fill="#efa8a4"/>
  <path id="Fill_12" data-name="Fill 12" d="M.778,0A2.14,2.14,0,0,0,.543.519,4.2,4.2,0,0,0,.4,1.063,6.084,6.084,0,0,0,.293,2.179c-.015.376.014.753.033,1.132l.1,1.148C.356,4.279.3,4.094.236,3.909S.141,3.532.1,3.341A5.9,5.9,0,0,1,0,2.173a4.082,4.082,0,0,1,.18-1.167A2.2,2.2,0,0,1,.778,0" transform="translate(29.867 102.833)" fill="#e89493"/>
  <path id="Fill_13" data-name="Fill 13" d="M0,0C.368.28.72.574,1.072.868l1.05.883c.345.3.7.586,1.05.876a10.08,10.08,0,0,0,1.107.807A4.73,4.73,0,0,1,3.04,2.808a11.259,11.259,0,0,1-1.106-.835c-.35-.3-.692-.609-1.013-.941A11.942,11.942,0,0,1,0,0" transform="translate(21.922 99.692)" fill="#e89493"/>
  <path id="Fill_14" data-name="Fill 14" d="M0,0C.35.27.687.549,1.026.826l1.015.825c.337.275.681.54,1.03.8.172.133.353.252.536.369l.276.176c.1.05.192.1.288.16a4.3,4.3,0,0,1-1.223-.518,8.593,8.593,0,0,1-1.09-.758A11.633,11.633,0,0,1,.876.992,9.591,9.591,0,0,1,0,0" transform="translate(21.286 100.973)" fill="#e89493"/>
  <path id="Fill_15" data-name="Fill 15" d="M0,0C.639.557,1.269,1.1,1.933,1.6c.332.25.676.48,1.027.7a11.1,11.1,0,0,0,1.109.583A4.4,4.4,0,0,1,2.851,2.5a7.125,7.125,0,0,1-1.093-.668A7.664,7.664,0,0,1,0,0" transform="translate(21.07 102.45)" fill="#e89493"/>
  <path id="Fill_16" data-name="Fill 16" d="M18.562,0S10.584,1.257,8.744,2.9C2.834,8.171,1.877,20.039,0,31.757c2.491,1.46,13.554,3.936,17.3,3.28s-.857-29.727-.857-29.727L18.562,0" transform="translate(51.021 74.827)" fill="#fffffe"/>
  <path id="Fill_17" data-name="Fill 17" d="M37.787.073a9.358,9.358,0,0,1,1.692,4.395H0L2.667,0l35.12.073" transform="translate(60.161 126.847)" fill="#151a31"/>
  <path id="Fill_18" data-name="Fill 18" d="M0,26.219c2.513,4.056,5.338,6.731,7.913,6.622,6.832,0,9.6-6,10.535-12.894.143-1.071.241-2.163.308-3.258.031-.549.056-1.1.07-1.641s.021-1.092.021-1.631q0-1.008-.031-1.995c-.007-.22-.014-.437-.021-.655-.028-.77-.07-1.523-.122-2.25-.01-.182-.024-.364-.038-.543a1.06,1.06,0,0,0-.007-.109c-.014-.168-.028-.336-.038-.5-.007-.1-.017-.193-.024-.291-.018-.182-.032-.364-.049-.539-.017-.2-.035-.4-.056-.585-.032-.332-.067-.655-.1-.966-.01-.115-.024-.231-.038-.343-.017-.154-.035-.308-.052-.458-.031-.252-.059-.493-.091-.724-.01-.077-.017-.151-.028-.224-.017-.137-.035-.27-.052-.4l0-.025A20.15,20.15,0,0,0,17.5,0L8.1,15.855,6.538,17.762,2.149,23.125,0,26.219" transform="translate(85.959 86.77)" fill="#fffffe"/>
  <path id="Fill_19" data-name="Fill 19" d="M0,6.979S1.841,10.374,4.2,14.6c.115.2.224.4.339.6,3.759,6.7,8.652,15.127,9.692,15.5.721-.175,13.382,3.457,13.88,3.486.684-2.791.752-7.888.669-10.744-.161-5.528-.9-11.188-3.208-16.264-2.59-5.7-9.129-5.875-14.533-6.726L10.72.406C10.608.385,10.507.371,10.4.357,9.762.255,9.208.178,8.781.122,8.673.1,8.571.094,8.477.084,8.026.024,7.77,0,7.77,0L7.637.119,7.619.133l-.2.182L7.4.325,2.824,4.438l-.231.214L0,6.979" transform="translate(76.022 74.212)" fill="#fffffe"/>
  <path id="Fill_20" data-name="Fill 20" d="M3.3,6.542q-.181-.337-.362-.672C1.98,4.163.976,2.482,0,.787A1.5,1.5,0,0,1,.365.467,3.248,3.248,0,0,1,1.487.086c.076-.014.151-.028.227-.04.085.731.155,1.4.189,1.911a.513.513,0,0,0,.511.479h.034a.512.512,0,0,0,.478-.545c-.035-.522-.1-1.18-.185-1.89q.1.01.192.028A2.968,2.968,0,0,1,4.886,1.482a4.894,4.894,0,0,1,.6,2.41,2.643,2.643,0,0,1-.677,2.046,2.368,2.368,0,0,1-.888.464,4.078,4.078,0,0,1-.62.141" transform="translate(91.177 94.244)" fill="#b7b7b3"/>
  <path id="Fill_21" data-name="Fill 21" d="M.35,1A13.869,13.869,0,0,1,3.386,2.679c.549.382,1.081.787,1.545,1.178A10.166,10.166,0,0,1,6.054,4.935,12.35,12.35,0,0,1,8.066,7.949a16.4,16.4,0,0,1,1.008,5.544q.093,1.411.186,2.822c.055.836.2,2.023.342,3.21s.285,2.367.337,3.155a.512.512,0,0,0,1.023-.068c-.055-.837-.2-2.023-.342-3.21s-.285-2.368-.337-3.155q-.093-1.411-.186-2.822A17.3,17.3,0,0,0,9,7.537,13.347,13.347,0,0,0,6.832,4.268a11.163,11.163,0,0,0-1.24-1.194A22.891,22.891,0,0,0,3.1,1.263,12.268,12.268,0,0,0,.675.027.512.512,0,1,0,.35,1" transform="translate(83.141 73.521)" fill="#393a37"/>
  <path id="Fill_22" data-name="Fill 22" d="M.941.483A3.245,3.245,0,0,1,2.063.1,3.963,3.963,0,0,1,3.509.044,2.968,2.968,0,0,1,5.462,1.5a4.9,4.9,0,0,1,.6,2.41,2.646,2.646,0,0,1-.678,2.046,2.369,2.369,0,0,1-.887.464,3.557,3.557,0,0,1-3.354-.563A3.433,3.433,0,0,1,.067,3.778c-.154-1-.108-2.688.874-3.3" transform="translate(91.112 93.717)" fill="#545451"/>
  <path id="Fill_23" data-name="Fill 23" d="M.34.175A1.173,1.173,0,0,1,.745.037,1.43,1.43,0,0,1,1.268.016a1.072,1.072,0,0,1,.705.525,1.765,1.765,0,0,1,.217.871.957.957,0,0,1-.245.74.848.848,0,0,1-.321.167,1.284,1.284,0,0,1-1.212-.2,1.241,1.241,0,0,1-.388-.75C-.032,1-.015.394.34.175" transform="translate(93.048 95.825)" fill="#393a37"/>
  <path id="Fill_24" data-name="Fill 24" d="M11.229,0s-.841,5.989,2.98,6.767a8.91,8.91,0,0,1-9.6,5.361C-.044,11.471.073,9.163,0,7.38c1.861-.628,2.977-2.217,2.424-5.862A38.257,38.257,0,0,0,11.229,0" transform="translate(69.583 67.447)" fill="#dd8f8d"/>
  <path id="Fill_25" data-name="Fill 25" d="M2.894.106,0,1.848l5.82,37.04,9.63.859L20.721,1.218,16.518,0,9.934,5.025,2.894.106" transform="translate(65.429 74.533)" fill="#2c30ac"/>
  <path id="Fill_26" data-name="Fill 26" d="M.667,17.083H.342c0-.073-.007-.146-.01-.219-.05-1.123-.119-2.247-.184-3.372C.039,11.244-.058,8.983.042,6.726Q.114,5.034.283,3.349C.408,2.228.554,1.109.752,0,.634,1.121.524,2.241.458,3.364S.332,5.61.318,6.734c-.041,2.248.05,4.493.19,6.741.061,1.2.12,2.4.16,3.609" transform="translate(74.352 81.409)" fill="#15185f"/>
  <path id="Fill_27" data-name="Fill 27" d="M.288.322.062.164.274.028c0,.1.008.2.014.294" transform="translate(69.325 75.218)" fill="#203f81"/>
  <path id="Fill_28" data-name="Fill 28" d="M5.709,4.881l-.82-.573a1.987,1.987,0,0,1,.822.572ZM3.178,3.112l0,0L.014.9Q.005.752,0,.607A3.39,3.39,0,0,1,1.409,0a.6.6,0,0,1,.071,0c.606.071,1.035,1.288,1.38,2.267.111.316.217.614.316.838Z" transform="translate(69.599 74.639)" fill="#875b59"/>
  <path id="Fill_29" data-name="Fill 29" d="M2.425,10.585.2,4.154Q.148,3.613.1,3.072c-.035-.41-.07-.966-.1-1.5l.023-.027A7.719,7.719,0,0,1,1.664.14L1.879,0l.226.158L5.27,2.369a2.06,2.06,0,0,0,.124.243c.309.5,1,.692,1.587.953l.826.577.021.03a.822.822,0,0,0-.079.131l.077.091C6.255,6.25,3.972,8.75,2.425,10.585" transform="translate(67.507 75.382)" fill="#15185f"/>
  <path id="Fill_30" data-name="Fill 30" d="M.156.23.134.215A.986.986,0,0,1,.216.12a1.168,1.168,0,0,0-.06.11" transform="translate(75.207 79.328)" fill="#875b59"/>
  <path id="Fill_31" data-name="Fill 31" d="M5.853,6.424C4.306,4.589,1.586,2.089,0,.232L.077.141A1.075,1.075,0,0,0,0,.01L.009,0,.03.015C1.6,1.88,4.28,3.57,5.853,5.435L7.321,1.2q-.075.72-.156,1.439L5.853,6.424" transform="translate(75.333 79.543)" fill="#15185f"/>
  <path id="Fill_32" data-name="Fill 32" d="M.175.286.1.195A.822.822,0,0,1,.177.064,1.075,1.075,0,0,1,.252.195L.175.286" transform="translate(75.158 79.489)" fill="#13222d"/>
  <path id="Fill_33" data-name="Fill 33" d="M.394,2.287A1.322,1.322,0,0,0,0,3.029a1.439,1.439,0,0,0,.113.561L2.8,11.328c1.573-1.865,3.858-3.555,5.431-5.42C7.8,5.02,6.877,4.181,6.36,3.341,5.931,2.643,4.571.989,3.943,0,3.417-.058,2.458.612,2.034.883a7.719,7.719,0,0,0-1.64,1.4" transform="translate(67.136 73.65)" fill="#2c30ac"/>
  <path id="Fill_34" data-name="Fill 34" d="M8.224,2.287a1.321,1.321,0,0,1,.392.743A1.436,1.436,0,0,1,8.5,3.59q-1.34,3.869-2.681,7.738C4.25,9.463,1.573,7.773,0,5.908.429,5.02,2.337,4.195,2.854,3.355,3.283,2.657,4.08.989,4.675,0,5.2-.058,6.16.612,6.584.883a7.7,7.7,0,0,1,1.64,1.4" transform="translate(75.363 73.65)" fill="#2c30ac"/>
  <path id="Fill_35" data-name="Fill 35" d="M.356,10.2Q.173,9.792,0,9.382c1.271-1.929,2.366-3.8,3.716-5.571A14.543,14.543,0,0,0,.818,0,18.891,18.891,0,0,1,4,3.837q.093.311.167.63C2.793,6.288,1.678,8.214.356,10.2" transform="translate(87.576 78.641)" fill="#b7b7b3"/>
  <path id="Fill_36" data-name="Fill 36" d="M.215.63Q.14.311.047,0,.194.262.3.513L.215.63" transform="translate(91.528 82.478)" fill="#41413f"/>
  <path id="Fill_37" data-name="Fill 37" d="M0,37.443A95.308,95.308,0,0,1,10.044,22.275a3.3,3.3,0,0,0,.9-1.7,2.761,2.761,0,0,0-.247-1.214,9.372,9.372,0,0,0-2.1-3.2c2.005-2.7,3.376-5.314,5.228-7.743C12.389,5.1,5.693,0,5.693,0s-.12,2.512-.212,3.607c-.618,7.309-1.756,14.563-3.1,21.772q-.574,3.094-1.193,6.179C.852,33.271.816,35.911,0,37.443" transform="translate(77.465 74.034)" fill="#fffffe"/>
  <path id="Fill_38" data-name="Fill 38" d="M5.41,16.146H4.457q-.338-.415-.675-.832a3.3,3.3,0,0,1-.9-1.7A2.756,2.756,0,0,1,3.131,12.4a9.372,9.372,0,0,1,2.1-3.2C3.222,6.5,1.851,3.887,0,1.458A7.864,7.864,0,0,1,.869,0a7.657,7.657,0,0,0-.33.919C2.39,3.348,3.761,5.965,5.767,8.662a9.374,9.374,0,0,0-2.1,3.2,2.761,2.761,0,0,0-.247,1.213,3.3,3.3,0,0,0,.9,1.7q.551.68,1.089,1.371" transform="translate(58.725 82.346)" fill="#b7b7b3"/>
  <path id="Fill_39" data-name="Fill 39" d="M13.826,37.07A95.347,95.347,0,0,0,3.782,21.9a3.3,3.3,0,0,1-.9-1.7,2.761,2.761,0,0,1,.247-1.213,9.374,9.374,0,0,1,2.1-3.2C3.222,13.091,1.851,10.474,0,8.045,1.437,3.041,8.151,0,8.151,0s.1,2.139.194,3.234c.618,7.309,1.756,14.564,3.1,21.772q.574,3.094,1.193,6.179c.341,1.713.377,4.353,1.192,5.885" transform="translate(59.264 75.22)" fill="#fffffe"/>
  <path id="Fill_40" data-name="Fill 40" d="M3.176,5.72A8.155,8.155,0,0,0,1.444,3.611c-.99-.954.607-1.979,2.4-.267-.344-.473-.9-.832-1.05-1.185C2.073,1.106,5.117.472,7.579,5.016a4.133,4.133,0,0,0-.023-2.177c-.159-.6-.765-2.068-.3-2.71.448-.618,1.386,1.152,1.827,2A9.543,9.543,0,0,1,9.6,9.393c-1.441,4.144.967,8.471.967,8.471l-2.855.308-2.767.544S3.4,18.4,3.4,18.1a8.612,8.612,0,0,0-.58-2.857C1.376,12.909,1,11.633,1.691,9.609S.863,6.291.123,5.353C-.532,4.522,1.565,3.7,3.176,5.72" transform="translate(77 71.025)" fill="#efa8a4"/>
  <path id="Fill_41" data-name="Fill 41" d="M0,0A1.861,1.861,0,0,1,.761.284a5.733,5.733,0,0,1,.667.475,6.417,6.417,0,0,1,1.106,1.2,7.524,7.524,0,0,1,.8,1.418c.114.246.2.5.293.758s.148.521.209.783c-.232-.488-.443-.978-.7-1.442A11.907,11.907,0,0,0,2.3,2.132,9.358,9.358,0,0,0,1.278.923,5.986,5.986,0,0,0,.681.4,2.107,2.107,0,0,0,0,0" transform="translate(79.455 73.518)" fill="#e89493"/>
  <path id="Fill_42" data-name="Fill 42" d="M0,0A2.506,2.506,0,0,1,1.357.662,4.4,4.4,0,0,1,2.29,1.877a5.458,5.458,0,0,1,.518,1.434,4.056,4.056,0,0,1,.06,1.51,6.474,6.474,0,0,0-.277-1.454,7.818,7.818,0,0,0-.558-1.353A5.656,5.656,0,0,0,1.2.822,3.135,3.135,0,0,0,0,0" transform="translate(78.501 75.562)" fill="#e89493"/>
  <path id="Fill_43" data-name="Fill 43" d="M5.895,27.952A52.269,52.269,0,0,1,1.545,15.826C.166,9.607.376,6.989,0,1.76c0,0,5.685-3.072,6.381-1.1,2.8,7.927,9.337,15.577,10.4,21.12,1.436,7.463-10.9,6.454-10.9,6.454l.006-.283" transform="translate(80.275 85.369)" fill="#fffffe"/>
  <path id="Fill_44" data-name="Fill 44" d="M0,0A31.625,31.625,0,0,0,2.726,3.622a8.836,8.836,0,0,0,3.592,2.59,6.038,6.038,0,0,0,2.19.3,8.569,8.569,0,0,0,2.2-.376,9.475,9.475,0,0,0,3.83-2.313,8.721,8.721,0,0,1-3.76,2.526,7.972,7.972,0,0,1-2.261.428,6.3,6.3,0,0,1-2.293-.289A7.094,7.094,0,0,1,4.208,5.364,10.744,10.744,0,0,1,2.559,3.77,23.717,23.717,0,0,1,0,0" transform="translate(85.959 112.988)" fill="#aaaaa7"/>
  <path id="Fill_45" data-name="Fill 45" d="M6.041,28.081a54.028,54.028,0,0,1-2.717-6.2A49.741,49.741,0,0,1,1.469,15.36a50.968,50.968,0,0,1-1.034-6.7C.246,6.4.183,4.147.007,1.9L0,1.809l.08-.042A19.33,19.33,0,0,1,3.628.278,5.474,5.474,0,0,1,5.563.013,1.283,1.283,0,0,1,6.49.461a1.674,1.674,0,0,1,.225.464l.168.445a50.406,50.406,0,0,0,3.289,6.877c1.241,2.225,2.566,4.4,3.816,6.628a26.174,26.174,0,0,1,2.943,7.036,26.307,26.307,0,0,0-3.072-6.964c-1.263-2.212-2.6-4.382-3.862-6.6a50.6,50.6,0,0,1-3.35-6.886l-.173-.448A1.4,1.4,0,0,0,6.285.619a1.029,1.029,0,0,0-.75-.343A5.234,5.234,0,0,0,3.706.545,16.136,16.136,0,0,0,1.93,1.2c-.582.248-1.158.517-1.717.81l.073-.133C.446,4.135.494,6.394.667,8.64a50.668,50.668,0,0,0,.985,6.681,51.649,51.649,0,0,0,1.8,6.513,53.879,53.879,0,0,0,2.591,6.248" transform="translate(80.128 85.239)" fill="#aaaaa7"/>
  <path id="Fill_46" data-name="Fill 46" d="M0,0A48.822,48.822,0,0,0,2.506,5.333c.931,1.73,1.916,3.43,2.924,5.12.986,1.7,2,3.392,2.9,5.147A20.4,20.4,0,0,1,10.4,21.12a16.122,16.122,0,0,0-.966-2.778c-.383-.9-.839-1.774-1.3-2.637-.939-1.725-1.948-3.413-2.953-5.1C4.192,8.9,3.2,7.194,2.308,5.436A37.38,37.38,0,0,1,0,0" transform="translate(86.656 86.03)" fill="#aaaaa7"/>
  <path id="Fill_47" data-name="Fill 47" d="M7.292.025A8.554,8.554,0,0,0,3.515,2.514,13.153,13.153,0,0,0,.788,8.421,42.693,42.693,0,0,0,0,14.867a.487.487,0,1,0,.971.064A31.954,31.954,0,0,1,2.31,6.61,10.39,10.39,0,0,1,4.246,3.157,7.577,7.577,0,0,1,7.6.948.486.486,0,1,0,7.292.025" transform="translate(63.31 73.725)" fill="#393a37"/>
  <path id="Fill_48" data-name="Fill 48" d="M6.614,6.973a7.216,7.216,0,0,0,.2-1.72,8.726,8.726,0,0,0-.19-1.775A10.47,10.47,0,0,0,6.2,1.887,3.325,3.325,0,0,0,5.181.395,1.984,1.984,0,0,0,3.963,0,2.585,2.585,0,0,0,2.483.482a4.134,4.134,0,0,0-1.24,1.534A11.393,11.393,0,0,0,.58,3.738,12.466,12.466,0,0,0,0,7.487q0,.123,0,.247a.487.487,0,0,0,.973-.02c0-.076,0-.152,0-.227a11.512,11.512,0,0,1,.535-3.456,10.572,10.572,0,0,1,.6-1.575,3.184,3.184,0,0,1,.938-1.183,1.623,1.623,0,0,1,.915-.3,1.013,1.013,0,0,1,.626.194,2.38,2.38,0,0,1,.7,1.066,9.619,9.619,0,0,1,.385,1.443,7.765,7.765,0,0,1,.17,1.577,6.25,6.25,0,0,1-.175,1.489.487.487,0,0,0,.945.231" transform="translate(59.428 88.23)" fill="#393a37"/>
  <path id="Fill_49" data-name="Fill 49" d="M.976.016a.474.474,0,0,1,.363.23A.669.669,0,0,1,1.394.5.688.688,0,0,1,1.32.945a.711.711,0,0,1-.515.229,1.085,1.085,0,0,1-.335.009,1.131,1.131,0,0,1-.353-.15L.053.985.022.9A.929.929,0,0,1,.064.353C.216.009.643-.03.976.016" transform="translate(64.266 94.761)" fill="#545451"/>
  <path id="Fill_50" data-name="Fill 50" d="M.976.016a.472.472,0,0,1,.363.23A.661.661,0,0,1,1.394.5.688.688,0,0,1,1.32.945a.713.713,0,0,1-.515.229,1.1,1.1,0,0,1-.335.009,1.137,1.137,0,0,1-.353-.15L.053.985.022.9A.928.928,0,0,1,.064.353C.216.009.643-.03.976.016" transform="translate(59.764 95.358)" fill="#545451"/>
  <path id="Fill_51" data-name="Fill 51" d="M.341,11.2a6.44,6.44,0,0,0,3.136,4.286,4.255,4.255,0,0,0,2.2.757c.457-.031,1.556-1.083,2.289-2.425.7-1.272,7.423-.044,10.382-.479.278,1.344,1.655,5.232,2.609,7.99a4.235,4.235,0,0,1,.94-2.108l-.847,4.563-1.953,2.688s1.186,2.994,3.656,2.64c8.694-1.773,9.242-14.751,7.574-19.239a5.65,5.65,0,0,0-3.365-3.662,5.586,5.586,0,0,1-1.484-.455,7.318,7.318,0,0,1-.985-1.487,9.852,9.852,0,0,0-7.324-4.2,18.356,18.356,0,0,0-5.032.272c-1.4.255-2.807.691-4.217.981-1.132.232-2.328.149-3.437.454A6.32,6.32,0,0,0,.213,6.668,9.055,9.055,0,0,0,.1,9.967,10.827,10.827,0,0,0,.341,11.2" transform="translate(60.329 38.016)" fill="#151a31"/>
  <path id="Fill_52" data-name="Fill 52" d="M26.163,14.519a13.939,13.939,0,0,0-.518-5.188,13.541,13.541,0,0,0-.965-2.484,12.516,12.516,0,0,0-3.387-4.215A12.132,12.132,0,0,0,18.94,1.2a11.533,11.533,0,0,0-2.6-.865A14.086,14.086,0,0,0,13.657,0,17.5,17.5,0,0,0,8.341.62,12.325,12.325,0,0,0,3.605,3.129a10.642,10.642,0,0,0-1.794,2A10.508,10.508,0,0,0,.615,7.5a11.439,11.439,0,0,0-.53,5.149,12.547,12.547,0,0,1,1.127-4.9A9.978,9.978,0,0,1,4.294,3.981,11.808,11.808,0,0,1,8.7,1.987a15.517,15.517,0,0,1,4.865-.328,13.766,13.766,0,0,1,4.653,1.13A10.421,10.421,0,0,1,20.27,3.979a11.72,11.72,0,0,1,1.782,1.591A14.918,14.918,0,0,1,23.526,7.5c.433.692.722,5.639,1.064,6.4a5.494,5.494,0,0,1,1.573.625" transform="translate(63.889 39.137)" fill="#14bfff"/>
  <path id="Fill_53" data-name="Fill 53" d="M.053,6.434c.4,3.2,2.922,5.514,5.636,5.175s4.591-3.2,4.192-6.4S6.959-.306,4.245.033s-4.591,3.2-4.192,6.4" transform="translate(59.584 53.031)" fill="#1198cb"/>
  <path id="Fill_54" data-name="Fill 54" d="M.053,6.434c.4,3.2,2.922,5.514,5.636,5.175s4.591-3.2,4.192-6.4S6.959-.306,4.245.033s-4.591,3.2-4.192,6.4" transform="translate(60.304 52.941)" fill="#14bfff"/>
  <path id="Fill_55" data-name="Fill 55" d="M.1,0A16.8,16.8,0,0,0,2.04,9.844l3.744-8.4L.1,0" transform="translate(62.707 51.964)" fill="#151a31"/>
  <path id="Fill_56" data-name="Fill 56" d="M3.244,0A9.67,9.67,0,0,1,0,3.61" transform="translate(86.15 52.339)" fill="#fffffe"/>
  <path id="Fill_57" data-name="Fill 57" d="M.916,16.364a17.115,17.115,0,0,0,.707,2.023c1.631,3.847,4.854,7.021,11.161,6.195,6.664-1.344,9.579-6.8,8.936-11.126,1.649-.476,3.2-5.484,3.2-5.484L21.528,3.249S19.561-.072,18.941,0s-6.93.8-6.93.8L.066,7.323a28.166,28.166,0,0,0,.85,9.04" transform="translate(64.025 46.176)" fill="#efa8a4"/>
  <path id="Fill_58" data-name="Fill 58" d="M5.3,15.532a10.062,10.062,0,0,0,3.033-.108,28.635,28.635,0,0,0,4.471-.975,11.34,11.34,0,0,0,2.838-1.362c.408-.278.821-.594,1.2-.909.287-.241.726-.868,1.175-.744.571.156.865,1.294,1.154,1.748a15.127,15.127,0,0,0,1.186,1.683c.179.212,2.442,2.172,2.682,1.7,1.125-2.23,5.5.329,2.069,3.65,3.247-.633,3.761-3.977,3.625-6.655A16.9,16.9,0,0,0,27.8,8.88l-.468-1.35A11.28,11.28,0,0,0,19.244.245c-2.927-.686-5.929.266-8.9.488C7.9.915,5.2.232,3.195,1.826A8.807,8.807,0,0,0,.023,9.345,8.027,8.027,0,0,0,.7,12.264a6.686,6.686,0,0,0,3.187,2.845,4.883,4.883,0,0,0,1.413.423" transform="translate(60.19 38.909)" fill="#151a31"/>
  <path id="Fill_59" data-name="Fill 59" d="M7.57.073v0a3.4,3.4,0,0,1,.015.354A6.05,6.05,0,0,1,6.453,3.906C5.452,5.3,3.583,6.677,0,7.215L.087,7.8c3.7-.549,5.746-2.015,6.843-3.547A6.636,6.636,0,0,0,8.173.429,3.764,3.764,0,0,0,8.153,0L7.57.073" transform="translate(80.6 60.321)" fill="#151a31"/>
  <path id="Fill_60" data-name="Fill 60" d="M.011,1.4c.106.564.979.873,1.948.69S3.628,1.306,3.522.743,2.543-.13,1.574.053-.1.84.011,1.4" transform="translate(78.766 66.959)" fill="#151a31"/>
  <path id="Fill_61" data-name="Fill 61" d="M0,5.8c-.024,3.222,2.173,5.85,4.908,5.871s4.972-2.574,5-5.8S7.731.021,5,0,.024,2.574,0,5.8" transform="translate(82.835 52.339)" fill="#1198cb"/>
  <path id="Fill_62" data-name="Fill 62" d="M0,5.8c-.024,3.221,2.173,5.85,4.908,5.87s4.971-2.574,5-5.8S7.731.021,5,0,.025,2.574,0,5.8" transform="translate(83.366 52.336)" fill="#14bfff"/>
  <path id="Fill_63" data-name="Fill 63" d="M0,3.714A3.491,3.491,0,0,0,3.146,7.476a3.49,3.49,0,0,0,3.2-3.714A3.49,3.49,0,0,0,3.2,0,3.49,3.49,0,0,0,0,3.714" transform="translate(85.144 54.432)" fill="#1155f2"/>
  <path id="Fill_64" data-name="Fill 64" d="M0,1.024c.019.553.335.991.706.979s.658-.47.639-1.024S1.011-.012.64,0-.017.471,0,1.024" transform="translate(75.811 58.442)" fill="#2e2723"/>
  <path id="Fill_65" data-name="Fill 65" d="M4.463,1.041,4.6.7A7.7,7.7,0,0,0,2.073.222,3.769,3.769,0,0,0,.183.669L.366.985l.227.286L.519,1.178l.073.095h0L.519,1.178l.073.095A2.536,2.536,0,0,1,1.085,1,3.12,3.12,0,0,1,2.336.731a3.5,3.5,0,0,1,1.928.617l.2-.307L4.6.7l-.134.339.2-.306A4.23,4.23,0,0,0,2.336,0,3.851,3.851,0,0,0,.755.342,3.1,3.1,0,0,0,.139.7a.365.365,0,0,0,.409.6A3.059,3.059,0,0,1,2.073.953a6.5,6.5,0,0,1,1.57.216c.211.054.386.109.506.149.06.02.107.037.138.048l.034.013.009,0A.365.365,0,0,0,4.663.735l-.2.306" transform="translate(74.881 55.222)" fill="#151a31"/>
  <path id="Fill_66" data-name="Fill 66" d="M.365,1.041l.134.34.009,0A7.035,7.035,0,0,1,2.757.953,3.056,3.056,0,0,1,4.281,1.3.365.365,0,0,0,4.69.7,3.129,3.129,0,0,0,4.074.342,3.858,3.858,0,0,0,2.493,0,4.232,4.232,0,0,0,.166.735.365.365,0,0,0,.5,1.381l-.134-.34.2.307A3.5,3.5,0,0,1,2.493.731a3.129,3.129,0,0,1,1.281.278,2.893,2.893,0,0,1,.353.189c.04.025.069.046.088.059l.019.014,0,0,.072-.093-.074.093h0l.072-.093-.074.093L4.463.985,4.645.669A3.768,3.768,0,0,0,2.757.222,7.71,7.71,0,0,0,.231.7l.134.339.2.307-.2-.307" transform="translate(65.345 55.615)" fill="#151a31"/>
  <path id="Fill_67" data-name="Fill 67" d="M1.182.769c.068.469-.138.888-.461.935s-.64-.3-.708-.765S.151.051.474,0s.64.3.708.765" transform="translate(67.894 59)" fill="#2e2723"/>
  <path id="Fill_68" data-name="Fill 68" d="M1.721,0a2.819,2.819,0,0,1,.115,1.02,3.611,3.611,0,0,1-.215,1.018,4.829,4.829,0,0,1-.457.933,4.747,4.747,0,0,1-.655.815l-.071-.35a5.13,5.13,0,0,1,.847.511,2.545,2.545,0,0,1,.374.333.625.625,0,0,1,.207.451.653.653,0,0,0-.315-.323,4.207,4.207,0,0,0-.414-.216c-.283-.13-.58-.247-.867-.358L0,3.729l.2-.246a7.328,7.328,0,0,0,.555-.773,7.308,7.308,0,0,0,.461-.838,5.913,5.913,0,0,0,.331-.9A6.21,6.21,0,0,0,1.721,0" transform="translate(70.529 59.443)" fill="#a67572"/>
  <path id="Fill_69" data-name="Fill 69" d="M3.148,3.12a2.814,2.814,0,0,1-3.1-1.157C-.184,1.4.476,1.177,1.8.644S4-.292,4.224.274,4.468,2.587,3.148,3.12" transform="translate(71.326 64.674)" fill="#fdf8ec"/>
  <path id="Fill_70" data-name="Fill 70" d="M.3,4.273,0,4.283A4.013,4.013,0,0,0,1.334,7.122a4.479,4.479,0,0,0,3.02,1.152l.157,0a4.491,4.491,0,0,0,3-1.263A4.026,4.026,0,0,0,8.746,4.124q0-.067,0-.133A4.013,4.013,0,0,0,7.413,1.152,4.477,4.477,0,0,0,4.392,0L4.235,0a4.492,4.492,0,0,0-3,1.263A4.028,4.028,0,0,0,0,4.151q0,.066,0,.132L.3,4.273l.293-.01c0-.038,0-.075,0-.113A3.439,3.439,0,0,1,1.646,1.686,3.905,3.905,0,0,1,4.255.59l.138,0a3.889,3.889,0,0,1,2.625,1,3.424,3.424,0,0,1,1.14,2.424c0,.038,0,.076,0,.114A3.44,3.44,0,0,1,7.1,6.588a3.906,3.906,0,0,1-2.608,1.1l-.138,0a3.887,3.887,0,0,1-2.625-1A3.423,3.423,0,0,1,.589,4.263L.3,4.273" transform="translate(63.187 54.396)" fill="#fffffe"/>
  <path id="Fill_71" data-name="Fill 71" d="M.3,4.247,0,4.256A3.986,3.986,0,0,0,1.325,7.077a4.45,4.45,0,0,0,3,1.145l.156,0a4.463,4.463,0,0,0,2.98-1.255A4,4,0,0,0,8.691,4.1c0-.044,0-.088,0-.132A3.988,3.988,0,0,0,7.366,1.145,4.449,4.449,0,0,0,4.365,0L4.208,0a4.466,4.466,0,0,0-2.98,1.255A4,4,0,0,0,0,4.124c0,.044,0,.088,0,.132L.3,4.247l.294-.01c0-.037,0-.075,0-.112A3.416,3.416,0,0,1,1.639,1.678,3.879,3.879,0,0,1,4.228.59l.136,0a3.861,3.861,0,0,1,2.606.992A3.4,3.4,0,0,1,8.1,3.986c0,.037,0,.075,0,.112A3.415,3.415,0,0,1,7.052,6.544,3.875,3.875,0,0,1,4.464,7.632l-.137,0a3.863,3.863,0,0,1-2.606-.992A3.4,3.4,0,0,1,.589,4.236L.3,4.247" transform="translate(73.12 53.977)" fill="#fffffe"/>
  <path id="Fill_72" data-name="Fill 72" d="M.451.764.321.655.448.768l0,0L.321.655.448.768.454.762A.717.717,0,0,1,.959.588a1.775,1.775,0,0,1,.894.294l.3-.505A2.357,2.357,0,0,0,.959,0a1.382,1.382,0,0,0-.7.181A1.012,1.012,0,0,0,0,.388L.451.764" transform="translate(71.413 57.594)" fill="#fffffe"/>
  <path id="Fill_73" data-name="Fill 73" d="M2.271,16.788,0,16.783c0-.02,0-.041,0-.061V0Q.628,1.441,1.336,2.844l-.024.035q.1.184.21.368l-.006.247.156.01q.292.495.6.978V16.634c0,.051,0,.1,0,.154" transform="translate(84.646 110.11)" fill="#e5e5e0"/>
  <path id="Fill_74" data-name="Fill 74" d="M2.14,2.6H0A2.658,2.658,0,0,0,2.612,0L4.883,0A2.747,2.747,0,0,1,2.14,2.6" transform="translate(82.034 126.893)" fill="#12172b"/>
  <path id="Fill_75" data-name="Fill 75" d="M.259.317.091.068.115.033.259.317" transform="translate(85.868 112.921)" fill="#e5e5e0"/>
  <path id="Fill_76" data-name="Fill 76" d="M3.078,31h-.33A2.751,2.751,0,0,1,0,28.25V14.572c.3.225.608.456.948.714V28.338A2.671,2.671,0,0,0,3.391,30.99ZM.948,6.822h0C.6,6.646.294,6.482,0,6.321V2.748A2.751,2.751,0,0,1,2.748,0h.77A2.645,2.645,0,0,0,.948,2.659V6.822Z" transform="translate(36.365 98.494)" fill="#2c30ac"/>
  <path id="Fill_77" data-name="Fill 77" d="M.948,8.965h0C.584,8.69.284,8.463,0,8.251V5.465a1.431,1.431,0,0,0,.386.059.725.725,0,0,0,.562-.233V8.965Zm0-6.528A3.7,3.7,0,0,0,.134.9L.063.839,0,.785V0C.294.161.612.33.948.5V2.437Z" transform="translate(36.365 104.814)" fill="#d79693"/>
  <path id="Fill_78" data-name="Fill 78" d="M.386,4.74A1.421,1.421,0,0,1,0,4.68V0L.134.114A3.726,3.726,0,0,1,.948,1.659V4.506a.723.723,0,0,1-.562.233" transform="translate(36.365 105.599)" fill="#d79693"/>
  <path id="Fill_79" data-name="Fill 79" d="M.536.768Q.264.387,0,0C.13.007.311.016.536.022V.768" transform="translate(86.386 113.618)" fill="#e5e5e0"/>
  <path id="Fill_80" data-name="Fill 80" d="M4.845,15.146h0c-.177-.005-.352-.012-.534-.022q-.127-.184-.252-.369c-.536-1.1-1.036-2.218-1.487-3.323V2.659A2.645,2.645,0,0,0,0,0H2.1A2.75,2.75,0,0,1,4.845,2.748v12.4Z" transform="translate(82.076 98.494)" fill="#e5e5e0"/>
  <path id="Fill_81" data-name="Fill 81" d="M.963,1.6Q.652,1.121.361.625C.31.54.26.454.21.368Q.1.184,0,0L.168.249.211.332.175.26Q.3.445.427.629q.265.387.536.768V1.6" transform="translate(85.959 112.988)" fill="#969793"/>
  <path id="Fill_82" data-name="Fill 82" d="M1.522,3.395l-.043-.083-.144-.284Q.628,1.626,0,.184V0Q.687,1.685,1.487,3.323l.035.072" transform="translate(84.647 109.926)" fill="#969793"/>
  <path id="Fill_83" data-name="Fill 83" d="M19.844.176h0" transform="translate(40.345 131.092)" fill="#5a7bb0"/>
  <path id="Fill_84" data-name="Fill 84" d="M25.935,1.776H23.663a.535.535,0,0,0,.535-.536v-.7A.535.535,0,0,0,23.663,0h2.272a.536.536,0,0,1,.536.536v.7a.536.536,0,0,1-.536.536" transform="translate(60.189 129.492)" fill="#12172b"/>
  <path id="Fill_85" data-name="Fill 85" d="M0,.175H1.458" transform="translate(82.034 129.317)" fill="#12172b"/>
  <path id="Fill_86" data-name="Fill 86" d="M47.334,2.66V28.34A2.658,2.658,0,0,1,44.677,31H2.656A2.658,2.658,0,0,1,0,28.34V2.66A2.658,2.658,0,0,1,2.656,0H44.677a2.658,2.658,0,0,1,2.657,2.66" transform="translate(37.5 98.5)" fill="#14bfff"/>
  <circle id="Oval" cx="5" cy="5" r="5" transform="translate(56 109)" fill="#fff" opacity="0.5"/>
  <path id="Fill_87" data-name="Fill 87" d="M46.816.535v.7a.535.535,0,0,1-.535.536H.539A.536.536,0,0,1,0,1.239v-.7A.536.536,0,0,1,.539,0H46.28a.535.535,0,0,1,.535.535" transform="translate(37.572 129.492)" fill="#14bfff"/>
  <path id="Fill_90" data-name="Fill 90" d="M31.794,31h1.862a.535.535,0,0,1,.535.535v.7a.535.535,0,0,1-.535.535H0C1.949,32.228,3.766,31.633,5.464,31c20.209-7.557,23.086-20.888,21.8-31h4.532a2.658,2.658,0,0,1,2.657,2.66V28.34A2.658,2.658,0,0,1,31.794,31" transform="translate(50.197 98.493)" fill="#11b5f2"/>
  <path id="Fill_91" data-name="Fill 91" d="M.92.175h0" transform="translate(39.443 129.317)" fill="#375a98"/>
  <path id="Fill_92" data-name="Fill 92" d="M.483.179H0L.313.171Q.4.178.483.179" transform="translate(39.443 129.312)" fill="#2e5089"/>
  <path id="Fill_97" data-name="Fill 97" d="M0,11.107c.013-.946.087-1.882.184-2.814S.405,6.432.542,5.505s.3-1.848.5-2.766S1.438.905,1.711,0C1.7.946,1.625,1.882,1.529,2.814S1.307,4.676,1.17,5.6s-.3,1.848-.5,2.766S.273,10.2,0,11.107" transform="translate(42.656 84.057)" fill="#2c30ac"/>
  <path id="Fill_98" data-name="Fill 98" d="M.709,2.431a2.007,2.007,0,0,1-.4-.546A2.9,2.9,0,0,1,.09,1.294,2.85,2.85,0,0,1,0,.67,1.987,1.987,0,0,1,.087,0a1.98,1.98,0,0,1,.4.546,2.836,2.836,0,0,1,.222.591,2.9,2.9,0,0,1,.089.625,2.015,2.015,0,0,1-.086.67" transform="translate(36.278 87.025)" fill="#2c30ac"/>
  <path id="Fill_99" data-name="Fill 99" d="M1.383,5.4A8,8,0,0,1,.8,4.11C.634,3.673.506,3.227.384,2.778s-.211-.9-.278-1.367A7.9,7.9,0,0,1,0,0,7.933,7.933,0,0,1,.588,1.289c.164.437.292.884.413,1.332s.211.9.276,1.367A8.031,8.031,0,0,1,1.383,5.4" transform="translate(37.249 90.869)" fill="#2c30ac"/>
  <path id="Fill_100" data-name="Fill 100" d="M9.43,8.477c-.874-.609-1.706-1.264-2.523-1.936S5.293,5.176,4.5,4.475,2.944,3.048,2.192,2.3.7.805,0,0C.874.608,1.707,1.263,2.523,1.935S4.138,3.3,4.928,4,6.486,5.43,7.238,6.174s1.495,1.5,2.192,2.3" transform="translate(25.642 88.72)" fill="#2c30ac"/>
  <g id="Group_3" data-name="Group 3" transform="translate(116.978 16)">
    <path id="Combined_Shape" data-name="Combined Shape" d="M-3.5,15.388A4.5,4.5,0,0,0,0,11V4.5A4.5,4.5,0,0,0-4.5,0h-10A4.5,4.5,0,0,0-19,4.5V11a4.5,4.5,0,0,0,4.5,4.5h8.054a9.25,9.25,0,0,1,1.248.729A13.141,13.141,0,0,1-3.5,18Z" fill="#69d6ff"/>
    <g id="Group_4" data-name="Group 4" transform="translate(-3.898 6.22)">
      <path id="Fill_208" data-name="Fill 208" d="M0,1.5A1.5,1.5,0,0,1-1.5,3,1.5,1.5,0,0,1-3,1.5,1.5,1.5,0,0,1-1.5,0,1.5,1.5,0,0,1,0,1.5" fill="#fff"/>
      <path id="Fill_208-2" data-name="Fill 208" d="M0,1.5A1.5,1.5,0,0,1-1.5,3,1.5,1.5,0,0,1-3,1.5,1.5,1.5,0,0,1-1.5,0,1.5,1.5,0,0,1,0,1.5" transform="translate(-4.5)" fill="#fff"/>
      <path id="Fill_208-3" data-name="Fill 208" d="M0,1.5A1.5,1.5,0,0,1-1.5,3,1.5,1.5,0,0,1-3,1.5,1.5,1.5,0,0,1-1.5,0,1.5,1.5,0,0,1,0,1.5" transform="translate(-9)" fill="#fff"/>
    </g>
  </g>
  <path id="Fill_146" data-name="Fill 146" d="M-9.511,10.5a.439.439,0,0,0,.347-.168l.975-1.239h5.116A3.05,3.05,0,0,0,0,6.074V3.019A3.05,3.05,0,0,0-3.074,0H-9.927A3.05,3.05,0,0,0-13,3.019V6.074a3.034,3.034,0,0,0,2.525,2.968l.562,1.205A.439.439,0,0,0-9.511,10.5Zm-.452-6.682a.842.842,0,0,1,.849.833.842.842,0,0,1-.849.833.841.841,0,0,1-.847-.833A.841.841,0,0,1-9.963,3.818Zm3.445,0a.841.841,0,0,1,.848.833.842.842,0,0,1-.848.833.842.842,0,0,1-.848-.833A.841.841,0,0,1-6.518,3.818Zm3.444,0a.841.841,0,0,1,.848.833.842.842,0,0,1-.848.833.842.842,0,0,1-.848-.833A.841.841,0,0,1-3.074,3.818Z" transform="translate(44.5 54)" fill="#fffffe"/>
  <path id="Fill_210" data-name="Fill 210" d="M0,.953A.953.953,0,1,0,.953,0,.954.954,0,0,0,0,.953" transform="translate(132.715 73.259)" fill="#69d6ff"/>
  <path id="Fill_211" data-name="Fill 211" d="M0,.953A.953.953,0,1,0,.953,0,.954.954,0,0,0,0,.953" transform="translate(18.564 88.657)" fill="#69d6ff"/>
  <path id="Fill_212" data-name="Fill 212" d="M0,.735A.734.734,0,1,0,.734,0,.734.734,0,0,0,0,.735" transform="translate(149.643 123.348)" fill="#69d6ff"/>
  <path id="Fill_214" data-name="Fill 214" d="M0,.7A.7.7,0,1,0,.7,0,.7.7,0,0,0,0,.7" transform="translate(26.157 121.632)" fill="#69d6ff"/>
  <path id="Fill_216" data-name="Fill 216" d="M.65,1.3A.65.65,0,1,1,1.3.65a.65.65,0,0,1-.65.65" transform="translate(0 126.197)" fill="#6089b9"/>
  <path id="Fill_218" data-name="Fill 218" d="M0,.973A.972.972,0,1,0,.973,0,.972.972,0,0,0,0,.973" transform="translate(3.92 115.527)" fill="#fffffe"/>
  <path id="Fill_219" data-name="Fill 219" d="M0,.972A.972.972,0,1,0,.972,0,.972.972,0,0,0,0,.972" transform="translate(122.163 119.879)" fill="#fffffe"/>
  <path id="Fill_221" data-name="Fill 221" d="M0,.973A.972.972,0,1,0,.973,0,.973.973,0,0,0,0,.973" transform="translate(52.42 63.701)" fill="#fffffe"/>
  <path id="Fill_223" data-name="Fill 223" d="M.973,1.945A.972.972,0,1,1,1.945.972a.973.973,0,0,1-.972.973" transform="translate(92.478)" fill="#6089b9"/>
  <path id="Fill_224" data-name="Fill 224" d="M.973,1.945A.972.972,0,1,1,1.945.973a.972.972,0,0,1-.973.972" transform="translate(148.136 47.675)" fill="#69d6ff"/>
  <path id="Fill_226" data-name="Fill 226" d="M0,.613A.613.613,0,1,0,.613,0,.612.612,0,0,0,0,.613" transform="translate(99.846 107.399)" fill="#fffffe"/>
  <path id="Fill_227" data-name="Fill 227" d="M0,.439V2.477a.439.439,0,0,0,.879,0V.439A.439.439,0,0,0,0,.439" transform="translate(122.696 82.185)" fill="#fffffe"/>
  <path id="Fill_228" data-name="Fill 228" d="M.44.879H2.477a.439.439,0,1,0,0-.879H.44a.439.439,0,1,0,0,.879" transform="translate(121.677 83.203)" fill="#fffffe"/>
  <path id="Fill_229" data-name="Fill 229" d="M0,.44V2.477a.44.44,0,1,0,.879,0V.44A.44.44,0,0,0,0,.44" transform="translate(91.391 37.164)" fill="#fffffe"/>
  <path id="Fill_230" data-name="Fill 230" d="M.44.879H2.477a.439.439,0,1,0,0-.879H.44a.439.439,0,1,0,0,.879" transform="translate(90.373 38.183)" fill="#fffffe"/>
  <path id="Fill_235" data-name="Fill 235" d="M0,.393V2.215a.393.393,0,0,0,.786,0V.393A.393.393,0,0,0,0,.393" transform="translate(132.364 26.23)" fill="#fffffe"/>
  <path id="Fill_236" data-name="Fill 236" d="M.393.786H2.215a.393.393,0,1,0,0-.786H.393a.393.393,0,0,0,0,.786" transform="translate(131.453 27.141)" fill="#fffffe"/>
</svg>
