<svg xmlns="http://www.w3.org/2000/svg" width="30.967" height="25.008" viewBox="0 0 30.967 25.008">
  <g id="wallet-icon" transform="translate(0 -0.016)">
    <path id="Path" d="M25.524,0H2.5A2.591,2.591,0,0,0,0,2.461v.715H21.952A2.323,2.323,0,0,1,24.214,5.6V10.48h.079l-.079,4.6V22.23h1.31a2.219,2.219,0,0,0,2.263-2.183V2.461A2.323,2.323,0,0,0,25.564,0Z" transform="translate(3.176 0.016)" fill="#36c8ff"/>
    <path id="Path-2" data-name="Path" d="M27.787,7.225V2.382A2.227,2.227,0,0,0,25.6,0H2.58A2.567,2.567,0,0,0,0,2.382V19.848A2.567,2.567,0,0,0,2.58,22.23H25.6a2.227,2.227,0,0,0,2.183-2.382V7.225Z" transform="translate(0 2.795)" fill="#63d4ff"/>
    <path id="Path-3" data-name="Path" d="M12.7,0V7.145L10.163,10.44A2.727,2.727,0,0,1,7.98,11.512H3.573a3.573,3.573,0,0,1-.079-7.145H7.98A2.5,2.5,0,0,0,9.17,4.089a2.751,2.751,0,0,0,.992-.794Z" transform="translate(18.259 6.566)" fill="#202890"/>
    <path id="Path-4" data-name="Path" d="M2.62,1.588H.794A.794.794,0,0,1,.794,0H2.62a.794.794,0,1,1,0,1.588Z" transform="translate(20.801 13.83)" fill="#fff"/>
  </g>
</svg>
