<svg width="45" height="45" viewBox="0 0 45 45" fill="none" xmlns="http://www.w3.org/2000/svg">
<path d="M44.5 0.407501H0.5V44.4075H44.5V0.407501Z" fill="#3B0C77"/>
<path d="M12.6072 35.7327C12.444 35.9604 12.2228 36.1386 11.9679 36.2532C11.4789 36.4737 10.5704 36.7214 9.64611 36.1336C8.56577 35.447 8.48988 34.1584 8.50491 33.6544C8.50849 33.5226 8.45837 33.3945 8.3653 33.3014C7.96867 32.9034 6.97639 31.7149 7.51835 30.2315C7.5792 30.0661 7.55057 29.8807 7.4396 29.7433C6.99428 29.1906 5.9841 27.695 6.77449 26.3111C6.85325 26.1737 6.84967 26.0033 6.76304 25.8708C6.38073 25.2845 5.47292 23.761 6.95133 22.2941C7.11957 22.1273 7.17398 21.8788 7.09237 21.6569C6.81816 20.9123 6.45304 19.2371 8.34168 18.5075C8.52209 18.4374 8.64094 18.2648 8.64523 18.0708C8.66242 17.289 8.97671 15.4026 11.6393 15.5873C11.8039 15.5987 11.9615 15.5236 12.056 15.3883C12.4655 14.8005 13.7513 13.3457 15.7867 14.6029C15.9614 14.711 16.1769 14.7282 16.3645 14.6451C17.1205 14.3079 19.1401 13.6693 20.1217 15.8851C20.1876 16.0347 20.3429 16.1242 20.5054 16.1063C21.1047 16.0398 22.5315 16.0977 23.2181 17.962C23.2904 18.1582 23.4716 18.2921 23.6799 18.3085C24.292 18.3572 25.7225 18.645 25.9881 20.6568C26.0189 20.888 26.2071 21.0684 26.4398 21.0892C27.1407 21.1522 28.4788 21.5209 28.4266 23.4281C28.4208 23.6243 28.5311 23.8054 28.7079 23.8899C29.436 24.2371 31.1521 25.3396 30.182 27.705C28.9685 30.6647 25.8055 27.7859 25.386 27.1044C25.386 27.1044 18.7507 15.6302 13.1241 19.4819C13.1241 19.4819 8.71325 21.8366 12.8299 32.5962C12.8284 32.5962 13.568 34.391 12.6072 35.7327Z" fill="white"/>
<path d="M10.8475 35.6568C10.8332 35.6525 10.8189 35.6475 10.8053 35.6425C10.7895 35.6368 10.7738 35.6311 10.7587 35.6253C10.748 35.621 10.7373 35.6167 10.7265 35.6124C10.6836 35.596 10.7444 35.621 10.7251 35.6117C10.5948 35.5487 10.4674 35.4879 10.3449 35.4098C10.3091 35.3869 10.2741 35.3633 10.2397 35.339C10.2196 35.3246 10.1996 35.3103 10.1803 35.2953C10.1538 35.2745 10.1745 35.291 10.1803 35.2953C10.1681 35.286 10.1559 35.276 10.1445 35.2666C10.0657 35.2022 9.99054 35.1321 9.9211 35.0576C9.78722 34.9137 9.6562 34.7154 9.58532 34.5335C9.47077 34.2386 9.44643 33.9486 9.47936 33.6322C9.48939 33.5362 9.38987 33.4532 9.30038 33.4532C9.19514 33.4532 9.13142 33.5355 9.1214 33.6322C9.06126 34.2099 9.21805 34.7727 9.58962 35.2215C9.83232 35.5151 10.1574 35.7463 10.5032 35.9031C10.5841 35.9396 10.6671 35.9761 10.7523 36.0026C10.9728 36.0699 11.0673 35.7241 10.8475 35.6568Z" fill="#AF75FF"/>
<path d="M9.07914 32.5068C9.04406 32.4753 9.01112 32.4409 8.97891 32.4065C8.94383 32.3686 8.90946 32.3292 8.87653 32.2891C8.86579 32.2762 8.85577 32.2634 8.84574 32.2505C8.82498 32.224 8.85791 32.2669 8.83715 32.239C8.81496 32.2089 8.79276 32.1782 8.77129 32.1474C8.57369 31.8596 8.43479 31.541 8.41475 31.1937C8.40115 30.9503 8.4441 30.7069 8.54219 30.4828C8.58085 30.394 8.56796 30.2909 8.47775 30.238C8.40186 30.1936 8.27156 30.2129 8.2329 30.3024C8.0353 30.7556 7.99879 31.2489 8.15773 31.72C8.2687 32.0493 8.45269 32.35 8.68179 32.6106C8.72761 32.6621 8.77415 32.7137 8.8257 32.7595C8.99752 32.9127 9.25168 32.6607 9.07914 32.5068Z" fill="#AF75FF"/>
<path d="M8.13064 28.9751C8.09627 28.9407 8.06406 28.9035 8.03327 28.8663C8.01752 28.847 8.00177 28.8283 7.98602 28.809C7.97528 28.7954 7.96383 28.7804 7.98172 28.804C7.9717 28.7911 7.96168 28.7782 7.95237 28.7646C7.90941 28.7066 7.86789 28.6465 7.82923 28.5849C7.63378 28.2778 7.48988 27.9399 7.45909 27.5712C7.43761 27.312 7.47198 27.0614 7.55717 26.8158C7.58867 26.7249 7.52066 26.6204 7.43188 26.5953C7.33308 26.5681 7.24359 26.629 7.21138 26.7206C6.92357 27.5454 7.21209 28.4138 7.73974 29.071C7.78269 29.1247 7.8278 29.1792 7.87648 29.2278C8.04043 29.3911 8.29387 29.1383 8.13064 28.9751Z" fill="#AF75FF"/>
<path d="M7.4984 25.3203C7.46977 25.2702 7.44542 25.2179 7.4218 25.1657C7.41679 25.1542 7.41106 25.1421 7.40605 25.1299C7.38672 25.0855 7.41106 25.1435 7.40032 25.1163C7.38743 25.0841 7.37455 25.0526 7.36238 25.0203C7.33302 24.9423 7.30725 24.8636 7.28434 24.7841C7.17337 24.3989 7.13614 23.9987 7.2514 23.6078C7.33016 23.34 7.48265 23.1081 7.6824 22.9148C7.8485 22.7544 7.59506 22.501 7.42896 22.6613C7.03161 23.0458 6.82184 23.5634 6.82399 24.1154C6.82542 24.5178 6.92709 24.9144 7.08459 25.2831C7.11609 25.3568 7.14903 25.4306 7.1884 25.5007C7.30295 25.7012 7.61224 25.5208 7.4984 25.3203Z" fill="#AF75FF"/>
<path d="M7.98888 21.546C7.96526 21.4858 7.94736 21.4235 7.93089 21.3613C7.91299 21.2932 7.89724 21.2245 7.88436 21.1551C7.88078 21.1343 7.8772 21.1135 7.87362 21.0928C7.87147 21.0792 7.86288 21.014 7.87004 21.0684C7.86431 21.0219 7.8593 20.9747 7.85572 20.9281C7.84856 20.83 7.84713 20.7319 7.85285 20.6346C7.85429 20.6074 7.85643 20.5802 7.8593 20.5537C7.86073 20.5408 7.87075 20.4613 7.86431 20.5043C7.8729 20.4484 7.88292 20.3926 7.89653 20.3375C7.95022 20.1155 8.04544 19.9136 8.18362 19.749C8.40627 19.4834 8.69909 19.3101 9.02842 19.192C9.11935 19.159 9.1802 19.0703 9.15371 18.9715C9.12937 18.8834 9.02484 18.814 8.9332 18.8462C8.3175 19.0674 7.79057 19.4783 7.58581 20.1184C7.45551 20.5258 7.46983 20.9739 7.56791 21.387C7.58796 21.4722 7.61087 21.5589 7.6438 21.6405C7.6796 21.73 7.76336 21.793 7.86431 21.7658C7.94951 21.7429 8.02468 21.6362 7.98888 21.546Z" fill="#AF75FF"/>
<path d="M9.60258 18.4818C9.59471 18.4152 9.59471 18.3472 9.59543 18.2799C9.59686 18.2055 9.60115 18.1317 9.60974 18.058C9.61046 18.048 9.61189 18.0387 9.61332 18.0286C9.6169 17.9928 9.61046 18.048 9.61189 18.0358C9.61547 18.0114 9.61905 17.9871 9.62335 17.9635C9.63122 17.9162 9.64124 17.8683 9.65198 17.8217C9.67633 17.7208 9.70783 17.6227 9.74577 17.526C9.75723 17.496 9.73145 17.5568 9.75007 17.5153C9.7558 17.5031 9.76081 17.4917 9.76582 17.4795C9.77799 17.4537 9.79016 17.428 9.80376 17.4029C9.83097 17.3506 9.86104 17.2998 9.89325 17.2504C9.90901 17.2268 9.92476 17.2046 9.94122 17.1817C9.94552 17.1759 9.94981 17.1702 9.95411 17.1645C9.96986 17.1437 9.93549 17.1874 9.95196 17.1666C9.9627 17.1538 9.97272 17.1402 9.98418 17.128C10.0257 17.0786 10.0701 17.032 10.1173 16.9884C10.1395 16.9676 10.1632 16.9468 10.1868 16.9275C10.199 16.9175 10.2111 16.9075 10.2233 16.8982C10.1982 16.9182 10.2362 16.8889 10.2448 16.8831C10.3035 16.8409 10.3651 16.8022 10.4281 16.7679C10.4667 16.7464 10.5061 16.7271 10.5462 16.7084C10.5548 16.7049 10.5627 16.7013 10.5712 16.697C10.5992 16.6848 10.5505 16.7049 10.5791 16.6934C10.5992 16.6848 10.6199 16.6769 10.6407 16.6691C10.7316 16.6354 10.824 16.6075 10.9185 16.5853C11.1397 16.533 11.3595 16.5144 11.5886 16.5123C11.8191 16.5101 11.8191 16.1522 11.5886 16.1543C10.8834 16.1607 10.1388 16.3533 9.68563 16.9311C9.39997 17.2955 9.26108 17.7473 9.2396 18.2062C9.23531 18.2978 9.23388 18.3909 9.2439 18.4818C9.25464 18.5778 9.31836 18.6608 9.42288 18.6608C9.51166 18.6608 9.61332 18.5785 9.60258 18.4818Z" fill="#AF75FF"/>
<path d="M12.6425 16.1715C12.6597 16.1486 12.6074 16.2145 12.6253 16.1937C12.6361 16.1815 12.6461 16.1679 12.6561 16.155C12.6926 16.1106 12.7306 16.0684 12.7692 16.0262C12.8265 15.9646 12.8866 15.9052 12.9489 15.8479C12.984 15.8157 13.0198 15.7842 13.0563 15.7534C13.0756 15.7369 13.095 15.7212 13.115 15.7047C13.1272 15.6947 13.1394 15.6854 13.1515 15.6754C13.1816 15.6517 13.1322 15.6897 13.1658 15.6646C13.2618 15.5937 13.3606 15.5264 13.4637 15.467C13.5754 15.4026 13.6863 15.3489 13.7866 15.3117C14.0565 15.2107 14.3013 15.1706 14.5855 15.1935C14.9528 15.2236 15.3165 15.3976 15.6222 15.6188C15.7003 15.6754 15.822 15.6324 15.8671 15.5544C15.9201 15.4642 15.8814 15.3661 15.8026 15.3095C15.2184 14.8871 14.4975 14.7074 13.7995 14.9286C13.3262 15.0783 12.9045 15.3725 12.5609 15.7262C12.48 15.8092 12.4027 15.8973 12.3332 15.9904C12.2752 16.0677 12.3203 16.1901 12.3976 16.2352C12.4886 16.2896 12.5845 16.2495 12.6425 16.1715Z" fill="#AF75FF"/>
<path d="M16.7549 15.6467C16.7713 15.6374 16.7878 15.6288 16.805 15.6202C16.8229 15.6116 16.84 15.603 16.8579 15.5945C16.8773 15.5851 16.9603 15.5508 16.9016 15.5744C17.0527 15.5136 17.2073 15.4627 17.367 15.4291C17.4149 15.4191 17.4629 15.4105 17.5116 15.4033C17.4651 15.4105 17.5388 15.4004 17.5503 15.399C17.5796 15.3961 17.6097 15.3933 17.639 15.3918C17.7479 15.3854 17.8567 15.3883 17.9648 15.4004C18.0178 15.4062 17.9283 15.394 17.9812 15.4026C17.992 15.404 18.0027 15.4062 18.0135 15.4076C18.0407 15.4126 18.0672 15.4176 18.0937 15.4233C18.1567 15.4377 18.2189 15.4556 18.2798 15.4778C18.3378 15.4985 18.3535 15.505 18.4223 15.5408C18.4824 15.5723 18.5411 15.6073 18.597 15.646C18.8733 15.8379 19.0902 16.1615 19.2392 16.4815C19.28 16.5688 19.406 16.591 19.484 16.5459C19.5735 16.4937 19.5892 16.3891 19.5484 16.3011C19.2735 15.7119 18.8017 15.1978 18.1409 15.069C17.7121 14.9852 17.2624 15.0496 16.8579 15.2086C16.762 15.2465 16.6639 15.2866 16.5744 15.3374C16.374 15.452 16.5544 15.7613 16.7549 15.6467Z" fill="#AF75FF"/>
<path d="M22.7685 18.4725C22.6983 18.2226 22.5759 17.9778 22.4377 17.7594C22.1542 17.3127 21.7462 16.9425 21.2328 16.7865C20.8605 16.6733 20.4646 16.6869 20.0873 16.7707C19.8625 16.8208 19.9577 17.1659 20.1825 17.1158C20.4811 17.0492 20.7868 17.0399 21.066 17.1115C21.2937 17.1702 21.5235 17.2926 21.686 17.4294C21.7748 17.5038 21.8564 17.5854 21.9323 17.6728C21.9523 17.6957 21.971 17.7193 21.9903 17.7422C21.9967 17.7501 22.0025 17.758 22.0089 17.7659C21.9831 17.7329 22.0132 17.7716 22.0168 17.7766C22.0476 17.8188 22.0776 17.8618 22.107 17.9055C22.2029 18.0515 22.2824 18.2069 22.3526 18.3665C22.3275 18.3093 22.3525 18.3672 22.3583 18.3816C22.3647 18.3987 22.3719 18.4159 22.3783 18.4331C22.3869 18.4567 22.3955 18.4804 22.4034 18.504C22.4105 18.5255 22.4177 18.5469 22.4241 18.5684C22.4857 18.7889 22.8308 18.6951 22.7685 18.4725Z" fill="#AF75FF"/>
<path d="M23.0363 19.1905C23.0549 19.1913 23.0735 19.1934 23.0921 19.1956C23.1 19.1963 23.1086 19.1977 23.1165 19.1984C23.1644 19.2034 23.0957 19.1948 23.11 19.1977C23.1387 19.2027 23.168 19.2063 23.1967 19.2113C23.3649 19.2407 23.531 19.2843 23.6921 19.3423C23.7393 19.3588 23.7859 19.3774 23.8324 19.396C23.7916 19.3788 23.8689 19.4125 23.8811 19.4182C23.9076 19.4304 23.9348 19.4433 23.9606 19.4562C24.0701 19.5106 24.1761 19.5721 24.2763 19.6409C24.3013 19.658 24.3257 19.6752 24.3493 19.6931C24.3515 19.6946 24.3944 19.7282 24.3658 19.7053C24.3787 19.7153 24.3923 19.7261 24.4052 19.7368C24.4581 19.7805 24.5097 19.8263 24.5584 19.875C24.6615 19.9766 24.7388 20.0683 24.8104 20.1742C25.0201 20.4835 25.1419 20.8293 25.1905 21.2038C25.2034 21.2997 25.2636 21.3827 25.3695 21.3827C25.4562 21.3827 25.5614 21.3004 25.5485 21.2038C25.4554 20.4935 25.144 19.8542 24.5684 19.4139C24.2119 19.1411 23.7809 18.96 23.3406 18.8755C23.2396 18.8562 23.1372 18.839 23.0349 18.8333C22.8065 18.8197 22.8072 19.1777 23.0363 19.1905Z" fill="#AF75FF"/>
<path d="M25.9718 21.9418C25.9868 21.9418 26.0026 21.9433 26.0176 21.944C26.0348 21.9454 26.0513 21.9469 26.0684 21.9483C26.0792 21.9497 26.0892 21.9504 26.0999 21.9519C26.1479 21.9569 26.0656 21.9461 26.0985 21.9519C26.2367 21.9755 26.372 22.0048 26.5044 22.0521C26.5238 22.0593 26.5424 22.0664 26.5617 22.0736C26.5696 22.0764 26.5775 22.08 26.5846 22.0829C26.6254 22.0986 26.5481 22.0664 26.5889 22.0843C26.6312 22.1029 26.6727 22.123 26.7128 22.1444C26.7507 22.1645 26.7887 22.1867 26.8252 22.2096C26.8452 22.2218 26.8646 22.2354 26.8839 22.2483C26.8954 22.2561 26.9068 22.2647 26.919 22.2733C26.9261 22.2783 26.9605 22.3055 26.929 22.2805C27.012 22.3471 27.0872 22.4215 27.156 22.5024C27.1624 22.5103 27.1696 22.5189 27.176 22.5275C27.1524 22.4967 27.1846 22.5396 27.1867 22.5425C27.2011 22.5626 27.2147 22.5826 27.2283 22.6034C27.2605 22.6535 27.2898 22.7057 27.3163 22.7594C27.3471 22.8224 27.3614 22.8582 27.3865 22.9384C27.4087 23.0086 27.4266 23.0802 27.4402 23.1525C27.4717 23.3186 27.4781 23.5069 27.4695 23.6873C27.4595 23.9178 27.8175 23.9171 27.8275 23.6873C27.8533 23.1017 27.7044 22.4924 27.2547 22.0886C26.9727 21.8344 26.6104 21.6755 26.2374 21.6132C26.1501 21.5989 26.0599 21.5846 25.9711 21.5832C25.742 21.5803 25.7413 21.9383 25.9718 21.9418Z" fill="#AF75FF"/>
<path d="M28.2927 24.9566C28.3479 24.9766 28.2505 24.9358 28.302 24.9602C28.3436 24.9795 28.3844 24.9988 28.4245 25.021C28.4832 25.0532 28.5404 25.0876 28.5956 25.1248C28.6285 25.147 28.6607 25.1707 28.6929 25.1943C28.6557 25.1664 28.698 25.1986 28.7116 25.2093C28.7302 25.2244 28.7488 25.2401 28.7667 25.2559C28.839 25.3196 28.907 25.3876 28.9693 25.4613C28.9779 25.4714 29.028 25.5351 29.0029 25.5021C29.0173 25.5215 29.0316 25.5408 29.0452 25.5608C29.0781 25.6081 29.1082 25.6568 29.1361 25.7069C29.2449 25.9023 29.3165 26.1508 29.3308 26.3792C29.3552 26.7744 29.2585 27.1538 29.1139 27.5218C29.0788 27.612 29.1526 27.718 29.2392 27.7423C29.3409 27.7702 29.4239 27.7079 29.4597 27.617C29.7117 26.9763 29.8012 26.2532 29.4926 25.616C29.3137 25.2451 29.0037 24.9401 28.6486 24.7361C28.5655 24.6888 28.4789 24.6452 28.3887 24.6115C28.2977 24.5779 28.1925 24.6487 28.1682 24.7368C28.1402 24.8363 28.2018 24.9229 28.2927 24.9566Z" fill="#AF75FF"/>
<path d="M20.0751 25.8408C19.8137 25.9396 19.5302 25.9653 19.2546 25.9202C18.7255 25.8329 17.8313 25.5358 17.3874 24.5349C16.8684 23.3651 17.5184 22.2504 17.8106 21.8387C17.8872 21.7314 17.9158 21.5968 17.89 21.4672C17.7805 20.9159 17.6122 19.3767 18.8852 18.4417C19.0269 18.3372 19.1064 18.1675 19.0899 17.9921C19.0255 17.2847 19.0126 15.4799 20.4373 14.7661C20.5791 14.6952 20.67 14.5513 20.6714 14.3931C20.6779 13.693 20.7667 11.9218 22.8092 11.5201C23.0412 11.4743 23.2245 11.2975 23.2796 11.0677C23.4636 10.2959 24.0879 8.69866 26.0646 9.13752C26.2536 9.17976 26.4483 9.10101 26.5593 8.94208C27.0068 8.30061 28.3133 6.90456 30.4275 8.53257C30.5578 8.6328 30.7311 8.65785 30.8843 8.59772C31.5508 8.33497 33.4273 7.83597 34.4253 10.0102C34.5112 10.1964 34.6809 10.331 34.8828 10.3653C35.6989 10.5035 37.7343 11.0899 37.3241 13.4789C37.2962 13.64 37.3757 13.8011 37.521 13.8755C38.0565 14.1526 39.2128 14.9902 38.7517 16.9225C38.703 17.1258 38.7796 17.3377 38.9436 17.4666C39.4261 17.846 40.4578 18.8784 39.565 20.7004C39.4626 20.9102 39.5192 21.1643 39.7017 21.3104C40.2501 21.7507 41.1601 22.7988 40.0604 24.3581C39.9473 24.5184 39.938 24.7304 40.0389 24.8986C40.4528 25.5909 41.2711 27.4595 39.1533 28.8913C36.5036 30.6833 35.4648 26.5345 35.4927 25.7348C35.4927 25.7348 36.3239 12.5059 29.5061 12.5962C29.5061 12.5962 24.5296 12.1129 21.9973 23.3522C21.9966 23.3515 21.6186 25.2558 20.0751 25.8408Z" fill="white"/>
<path d="M18.6438 24.7934C18.6202 24.7648 18.6768 24.8385 18.641 24.7891C18.6173 24.7562 18.5937 24.7225 18.5715 24.6882C18.4935 24.5693 18.4269 24.4433 18.3682 24.3137C18.3567 24.288 18.3482 24.2672 18.3317 24.2242C18.3152 24.1799 18.2995 24.1355 18.2852 24.0904C18.2551 23.9937 18.2307 23.8956 18.2136 23.7961C18.1806 23.6028 18.1806 23.383 18.2214 23.1833C18.2823 22.8876 18.4219 22.6184 18.6131 22.3857C18.6746 22.3113 18.6861 22.2053 18.6131 22.1323C18.55 22.0693 18.4219 22.0571 18.3596 22.1323C17.9931 22.5776 17.7826 23.126 17.8427 23.7073C17.8842 24.1032 18.0224 24.4856 18.2329 24.8228C18.2809 24.9001 18.3331 24.9753 18.3904 25.0461C18.452 25.1213 18.5801 25.1099 18.6438 25.0461C18.7176 24.9724 18.7054 24.8686 18.6438 24.7934Z" fill="#AF75FF"/>
<path d="M18.9222 21.188C18.9101 21.1422 18.9022 21.0942 18.8943 21.0477C18.8929 21.0369 18.8907 21.0255 18.8893 21.0147C18.8829 20.9768 18.89 21.0205 18.8893 21.0155C18.8857 20.9861 18.8821 20.9568 18.8793 20.9267C18.8728 20.8572 18.8693 20.7871 18.8678 20.7169C18.8635 20.3718 18.9244 20.0382 19.1034 19.7332C19.2272 19.522 19.4012 19.3466 19.6102 19.212C19.8036 19.0874 19.6239 18.7774 19.4298 18.9027C19.0146 19.1705 18.7168 19.57 18.5893 20.0482C18.4998 20.3854 18.4912 20.7391 18.5399 21.0835C18.5492 21.1501 18.5593 21.2174 18.5764 21.2825C18.6351 21.5059 18.9802 21.4114 18.9222 21.188Z" fill="#AF75FF"/>
<path d="M20.0886 17.7222C20.0857 17.71 20.0843 17.6972 20.0821 17.6843C20.08 17.67 20.0793 17.6549 20.0757 17.6413C20.075 17.6377 20.0814 17.6907 20.0771 17.6535C20.0757 17.6413 20.0743 17.6291 20.0728 17.617C20.0592 17.4917 20.0542 17.365 20.0564 17.239C20.0599 17.0528 20.0743 16.9197 20.1108 16.75C20.153 16.5538 20.2139 16.3741 20.3062 16.203C20.4236 15.9846 20.5847 15.7892 20.783 15.6388C20.8604 15.5809 20.9005 15.4842 20.8475 15.394C20.8031 15.3181 20.6799 15.2709 20.6026 15.3296C20.201 15.6331 19.9232 16.0505 19.7936 16.5381C19.7041 16.8738 19.6784 17.2311 19.7106 17.5762C19.7184 17.6564 19.727 17.738 19.7428 17.8167C19.7621 17.9112 19.8745 17.9664 19.9633 17.942C20.0621 17.9155 20.1079 17.8174 20.0886 17.7222Z" fill="#AF75FF"/>
<path d="M21.59 14.3309C21.5915 14.3151 21.5929 14.2994 21.5943 14.2836C21.595 14.2758 21.5965 14.2679 21.5972 14.26C21.6015 14.2178 21.5915 14.2944 21.5958 14.2722C21.6 14.2471 21.6029 14.2221 21.6072 14.197C21.6315 14.0509 21.6666 13.907 21.7117 13.766C21.7253 13.7238 21.7397 13.6822 21.7547 13.6407C21.7626 13.6192 21.7704 13.5978 21.779 13.5763C21.784 13.5641 21.7883 13.5519 21.7934 13.5398C21.8077 13.504 21.7826 13.5634 21.7998 13.524C21.8399 13.4331 21.8843 13.3443 21.9344 13.2584C22.0497 13.0615 22.1671 12.914 22.3518 12.7615C22.5487 12.599 22.8136 12.4873 23.0878 12.4372C23.183 12.42 23.2367 12.3041 23.2131 12.2167C23.1858 12.1165 23.0885 12.0742 22.9925 12.0914C22.4477 12.1909 21.9917 12.5145 21.6888 12.9749C21.4762 13.2978 21.3402 13.6758 21.27 14.0545C21.2535 14.1455 21.2385 14.2371 21.2313 14.3294C21.2242 14.4261 21.3187 14.5084 21.4103 14.5084C21.5141 14.5099 21.5836 14.4282 21.59 14.3309Z" fill="#AF75FF"/>
<path d="M24.0913 11.4622C24.1049 11.3992 24.1243 11.3369 24.145 11.2753C24.1551 11.2452 24.1665 11.2144 24.1773 11.1851C24.183 11.1701 24.1887 11.155 24.1952 11.14C24.1987 11.1307 24.203 11.1214 24.2066 11.1113C24.2195 11.0791 24.1887 11.1507 24.2073 11.1099C24.2446 11.029 24.2825 10.9495 24.3262 10.8715C24.3749 10.7856 24.4285 10.7033 24.4873 10.6245C24.5159 10.5866 24.4636 10.6531 24.4937 10.6159C24.503 10.6045 24.5116 10.5937 24.5209 10.583C24.5367 10.5644 24.5517 10.5465 24.5682 10.5279C24.6075 10.4835 24.6491 10.4412 24.6927 10.4011C24.8445 10.2608 25.0478 10.1405 25.254 10.0797C25.5762 9.98375 25.9234 10.0031 26.2664 10.0883C26.4897 10.1434 26.5857 9.79832 26.3616 9.74319C25.7222 9.58497 25.0571 9.64583 24.5324 10.0689C24.1994 10.3374 23.9696 10.7176 23.8229 11.1156C23.7928 11.1973 23.7642 11.281 23.7463 11.3669C23.6983 11.5917 24.0434 11.6877 24.0913 11.4622Z" fill="#AF75FF"/>
<path d="M27.1349 9.80409C27.1664 9.74323 27.2044 9.68452 27.2438 9.62797C27.2609 9.60291 27.2795 9.57785 27.2974 9.55351C27.3039 9.5442 27.3268 9.51556 27.2939 9.5578C27.3003 9.54921 27.3068 9.54134 27.3132 9.53275C27.3268 9.51556 27.3411 9.49838 27.3554 9.4812C27.4141 9.41175 27.4771 9.34517 27.543 9.2836C27.5795 9.24924 27.6182 9.2163 27.6568 9.18409C27.6955 9.15187 27.6475 9.1891 27.6883 9.15974C27.712 9.14256 27.7356 9.12538 27.7599 9.10891C27.8487 9.04877 27.9733 8.98076 28.0499 8.94854C28.2776 8.85332 28.5167 8.81896 28.7809 8.84258C29.1567 8.87623 29.5512 9.06309 29.882 9.27787C30.0753 9.40388 30.255 9.09388 30.0624 8.96859C29.4703 8.58341 28.7365 8.33355 28.0392 8.57124C27.6032 8.72016 27.2459 9.02085 26.9753 9.38741C26.9201 9.46187 26.8665 9.53991 26.8242 9.62224C26.7211 9.82843 27.0304 10.0096 27.1349 9.80409Z" fill="#AF75FF"/>
<path d="M30.9084 9.58571C30.9815 9.55994 31.0566 9.54061 31.1318 9.52271C31.2134 9.50338 31.295 9.48691 31.3781 9.47331C31.4017 9.46973 31.4253 9.46615 31.449 9.46257C31.4919 9.45613 31.4067 9.46758 31.4504 9.46257C31.4633 9.46114 31.4755 9.4597 31.4883 9.45827C31.5456 9.45183 31.6036 9.44682 31.6616 9.44324C31.7776 9.43608 31.895 9.43536 32.011 9.44252C32.0725 9.4461 32.1341 9.45183 32.1957 9.4597C32.1527 9.45398 32.205 9.46114 32.2107 9.46257C32.2265 9.46543 32.2422 9.46758 32.258 9.47044C32.2952 9.47689 32.3317 9.48476 32.3682 9.49264C32.4269 9.50624 32.4849 9.52199 32.5422 9.53989C32.5737 9.54991 32.6052 9.56065 32.6367 9.57211C32.6525 9.57783 32.6682 9.58428 32.684 9.59001C32.7033 9.59788 32.7047 9.5986 32.6883 9.59144C32.699 9.59573 32.709 9.60074 32.7198 9.60504C32.7828 9.63439 32.8443 9.66518 32.9045 9.70098C32.9353 9.71887 32.9653 9.7382 32.9947 9.75753C33.0097 9.76756 33.0247 9.77758 33.0391 9.78832C33.0441 9.7919 33.0949 9.83056 33.0756 9.81552C33.3777 10.0532 33.581 10.3711 33.7156 10.7334C33.7493 10.8236 33.8366 10.8858 33.9361 10.8586C34.0235 10.835 34.0951 10.7298 34.0614 10.6381C33.924 10.2701 33.7264 9.9222 33.4357 9.65372C33.1987 9.43536 32.9145 9.27643 32.6066 9.18407C32.1255 9.03945 31.6029 9.0552 31.1153 9.15901C31.0144 9.18049 30.9127 9.20483 30.8154 9.23991C30.7244 9.27213 30.6636 9.36162 30.6901 9.46042C30.713 9.54848 30.8175 9.61864 30.9084 9.58571Z" fill="#AF75FF"/>
<path d="M34.6652 11.4149C34.6831 11.4163 34.701 11.4185 34.7189 11.4206C34.764 11.4249 34.6888 11.4156 34.7052 11.4185C34.7167 11.4206 34.7289 11.4221 34.7403 11.4235C34.7683 11.4278 34.7969 11.4328 34.8248 11.4378C34.983 11.4679 35.1384 11.513 35.288 11.5724C35.2995 11.5767 35.3109 11.5817 35.3224 11.586C35.2766 11.5674 35.3167 11.5839 35.3253 11.5874C35.3482 11.5982 35.3718 11.6082 35.3947 11.6197C35.4419 11.6426 35.4892 11.6669 35.5343 11.6934C35.5794 11.7199 35.6238 11.7478 35.6675 11.7772C35.6889 11.7915 35.7097 11.8065 35.7298 11.8223C35.7677 11.8509 35.7011 11.7986 35.7383 11.8294C35.7534 11.8416 35.7677 11.8538 35.782 11.8659C35.8228 11.901 35.8615 11.9375 35.8987 11.9762C35.9195 11.9977 35.9395 12.0199 35.9589 12.0428C35.9689 12.0542 35.9782 12.0657 35.9882 12.0779C36.0011 12.0936 36.0011 12.0936 35.9882 12.0779C35.9947 12.0857 36.0004 12.0943 36.0068 12.1029C36.0405 12.1502 36.072 12.1981 36.1006 12.2482C36.1164 12.2769 36.1321 12.3055 36.1464 12.3349C36.1536 12.3499 36.1607 12.3649 36.1679 12.38C36.1837 12.4143 36.1608 12.3606 36.1765 12.3993C36.3097 12.7394 36.324 13.0809 36.2681 13.4482C36.2538 13.5434 36.2925 13.6407 36.3934 13.6687C36.4779 13.6916 36.5989 13.64 36.6139 13.5434C36.7149 12.8811 36.6197 12.1881 36.1278 11.697C35.8185 11.3884 35.4019 11.1958 34.9787 11.1042C34.8764 11.082 34.7718 11.0634 34.6673 11.0562C34.5707 11.0498 34.4883 11.1428 34.4883 11.2352C34.4862 11.3383 34.5678 11.4085 34.6652 11.4149Z" fill="#AF75FF"/>
<path d="M38.0994 17.0901C38.1803 16.8409 38.2118 16.566 38.2168 16.3054C38.2275 15.7763 38.0851 15.2523 37.7464 14.8384C37.4994 14.5363 37.1586 14.3323 36.7985 14.1934C36.7083 14.1583 36.6024 14.2321 36.578 14.3187C36.5501 14.4196 36.6124 14.5041 36.7033 14.5392C36.9904 14.6494 37.2424 14.8084 37.4443 15.0346C37.5997 15.2086 37.7128 15.4255 37.7779 15.6489C37.793 15.7012 37.8066 15.7548 37.8173 15.8078C37.823 15.8343 37.8273 15.8601 37.8323 15.8866C37.8352 15.9023 37.8374 15.9181 37.8395 15.9338C37.8459 15.9775 37.8366 15.9088 37.8416 15.9489C37.8545 16.0577 37.8603 16.1679 37.8588 16.2775C37.8581 16.3706 37.8524 16.4643 37.8424 16.5567C37.8402 16.5767 37.8374 16.5968 37.8352 16.6168C37.8302 16.6584 37.8424 16.5746 37.8352 16.6147C37.8338 16.624 37.8323 16.6333 37.8309 16.6419C37.8252 16.6791 37.8187 16.7163 37.8116 16.7529C37.7958 16.8338 37.7786 16.9161 37.7529 16.9948C37.6827 17.2146 38.0278 17.3084 38.0994 17.0901Z" fill="#AF75FF"/>
<path d="M37.9303 17.8503C37.8788 17.8117 37.9117 17.8353 37.9389 17.8589C37.9776 17.8911 38.0141 17.9248 38.0506 17.9591C38.105 18.0107 38.1573 18.0644 38.2074 18.1195C38.2375 18.1532 38.2668 18.1868 38.2962 18.2212C38.3098 18.2376 38.3234 18.2548 38.337 18.272C38.3427 18.2792 38.3635 18.3057 38.3413 18.277C38.3506 18.2892 38.3599 18.3014 38.3692 18.3135C38.4344 18.4016 38.4952 18.4932 38.5503 18.5884C38.6069 18.6858 38.6678 18.8097 38.6993 18.8891C38.8009 19.1454 38.8532 19.396 38.8553 19.6616C38.8582 20.0317 38.7587 20.3926 38.5969 20.724C38.5546 20.8107 38.5733 20.9173 38.6613 20.9689C38.7401 21.0147 38.8632 20.9918 38.9062 20.9045C39.2133 20.278 39.3135 19.5707 39.0844 18.902C38.9355 18.466 38.6749 18.0708 38.3485 17.7479C38.274 17.6742 38.196 17.6048 38.1122 17.5418C38.0349 17.4838 37.9124 17.5296 37.8673 17.6062C37.8122 17.6964 37.8523 17.7916 37.9303 17.8503Z" fill="#AF75FF"/>
<path d="M38.8506 21.7664C38.8685 21.7786 38.9042 21.8166 38.8548 21.7686C38.8842 21.7972 38.9193 21.8209 38.9494 21.8481C38.9959 21.8896 39.0403 21.9333 39.0825 21.9784C39.1061 22.0041 39.1298 22.0299 39.152 22.0564C39.1641 22.0707 39.1756 22.085 39.187 22.0994C39.1906 22.1037 39.2092 22.1273 39.1949 22.1094C39.1799 22.09 39.2049 22.1223 39.2078 22.1258C39.2601 22.1974 39.3088 22.2719 39.351 22.3499C39.3725 22.3893 39.3918 22.4294 39.4104 22.4702C39.4126 22.4745 39.4233 22.5017 39.4126 22.4752C39.4169 22.486 39.4212 22.4967 39.4254 22.5074C39.4348 22.5325 39.4441 22.5568 39.4519 22.5826C39.5164 22.7802 39.5364 22.9714 39.5099 23.1718C39.4655 23.4976 39.3066 23.7918 39.1155 24.0539C39.0582 24.1319 39.1026 24.2536 39.1799 24.2987C39.2708 24.3517 39.3675 24.313 39.4247 24.2343C39.7727 23.7575 39.976 23.1704 39.8257 22.5826C39.7319 22.2168 39.5121 21.8853 39.2386 21.6283C39.1734 21.5674 39.1047 21.508 39.031 21.4579C38.9515 21.4027 38.8327 21.4428 38.7861 21.5223C38.7346 21.6104 38.7711 21.712 38.8506 21.7664Z" fill="#AF75FF"/>
<path d="M39.0846 25.5293C39.1204 25.5787 39.1505 25.6324 39.1791 25.6854C39.1928 25.7105 39.2056 25.7362 39.2178 25.7613C39.2257 25.777 39.2328 25.7935 39.24 25.8093C39.2457 25.8222 39.2686 25.878 39.2493 25.8293C39.2801 25.9052 39.3073 25.9825 39.3295 26.062C39.3417 26.1064 39.3531 26.1508 39.3624 26.1959C39.3667 26.2181 39.371 26.2403 39.3753 26.2625C39.3775 26.2753 39.3796 26.2875 39.3818 26.3004C39.3832 26.3111 39.3796 26.2768 39.3839 26.3154C39.3954 26.4235 39.3997 26.5316 39.3918 26.6405C39.3904 26.667 39.3875 26.6934 39.3846 26.7199C39.381 26.7536 39.3918 26.6777 39.3825 26.735C39.3803 26.7471 39.3789 26.7593 39.3767 26.7708C39.366 26.8331 39.3517 26.8946 39.3345 26.9548C39.2973 27.0822 39.2572 27.1774 39.192 27.2934C39.0023 27.6335 38.7109 27.9055 38.3938 28.1268C38.3143 28.1819 38.2778 28.2835 38.3293 28.3716C38.3752 28.4496 38.4947 28.4912 38.5742 28.436C39.1305 28.048 39.6295 27.5082 39.7304 26.8116C39.7927 26.3813 39.7104 25.9503 39.5185 25.563C39.482 25.4892 39.4426 25.4148 39.3939 25.3482C39.3374 25.2702 39.2386 25.2315 39.1491 25.2838C39.0725 25.3296 39.0274 25.4513 39.0846 25.5293Z" fill="#AF75FF"/>
</svg>
