<svg id="Layer_1" data-name="Layer 1" xmlns="http://www.w3.org/2000/svg" viewBox="0 0 170.25 75.87"><defs><style>.cls-1{fill:#009f98;}.cls-2{fill:#1e5c7e;}</style></defs><title>apna_dental_logo</title><path class="cls-1" d="M44.55,23.13s.77.18,2.1.42a20.09,20.09,0,0,0,5.4.34A9.74,9.74,0,0,0,55.29,23c1-.47,2.1-1.42,3.47-2.15a26.94,26.94,0,0,1,4.27-2,20.39,20.39,0,0,1,4.87-1.06,12.74,12.74,0,0,1,5.14.59,9.66,9.66,0,0,1,4.27,2.88,10.68,10.68,0,0,1,2.21,4.11,14.76,14.76,0,0,1,.62,3.94c0,.61,0,1.18,0,1.73S80,32.17,80,32.65s-.12.93-.2,1.34l-.24,1.12c-.13.67-.32,1.19-.41,1.54l-.17.54s0-.79,0-2.14c0-.68-.07-1.5-.13-2.42s-.22-2-.43-3.05a18.59,18.59,0,0,0-1-3.35,10.14,10.14,0,0,0-2-3,7.46,7.46,0,0,0-3.2-1.86,10.63,10.63,0,0,0-4-.37,17.72,17.72,0,0,0-4.16.82A33,33,0,0,0,60,23.32c-1.23.56-2.36,1.31-3.86,1.86a10,10,0,0,1-4.09.5,14.38,14.38,0,0,1-3.27-.63,17.17,17.17,0,0,1-2.34-.91c-.63-.28-1.1-.55-1.42-.72Z" transform="translate(-2.54 -12.06)"/><path class="cls-2" d="M77.35,62.24l-.67.53a6.83,6.83,0,0,0-1.56,1.73l-.39.67-.28.8a4.83,4.83,0,0,0-.23.89,6.08,6.08,0,0,0-.15,1,30.49,30.49,0,0,0,.07,4.73,46.08,46.08,0,0,1,.11,5.84A21.32,21.32,0,0,1,72.86,85l-.32.83A3,3,0,0,1,71.83,87a3.18,3.18,0,0,1-2.81.92,3.14,3.14,0,0,1-1.44-.62A3.35,3.35,0,0,1,67,86.7a1.46,1.46,0,0,1-.22-.33l-.16-.27c-.26-.5-.52-1-.79-1.51a50.5,50.5,0,0,0-3.59-5.84,21.28,21.28,0,0,0-4.39-4.86,7.38,7.38,0,0,0-2.5-1.29,3.71,3.71,0,0,0-1.23-.1,3,3,0,0,0-.59.1l-.08,0h0s.16-.06.07,0h0l-.19.07-.38.15a4,4,0,0,0-.92.65,8.79,8.79,0,0,0-.89,1A16.78,16.78,0,0,0,49.66,77c-.85,1.78-1.6,3.6-2.53,5.21a10.25,10.25,0,0,1-3.44,3.84,6.47,6.47,0,0,1-3.85.89,9,9,0,0,1-2.41-.5l-.8-.29.84.12a10.77,10.77,0,0,0,2.36,0A6,6,0,0,0,43,85.09a9.73,9.73,0,0,0,2.52-3.68c.68-1.56,1.22-3.37,2-5.32a17.92,17.92,0,0,1,1.44-3,8,8,0,0,1,1.16-1.49,6.15,6.15,0,0,1,1.73-1.29l.39-.18.19-.08h0l.12,0,.07,0,.13,0a5.31,5.31,0,0,1,1-.23,6.27,6.27,0,0,1,2.16.07,9.3,9.3,0,0,1,3.68,1.7,24.24,24.24,0,0,1,5.15,5.48,54,54,0,0,1,3.71,6.25c.27.52.55,1.07.79,1.59l0,.1s0,0,0,0,0,0,0,0a.27.27,0,0,0,.12.07c.28,0,.25.24.79-1.06a22,22,0,0,0,1.61-5.8c.25-1.93.34-3.82.42-5.6a25.64,25.64,0,0,1,.55-4.94,7.66,7.66,0,0,1,1.73-3.51,5.11,5.11,0,0,1,1.07-1,4.31,4.31,0,0,1,.89-.54Z" transform="translate(-2.54 -12.06)"/><path class="cls-1" d="M2.54,17.37c4.43-.59,14.29.13,20.22,5.81,1-4.8,8-7.86,8.79-11.12,6.18,7.58-5.25,16.29-5.25,16.29-1.72-5.74,1.92-9.87,4-11.69a13.71,13.71,0,0,0-4.51,5.49,9,9,0,0,0-.25,5.72c.09.36.17.74.23,1.13a12.49,12.49,0,0,1,.15,1.44,16.09,16.09,0,0,1,14.49-5.76,8,8,0,0,1,1.57.26,11.64,11.64,0,0,1,1.49.41c.46.19.92.36,1.38.53s.8.37,1.21.52a22.08,22.08,0,0,0,4.38,1.38A12.33,12.33,0,0,0,54,28a10.56,10.56,0,0,0,2.28-.5l.76-.32-.71.47a8.29,8.29,0,0,1-2.22,1,11.58,11.58,0,0,1-3.79.38,19.55,19.55,0,0,1-4.86-.86l-1.3-.4-1.24-.34A14.67,14.67,0,0,0,40.2,27a15.31,15.31,0,0,0-5.69.88,14.09,14.09,0,0,0-5.11,3.24A15,15,0,0,0,26,36.33a15.8,15.8,0,0,0-.54,1.49l-.38,1.5c-.12.51-.17,1.13-.27,1.7l-.11.77v.7a18.8,18.8,0,0,0,1.46,6c.78,2,1.61,3.91,2.41,5.75s1.53,3.61,2.14,5.28a33.69,33.69,0,0,1,1.42,4.63,16.69,16.69,0,0,1,.4,2,14.25,14.25,0,0,1,.17,1.72c0,.52.06,1,.06,1.38s-.07.75-.09,1c-.06.55-.08.84-.08.84s0-.29-.1-.84c0-.27,0-.62-.09-1s-.19-.82-.31-1.32a13,13,0,0,0-.44-1.59c-.17-.59-.4-1.2-.65-1.86s-.55-1.32-.88-2S29.46,61,29.08,60.2c-.77-1.53-1.67-3.2-2.6-5s-2-3.65-2.84-5.72a30.25,30.25,0,0,1-1.24-3.24,12.86,12.86,0,0,1-.71-3.71l0-1,.12-1c.09-.57.13-1.13.25-1.74L22.48,37a18.6,18.6,0,0,1,.63-1.82c.15-.38.34-.74.51-1.12C22.42,28.39,16,18.76,2.54,17.37" transform="translate(-2.54 -12.06)"/><path class="cls-2" d="M39.59,48.48l-.79,2.17h-3L40,40.1h3.78l4.38,10.55H45l-.85-2.17Zm3.75-2.27C42.47,44,42,42.79,41.78,42h0c-.23.83-.75,2.37-1.45,4.26Z" transform="translate(-2.54 -12.06)"/><path class="cls-2" d="M49.37,40.1H55c2.44,0,4.17,1.23,4.17,3.38S57.61,47,55,47H52.31v3.67H49.37Zm2.94,4.7H54.7c1,0,1.59-.36,1.59-1.28,0-.76-.45-1.25-1.59-1.25H52.31Z" transform="translate(-2.54 -12.06)"/><path class="cls-2" d="M60.85,50.65V40.1h3.44c2.94,4.57,3.66,5.7,4.34,7h0c-.1-1-.09-3-.09-4.79V40.1h2.66V50.65H68c-.86-1.46-3.94-6.47-4.55-7.69h0c.09,1.28.09,2.76.09,4.67v3Z" transform="translate(-2.54 -12.06)"/><path class="cls-2" d="M76.32,48.48l-.79,2.17h-3L76.69,40.1h3.78l4.38,10.55H81.69l-.84-2.17Zm3.75-2.27c-.86-2.22-1.3-3.42-1.56-4.26h0c-.24.83-.75,2.37-1.45,4.26Z" transform="translate(-2.54 -12.06)"/><path class="cls-1" d="M90.2,40.1h5c3.63,0,5.56,2.33,5.56,5.09a5.32,5.32,0,0,1-5.62,5.46H90.2Zm2.93,8.35h1.62c1.87,0,2.89-1,2.89-3.18,0-1.8-.86-3-2.87-3H93.13Z" transform="translate(-2.54 -12.06)"/><path class="cls-1" d="M111.42,46.33h-5.76v2.05h6.42l-.33,2.27h-9V40.1h9v2.27h-6.07v1.69h5.76Z" transform="translate(-2.54 -12.06)"/><path class="cls-1" d="M113.89,50.65V40.1h3.44c2.94,4.57,3.66,5.7,4.34,7h0c-.1-1-.09-3-.09-4.79V40.1h2.66V50.65H121c-.86-1.46-3.94-6.47-4.55-7.69h0c.09,1.28.09,2.76.09,4.67v3Z" transform="translate(-2.54 -12.06)"/><path class="cls-1" d="M129.45,42.35h-3.61V40.1H136v2.25h-3.59v8.3h-2.93Z" transform="translate(-2.54 -12.06)"/><path class="cls-1" d="M138.75,48.48,138,50.65h-3l4.14-10.55h3.78l4.38,10.55h-3.15l-.85-2.17Zm3.75-2.27c-.86-2.22-1.3-3.42-1.56-4.26h0c-.24.83-.75,2.37-1.45,4.26Z" transform="translate(-2.54 -12.06)"/><path class="cls-1" d="M148.54,40.1h2.92v8.28h5.78l-.37,2.27h-8.33Z" transform="translate(-2.54 -12.06)"/><path d="M37.83,54.36v3.11c0,.85.33,1.43,1.22,1.43s1.2-.55,1.2-1.43V54.36h.43v3.13c0,1-.41,1.78-1.64,1.78s-1.63-.58-1.63-1.73V54.36Z" transform="translate(-2.54 -12.06)"/><path d="M41.89,54.36h.41v4.47h2.35l-.07.37H41.89Z" transform="translate(-2.54 -12.06)"/><path d="M45.57,54.73H44.14v-.37h3.29v.37H46V59.2h-.42Z" transform="translate(-2.54 -12.06)"/><path d="M48.51,54.36V59.2h-.42V54.36Z" transform="translate(-2.54 -12.06)"/><path d="M53.62,57c0-.93,0-1.83,0-2.32h0c-.23.8-1.06,3.09-1.58,4.5h-.42c-.4-1.17-1.26-3.62-1.5-4.51h0c0,.56.05,1.65.05,2.49v2h-.4V54.36h.63c.56,1.58,1.29,3.69,1.47,4.32h0c.09-.39.95-2.74,1.54-4.32H54V59.2h-.42Z" transform="translate(-2.54 -12.06)"/><path d="M55.7,57.57l-.52,1.63h-.42c.43-1.27,1.1-3.4,1.58-4.84h.52l1.65,4.84h-.46l-.53-1.63Zm1.7-.37c-.45-1.37-.72-2.11-.81-2.47h0c-.14.57-.4,1.33-.77,2.47Z" transform="translate(-2.54 -12.06)"/><path d="M59.51,54.73H58.07v-.37h3.3v.37H59.93V59.2h-.42Z" transform="translate(-2.54 -12.06)"/><path d="M64.6,56.84H62.44v2h2.38l-.06.37H62V54.36h2.68v.37H62.44v1.73H64.6Z" transform="translate(-2.54 -12.06)"/><path d="M67.43,54.36h1.49a2,2,0,0,1,2,2.3c0,1.59-.78,2.54-2.16,2.54H67.43Zm.41,4.48h.94c1.2,0,1.76-.8,1.76-2.16s-.74-2-1.75-2h-1Z" transform="translate(-2.54 -12.06)"/><path d="M74.54,56.84H72.37v2h2.38l-.06.37H72V54.36h2.68v.37H72.37v1.73h2.17Z" transform="translate(-2.54 -12.06)"/><path d="M75.56,59.2V54.36h.57c2.11,3.67,2.38,4.12,2.47,4.33h0c0-.68,0-1.46,0-2.24V54.36H79V59.2h-.52C76.21,55.26,76.06,55,76,54.77h0c0,.63,0,1.44,0,2.31V59.2Z" transform="translate(-2.54 -12.06)"/><path d="M81.07,54.73H79.63v-.37h3.3v.37H81.49V59.2h-.42Z" transform="translate(-2.54 -12.06)"/><path d="M83.49,57.57,83,59.2h-.42c.43-1.27,1.11-3.4,1.59-4.84h.51l1.65,4.84h-.46l-.53-1.63Zm1.7-.37c-.45-1.37-.73-2.11-.81-2.47h0c-.13.57-.4,1.33-.76,2.47Z" transform="translate(-2.54 -12.06)"/><path d="M87,54.36h.41v4.47h2.35l-.07.37H87Z" transform="translate(-2.54 -12.06)"/><path d="M91.87,54.36h.42v2.1h2.43v-2.1h.41V59.2h-.41V56.83H92.29V59.2h-.42Z" transform="translate(-2.54 -12.06)"/><path d="M99,56.84H96.81v2h2.38l-.06.37H96.4V54.36h2.68v.37H96.81v1.73H99Z" transform="translate(-2.54 -12.06)"/><path d="M100.62,57.57l-.52,1.63h-.42c.43-1.27,1.1-3.4,1.58-4.84h.52l1.64,4.84H103l-.53-1.63Zm1.7-.37c-.45-1.37-.73-2.11-.81-2.47h0c-.14.57-.4,1.33-.77,2.47Z" transform="translate(-2.54 -12.06)"/><path d="M104.14,54.36h.42v4.47h2.35l-.07.37h-2.7Z" transform="translate(-2.54 -12.06)"/><path d="M107.83,54.73h-1.44v-.37h3.3v.37h-1.44V59.2h-.42Z" transform="translate(-2.54 -12.06)"/><path d="M110.35,54.36h.41v2.1h2.44v-2.1h.41V59.2h-.41V56.83h-2.44V59.2h-.41Z" transform="translate(-2.54 -12.06)"/><path d="M116.6,57.87a1.1,1.1,0,0,0,1.18,1,.93.93,0,0,0,1-1c0-.58-.24-.83-1.14-1.13s-1.33-.62-1.33-1.31a1.23,1.23,0,0,1,1.39-1.21,1.3,1.3,0,0,1,1.42,1.26h-.41a1,1,0,0,0-1-.89c-.63,0-.93.32-.93.8s.25.72,1.06,1c1.14.36,1.41.8,1.41,1.46a1.33,1.33,0,0,1-1.5,1.35,1.43,1.43,0,0,1-1.58-1.38Z" transform="translate(-2.54 -12.06)"/><path d="M122.73,56.84h-2.16v2H123l-.07.37h-2.72V54.36h2.68v.37h-2.27v1.73h2.16Z" transform="translate(-2.54 -12.06)"/><path d="M124.38,57.57l-.52,1.63h-.43c.43-1.27,1.11-3.4,1.59-4.84h.52l1.64,4.84h-.45l-.53-1.63Zm1.7-.37c-.45-1.37-.73-2.11-.81-2.47h0c-.13.57-.39,1.33-.76,2.47Z" transform="translate(-2.54 -12.06)"/><path d="M128.32,56.9v2.3h-.42V54.36h1.55c.83,0,1.39.41,1.39,1.22a1.08,1.08,0,0,1-.8,1.13c.51.15.74.56.74,1.25V58a5.57,5.57,0,0,0,.07,1.16h-.42a4.87,4.87,0,0,1-.08-1.15V58c0-.74-.26-1.06-1.12-1.06Zm0-.36h.94c.7,0,1.14-.22,1.14-.95,0-.55-.35-.87-1-.87h-1.08Z" transform="translate(-2.54 -12.06)"/><path d="M135.14,57.85a1.6,1.6,0,0,1-1.68,1.42c-1.36,0-1.85-1.09-1.85-2.54,0-1.24.55-2.44,1.88-2.44a1.53,1.53,0,0,1,1.63,1.44h-.43a1.16,1.16,0,0,0-1.21-1.07c-1,0-1.44,1-1.44,2.08s.32,2.16,1.43,2.16a1.22,1.22,0,0,0,1.25-1Z" transform="translate(-2.54 -12.06)"/><path d="M136,54.36h.41v2.1h2.43v-2.1h.42V59.2h-.42V56.83h-2.43V59.2H136Z" transform="translate(-2.54 -12.06)"/><path d="M142.18,54.36h1.52c.88,0,1.47.47,1.47,1.29S144.56,57,143.62,57h-1V59.2h-.42Zm.42,2.3h1c.67,0,1.13-.24,1.13-1s-.45-.94-1.13-.94h-1Z" transform="translate(-2.54 -12.06)"/><path d="M146,54.36h.42v4.47h2.35l-.07.37H146Z" transform="translate(-2.54 -12.06)"/><path d="M150.12,57.57l-.52,1.63h-.43c.43-1.27,1.11-3.4,1.59-4.84h.51l1.65,4.84h-.45l-.54-1.63Zm1.7-.37c-.45-1.37-.73-2.11-.81-2.47h0c-.13.57-.4,1.33-.76,2.47Z" transform="translate(-2.54 -12.06)"/><path d="M153.92,54.73h-1.43v-.37h3.29v.37h-1.44V59.2h-.42Z" transform="translate(-2.54 -12.06)"/><path d="M156.45,54.36h2.65v.37h-2.24v1.78H159v.37h-2.1V59.2h-.41Z" transform="translate(-2.54 -12.06)"/><path d="M163.55,56.75c0,1.4-.6,2.52-1.94,2.52s-1.91-1-1.91-2.51c0-1.33.65-2.47,2-2.47S163.55,55.29,163.55,56.75Zm-3.41,0c0,1.24.48,2.16,1.5,2.16s1.49-.92,1.49-2.15-.48-2.09-1.49-2.09S160.14,55.58,160.14,56.74Z" transform="translate(-2.54 -12.06)"/><path d="M165,56.9v2.3h-.42V54.36h1.56c.82,0,1.38.41,1.38,1.22a1.08,1.08,0,0,1-.8,1.13c.51.15.74.56.74,1.25V58a5.57,5.57,0,0,0,.07,1.16h-.42a4.87,4.87,0,0,1-.08-1.15V58c0-.74-.26-1.06-1.12-1.06Zm0-.36h.94c.7,0,1.14-.22,1.14-.95,0-.55-.34-.87-1-.87H165Z" transform="translate(-2.54 -12.06)"/><path d="M172.38,57c0-.93,0-1.83,0-2.32h0c-.23.8-1.06,3.09-1.58,4.5h-.42c-.4-1.17-1.25-3.62-1.5-4.51h0c0,.56,0,1.65,0,2.49v2h-.4V54.36h.63c.56,1.58,1.29,3.69,1.47,4.32h0c.09-.39,1-2.74,1.54-4.32h.62V59.2h-.41Z" transform="translate(-2.54 -12.06)"/></svg>