<svg id="Layer_1" data-name="Layer 1" xmlns="http://www.w3.org/2000/svg" viewBox="0 0 923 760.74"><defs><style>.cls-1{fill:#ffd54b;}.cls-2{fill:#ffbe19;}.cls-3{fill:#ffcb1e;}.cls-4{fill:#ffe078;}.cls-5{fill:#fff5d2;}.cls-6{fill:#ffeaa5;}.cls-7{fill:#ffe89b;}.cls-8{fill:#64ab1f;}.cls-9{fill:#fff5d3;}.cls-10{fill:#524a41;}.cls-11{fill:#636363;}.cls-12{fill:#f7d7c7;}.cls-13{fill:#545454;}.cls-14{fill:#373737;}.cls-15{fill:#424242;}.cls-16{fill:#fff;}.cls-17{fill:#ff6654;}.cls-18{fill:#ff4d38;}</style></defs><title>money</title><rect class="cls-1" x="693" y="640.74" width="230" height="60"/><rect class="cls-2" x="823" y="660.74" width="20" height="40"/><rect class="cls-2" x="773" y="660.74" width="20" height="40"/><rect class="cls-2" x="723" y="660.74" width="20" height="40"/><rect class="cls-2" x="873" y="660.74" width="20" height="40"/><rect class="cls-3" x="683" y="700.74" width="230" height="60"/><rect class="cls-2" x="813" y="720.74" width="20" height="40"/><rect class="cls-2" x="763" y="720.74" width="20" height="40"/><rect class="cls-2" x="713" y="720.74" width="20" height="40"/><rect class="cls-2" x="863" y="720.74" width="20" height="40"/><rect class="cls-1" x="355" y="520.74" width="230" height="60"/><rect class="cls-2" x="485" y="540.74" width="20" height="40"/><rect class="cls-2" x="435" y="540.74" width="20" height="40"/><rect class="cls-2" x="385" y="540.74" width="20" height="40"/><rect class="cls-2" x="535" y="540.74" width="20" height="40"/><rect class="cls-3" x="325" y="580.74" width="230" height="60"/><rect class="cls-2" x="455" y="600.74" width="20" height="40"/><rect class="cls-2" x="405" y="600.74" width="20" height="40"/><rect class="cls-2" x="355" y="600.74" width="20" height="40"/><rect class="cls-2" x="505" y="600.74" width="20" height="40"/><rect class="cls-3" x="340" y="460.74" width="230" height="60"/><rect class="cls-2" x="470" y="480.74" width="20" height="40"/><rect class="cls-2" x="420" y="480.74" width="20" height="40"/><rect class="cls-2" x="370" y="480.74" width="20" height="40"/><rect class="cls-2" x="520" y="480.74" width="20" height="40"/><rect class="cls-1" x="355" y="640.74" width="230" height="60"/><rect class="cls-2" x="485" y="660.74" width="20" height="40"/><rect class="cls-2" x="435" y="660.74" width="20" height="40"/><rect class="cls-2" x="385" y="660.74" width="20" height="40"/><rect class="cls-2" x="535" y="660.74" width="20" height="40"/><rect class="cls-3" x="345" y="700.74" width="230" height="60"/><rect class="cls-2" x="475" y="720.74" width="20" height="40"/><rect class="cls-2" x="425" y="720.74" width="20" height="40"/><rect class="cls-2" x="375" y="720.74" width="20" height="40"/><rect class="cls-2" x="525" y="720.74" width="20" height="40"/><rect class="cls-3" y="580.74" width="230" height="60"/><rect class="cls-2" x="130" y="600.74" width="20" height="40"/><rect class="cls-2" x="80" y="600.74" width="20" height="40"/><rect class="cls-2" x="30" y="600.74" width="20" height="40"/><rect class="cls-2" x="180" y="600.74" width="20" height="40"/><rect class="cls-1" x="30" y="640.74" width="230" height="60"/><rect class="cls-2" x="160" y="660.74" width="20" height="40"/><rect class="cls-2" x="110" y="660.74" width="20" height="40"/><rect class="cls-2" x="60" y="660.74" width="20" height="40"/><rect class="cls-2" x="210" y="660.74" width="20" height="40"/><rect class="cls-3" x="20" y="700.74" width="230" height="60"/><rect class="cls-2" x="150" y="720.74" width="20" height="40"/><rect class="cls-2" x="100" y="720.74" width="20" height="40"/><rect class="cls-2" x="50" y="720.74" width="20" height="40"/><rect class="cls-2" x="200" y="720.74" width="20" height="40"/><rect class="cls-4" x="218.33" y="610.74" width="191.67" height="50"/><rect class="cls-5" x="326.67" y="627.41" width="16.67" height="33.33"/><rect class="cls-5" x="285" y="627.41" width="16.67" height="33.33"/><rect class="cls-5" x="243.33" y="627.41" width="16.67" height="33.33"/><rect class="cls-5" x="368.33" y="627.41" width="16.67" height="33.33"/><rect class="cls-6" x="193.33" y="560.74" width="191.67" height="50"/><rect class="cls-5" x="301.67" y="577.41" width="16.67" height="33.33"/><rect class="cls-5" x="260" y="577.41" width="16.67" height="33.33"/><rect class="cls-5" x="218.33" y="577.41" width="16.67" height="33.33"/><rect class="cls-5" x="343.33" y="577.41" width="16.67" height="33.33"/><rect class="cls-6" x="201.67" y="660.74" width="191.67" height="50"/><rect class="cls-5" x="310" y="677.41" width="16.67" height="33.33"/><rect class="cls-5" x="268.33" y="677.41" width="16.67" height="33.33"/><rect class="cls-5" x="226.67" y="677.41" width="16.67" height="33.33"/><rect class="cls-5" x="351.67" y="677.41" width="16.67" height="33.33"/><rect class="cls-4" x="176.67" y="710.74" width="191.67" height="50"/><rect class="cls-5" x="285" y="727.41" width="16.67" height="33.33"/><rect class="cls-5" x="243.33" y="727.41" width="16.67" height="33.33"/><rect class="cls-5" x="201.67" y="727.41" width="16.67" height="33.33"/><rect class="cls-5" x="326.67" y="727.41" width="16.67" height="33.33"/><rect class="cls-4" x="549" y="604.74" width="199.33" height="52"/><rect class="cls-5" x="661.67" y="622.07" width="17.33" height="34.67"/><rect class="cls-5" x="618.33" y="622.07" width="17.33" height="34.67"/><rect class="cls-5" x="575" y="622.07" width="17.33" height="34.67"/><rect class="cls-5" x="705" y="622.07" width="17.33" height="34.67"/><rect class="cls-4" x="549" y="500.74" width="199.33" height="52"/><rect class="cls-5" x="661.67" y="518.07" width="17.33" height="34.67"/><rect class="cls-5" x="618.33" y="518.07" width="17.33" height="34.67"/><rect class="cls-5" x="575" y="518.07" width="17.33" height="34.67"/><rect class="cls-5" x="705" y="518.07" width="17.33" height="34.67"/><rect class="cls-6" x="523" y="552.74" width="199.33" height="52"/><rect class="cls-5" x="635.67" y="570.07" width="17.33" height="34.67"/><rect class="cls-5" x="592.33" y="570.07" width="17.33" height="34.67"/><rect class="cls-5" x="549" y="570.07" width="17.33" height="34.67"/><rect class="cls-5" x="679" y="570.07" width="17.33" height="34.67"/><rect class="cls-6" x="531.67" y="656.74" width="199.33" height="52"/><rect class="cls-5" x="644.33" y="674.07" width="17.33" height="34.67"/><rect class="cls-5" x="601" y="674.07" width="17.33" height="34.67"/><rect class="cls-5" x="557.67" y="674.07" width="17.33" height="34.67"/><rect class="cls-5" x="687.67" y="674.07" width="17.33" height="34.67"/><rect class="cls-4" x="557.67" y="708.74" width="199.33" height="52"/><rect class="cls-5" x="670.33" y="726.07" width="17.33" height="34.67"/><rect class="cls-5" x="627" y="726.07" width="17.33" height="34.67"/><rect class="cls-5" x="583.67" y="726.07" width="17.33" height="34.67"/><rect class="cls-5" x="713.67" y="726.07" width="17.33" height="34.67"/><circle class="cls-7" cx="260.78" cy="182.72" r="24"/><circle class="cls-3" cx="260.78" cy="182.72" r="20.8"/><path class="cls-7" d="M306.83,232.24c5.06-5.06-1.67-13.15,2-16.8a1.84,1.84,0,0,1,1.82-.39,3.27,3.27,0,0,1,2.37,2.37,1.83,1.83,0,0,1-.4,1.82l-.73.73,3.58,3.59L316,223c2.45-2.45,2.56-5.41.15-8.56l2.36-2.36-.29-.28L316,209.54l-.28-.29-2.37,2.37c-3.12-2.35-6.05-2.22-8.48.21-5.06,5,1.67,13.15-2,16.79a2.11,2.11,0,0,1-2.45.14,3.34,3.34,0,0,1-1.61-1.62,2.11,2.11,0,0,1,.13-2.45l1.26-1.26-3.58-3.59-1.09,1.09c-2.45,2.44-2.53,5.42-.11,8.59l-2.36,2.36.28.28,2.27,2.27.28.28,2.36-2.36C301.4,234.77,304.39,234.69,306.83,232.24Z" transform="translate(-45 -39.26)"/><circle class="cls-7" cx="80" cy="79" r="20" transform="translate(-62.01 96.57) rotate(-75)"/><path class="cls-3" d="M95,70.33A17.33,17.33,0,1,1,71.33,64,17.35,17.35,0,0,1,95,70.33Z" transform="translate(-45 -39.26)"/><path class="cls-7" d="M88.48,80.36c-3-5.16-11-1.48-13.09-5.2a1.51,1.51,0,0,1,.08-1.55,2.74,2.74,0,0,1,2.41-1.4,1.53,1.53,0,0,1,1.38.71l.43.75,3.66-2.11L83,71c-1.44-2.5-3.8-3.22-6.85-2l-1.39-2.41-.29.17-2.31,1.33-.29.17,1.4,2.41c-2.56,2-3.1,4.4-1.67,6.88,3,5.16,10.95,1.48,13.1,5.2a1.76,1.76,0,0,1-.43,2,2.73,2.73,0,0,1-1.64,1,1.74,1.74,0,0,1-1.94-.63L80,83.81,76.3,85.92,76.94,87c1.44,2.49,3.82,3.2,6.89,1.94l1.39,2.41.29-.17,2.31-1.33.29-.17L86.72,87.3C89.35,85.28,89.92,82.86,88.48,80.36Z" transform="translate(-45 -39.26)"/><circle class="cls-7" cx="331.04" cy="86.19" r="20" transform="translate(-34.91 165.29) rotate(-34.84)"/><path class="cls-3" d="M346.05,77.53a17.33,17.33,0,1,1-23.68-6.34A17.33,17.33,0,0,1,346.05,77.53Z" transform="translate(-45 -39.26)"/><path class="cls-7" d="M339.52,87.56c-3-5.16-10.95-1.49-13.09-5.21a1.51,1.51,0,0,1,.08-1.55,2.71,2.71,0,0,1,2.41-1.39,1.51,1.51,0,0,1,1.38.71l.43.75,3.66-2.11-.33-.57c-1.44-2.5-3.8-3.23-6.85-2l-1.39-2.4-.29.16-2.31,1.34-.29.16,1.39,2.42c-2.56,2-3.09,4.39-1.66,6.87,3,5.16,10.95,1.49,13.1,5.2a1.78,1.78,0,0,1-.43,2,2.72,2.72,0,0,1-1.64.94,1.76,1.76,0,0,1-1.95-.63L331,91l-3.66,2.11.64,1.11c1.44,2.5,3.82,3.21,6.89,1.94l1.39,2.41.29-.16,2.31-1.34.29-.16-1.39-2.41C340.39,92.47,341,90.05,339.52,87.56Z" transform="translate(-45 -39.26)"/><rect class="cls-8" x="161.82" y="443.05" width="55.11" height="106.29" transform="translate(-380.03 372.84) rotate(-60)"/><rect class="cls-9" x="165.76" y="446.99" width="47.24" height="98.41" transform="translate(-380.03 372.84) rotate(-60)"/><path class="cls-8" d="M239,493a11.81,11.81,0,0,0,4.32,16.13l5.91-10.23Z" transform="translate(-45 -39.26)"/><path class="cls-8" d="M227.53,536.4a11.81,11.81,0,0,0-16.13,4.32l10.22,5.91Z" transform="translate(-45 -39.26)"/><path class="cls-8" d="M139.8,499.39a11.81,11.81,0,0,0-4.32-16.13l-5.9,10.22Z" transform="translate(-45 -39.26)"/><path class="cls-8" d="M151.23,456a11.81,11.81,0,0,0,16.13-4.33l-10.23-5.9Z" transform="translate(-45 -39.26)"/><path class="cls-8" d="M179.54,513.24A19.68,19.68,0,1,1,206.42,506,19.69,19.69,0,0,1,179.54,513.24Z" transform="translate(-45 -39.26)"/><path class="cls-9" d="M193,505.68c3.52-6.1-4.94-12.08-2.41-16.47a1.79,1.79,0,0,1,1.64-.84,3.22,3.22,0,0,1,2.85,1.65,1.79,1.79,0,0,1,.08,1.83l-.51.88,4.33,2.5.38-.67c1.71-3,1.05-5.8-2-8.18l1.64-2.84-.34-.2-2.72-1.57-.34-.2-1.65,2.85c-3.56-1.43-6.32-.57-8,2.36-3.52,6.1,4.94,12.08,2.41,16.47a2.09,2.09,0,0,1-2.3.75,3.24,3.24,0,0,1-1.94-1.12,2.08,2.08,0,0,1-.5-2.37l.88-1.52-4.33-2.5-.75,1.31c-1.7,2.95-1,5.81,2.08,8.2l-1.64,2.85.34.19,2.73,1.58.34.19,1.64-2.84C188.48,509.46,191.29,508.62,193,505.68Z" transform="translate(-45 -39.26)"/><circle class="cls-7" cx="857" cy="170.74" r="24"/><circle class="cls-3" cx="857" cy="170.74" r="20.8"/><path class="cls-7" d="M901,199.74c-5.06,5.06,1.67,13.16-2,16.8a1.8,1.8,0,0,1-1.82.39,3.28,3.28,0,0,1-2.37-2.36,1.84,1.84,0,0,1,.4-1.83l.73-.73-3.58-3.59-.56.56c-2.45,2.45-2.56,5.42-.15,8.56l-2.36,2.36.28.28,2.27,2.27.28.28,2.37-2.37c3.11,2.35,6,2.23,8.48-.2,5.06-5.06-1.68-13.16,2-16.8a2.09,2.09,0,0,1,2.45-.13,3.28,3.28,0,0,1,1.61,1.61,2.11,2.11,0,0,1-.13,2.45l-1.27,1.26,3.59,3.59,1.09-1.09c2.44-2.44,2.53-5.42.11-8.59l2.36-2.36-.28-.28-2.27-2.27-.28-.28-2.36,2.36C906.37,197.21,903.39,197.3,901,199.74Z" transform="translate(-45 -39.26)"/><circle class="cls-7" cx="890.4" cy="102.92" r="20" transform="translate(641.9 936.58) rotate(-83.47)"/><circle class="cls-3" cx="890.4" cy="102.92" r="17.33" transform="translate(-50.93 62.25) rotate(-6.5)"/><path class="cls-7" d="M889,111.4c5.16-3,1.49-11,5.2-13.09a1.53,1.53,0,0,1,1.56.08,2.71,2.71,0,0,1,1.39,2.41,1.51,1.51,0,0,1-.71,1.38l-.75.43,2.11,3.66.57-.33c2.5-1.44,3.23-3.8,2-6.85l2.4-1.39-.16-.29-1.34-2.31-.16-.29-2.42,1.4c-2-2.56-4.39-3.1-6.87-1.67-5.16,3-1.49,10.95-5.21,13.1a1.76,1.76,0,0,1-2-.43,2.73,2.73,0,0,1-1-1.64,1.76,1.76,0,0,1,.64-1.94l1.29-.75-2.12-3.66-1.1.64c-2.5,1.44-3.21,3.82-2,6.89l-2.4,1.39.16.29,1.34,2.31.16.29,2.41-1.39C884.13,112.27,886.55,112.84,889,111.4Z" transform="translate(-45 -39.26)"/><circle class="cls-7" cx="726.5" cy="250.81" r="27.5" transform="translate(256.99 852.25) rotate(-75.52)"/><circle class="cls-3" cx="726.5" cy="250.81" r="23.83" transform="translate(-73.07 357.59) rotate(-30)"/><path class="cls-7" d="M736.08,243.89c-7.92-2.12-12.1,9.2-17.79,7.67a2.09,2.09,0,0,1-1.44-1.59,3.76,3.76,0,0,1,1-3.7,2.1,2.1,0,0,1,2-.65l1.15.31,1.5-5.61-.87-.24c-3.84-1-6.84.57-8.58,4.76l-3.69-1-.12.44-.95,3.55-.12.44,3.71,1c-.55,4.44,1.26,7.28,5.06,8.3,7.92,2.12,12.09-9.2,17.79-7.67a2.41,2.41,0,0,1,1.54,2.35,3.8,3.8,0,0,1-.68,2.53,2.42,2.42,0,0,1-2.51,1.27l-2-.53-1.51,5.62,1.7.45c3.83,1,6.83-.6,8.59-4.81l3.69,1,.12-.45.95-3.54.12-.44-3.69-1C741.69,247.82,739.9,244.91,736.08,243.89Z" transform="translate(-45 -39.26)"/><circle class="cls-7" cx="119.42" cy="327.97" r="27.5" transform="translate(-108.21 -8.73) rotate(-11.54)"/><circle class="cls-3" cx="119.42" cy="327.97" r="23.83" transform="translate(-57.45 -34.46) rotate(-2.19)"/><path class="cls-7" d="M129,321.05c-7.92-2.12-12.09,9.2-17.79,7.67a2.09,2.09,0,0,1-1.44-1.59,3.76,3.76,0,0,1,1-3.7,2.11,2.11,0,0,1,2-.65l1.15.31,1.5-5.61-.87-.24c-3.84-1-6.84.57-8.58,4.76l-3.69-1-.12.44-1,3.55-.11.44,3.7,1c-.54,4.44,1.26,7.28,5.06,8.3,7.92,2.12,12.1-9.2,17.79-7.67a2.41,2.41,0,0,1,1.54,2.35,3.8,3.8,0,0,1-.68,2.53,2.41,2.41,0,0,1-2.5,1.27l-2-.53-1.51,5.62,1.7.45c3.83,1,6.84-.6,8.59-4.81l3.7,1,.12-.45.94-3.54.12-.44-3.69-1C134.62,325,132.82,322.07,129,321.05Z" transform="translate(-45 -39.26)"/><rect class="cls-8" x="826.32" y="334.94" width="68.89" height="132.86" transform="translate(205.29 1089.66) rotate(-75)"/><rect class="cls-9" x="831.24" y="339.86" width="59.04" height="123.02" transform="translate(205.29 1089.66) rotate(-75)"/><path class="cls-8" d="M919.59,381.47A14.76,14.76,0,0,0,930,399.55l3.82-14.26Z" transform="translate(-45 -39.26)"/><path class="cls-8" d="M919.84,437.57A14.76,14.76,0,0,0,901.76,448L916,451.83Z" transform="translate(-45 -39.26)"/><path class="cls-8" d="M801.94,421.26a14.76,14.76,0,0,0-10.43-18.08l-3.83,14.26Z" transform="translate(-45 -39.26)"/><path class="cls-8" d="M801.69,365.16a14.76,14.76,0,0,0,18.08-10.43l-14.26-3.82Z" transform="translate(-45 -39.26)"/><circle class="cls-8" cx="860.76" cy="401.37" r="24.6" transform="translate(-76.7 686.95) rotate(-45)"/><path class="cls-9" d="M868.2,411.65c2.28-8.5-9.88-13-8.24-19.11a2.26,2.26,0,0,1,1.7-1.54,4.05,4.05,0,0,1,4,1.07,2.26,2.26,0,0,1,.7,2.18l-.34,1.24,6,1.61.25-.94c1.1-4.11-.61-7.34-5.11-9.21l1.07-4-.48-.12-3.8-1-.48-.13-1.06,4c-4.77-.58-7.82,1.36-8.91,5.44-2.28,8.5,9.87,13,8.23,19.11a2.61,2.61,0,0,1-2.53,1.65,4,4,0,0,1-2.7-.73,2.58,2.58,0,0,1-1.37-2.69l.57-2.13-6-1.61-.49,1.82c-1.1,4.11.64,7.34,5.17,9.23l-1.07,4,.48.13,3.8,1,.48.13,1.06-4C864,417.68,867.1,415.76,868.2,411.65Z" transform="translate(-45 -39.26)"/><path class="cls-8" d="M665,122.77,708.23,166c14.87-40.81,68.64-42.7,83.51-83.51L748.51,39.26C733.64,80.07,679.87,82,665,122.77Z" transform="translate(-45 -39.26)"/><path class="cls-9" d="M786.84,83.78C770.51,119,723.29,123.32,707,158.53l-37.05-37c16.33-35.22,63.55-39.54,79.89-74.75Z" transform="translate(-45 -39.26)"/><path class="cls-8" d="M742.22,51.53c5.08,5.08,12.81,4.51,15.55-3q-4.63-4.62-9.26-9.26A55.58,55.58,0,0,1,742.22,51.53Z" transform="translate(-45 -39.26)"/><path class="cls-8" d="M782.48,73.23c-2.74,7.51-2.18,16.38,3,21.53a54.94,54.94,0,0,0,6.29-12.27Q787.11,77.87,782.48,73.23Z" transform="translate(-45 -39.26)"/><path class="cls-8" d="M714.52,153.73c-5.08-5.08-12.81-4.51-15.55,3l9.26,9.26A55.58,55.58,0,0,1,714.52,153.73Z" transform="translate(-45 -39.26)"/><path class="cls-8" d="M674.26,132c2.74-7.51,2.18-16.38-3-21.53A54.94,54.94,0,0,0,665,122.77Q669.64,127.39,674.26,132Z" transform="translate(-45 -39.26)"/><path class="cls-8" d="M743.81,118.07c-10.65,6.44-25.54,5.39-34-3.08s-7.52-21.37,3.13-27.8,25.54-5.39,34,3.08S754.46,111.64,743.81,118.07Z" transform="translate(-45 -39.26)"/><path class="cls-9" d="M741,102.88c-5.5-5.5-16.23,0-20.21-4a1.51,1.51,0,0,1-.25-1.81,3.87,3.87,0,0,1,3.19-2,2.65,2.65,0,0,1,2.17.61l.81.81c1.6-1,3.21-2,4.8-3l-.61-.61c-2.68-2.68-6.25-3.12-10.39-1.2l-2.58-2.57-.38.24-3,1.9-.38.23,2.58,2.59c-3.26,2.71-3.45,5.59-.8,8.24,5.49,5.5,16.23,0,20.21,4,.77.78.36,1.71-.15,2.39a4,4,0,0,1-2.18,1.35,3.1,3.1,0,0,1-3-.44l-1.38-1.38-4.81,3,1.19,1.19c2.67,2.67,6.27,3.1,10.44,1.16l2.58,2.58.38-.24,3-1.9.38-.23-2.58-2.58C743.41,108.47,743.66,105.55,741,102.88Z" transform="translate(-45 -39.26)"/><path class="cls-8" d="M137.76,145.56l15.82,59.05c33.28-27.9,80.8-2.65,114.08-30.56L251.83,115C218.55,142.9,171,117.65,137.76,145.56Z" transform="translate(-45 -39.26)"/><path class="cls-9" d="M262.77,172.72C231,195.05,188,175.18,156.21,197.51l-13.57-50.62c31.76-22.33,74.81-2.46,106.57-24.79Z" transform="translate(-45 -39.26)"/><path class="cls-8" d="M240.25,122.47c1.86,6.94,8.85,10.31,15,5.18L251.83,115A55.23,55.23,0,0,1,240.25,122.47Z" transform="translate(-45 -39.26)"/><path class="cls-8" d="M264.26,161.39c-6.12,5.14-10.07,13.1-8.18,20.14a55.63,55.63,0,0,0,11.58-7.48Q266,167.72,264.26,161.39Z" transform="translate(-45 -39.26)"/><path class="cls-8" d="M165.16,197.14c-1.86-6.94-8.84-10.32-15-5.18l3.39,12.65A55.18,55.18,0,0,1,165.16,197.14Z" transform="translate(-45 -39.26)"/><path class="cls-8" d="M141.15,158.21c6.13-5.13,10.08-13.09,8.19-20.13a55.23,55.23,0,0,0-11.58,7.48Z" transform="translate(-45 -39.26)"/><path class="cls-8" d="M208.36,180.9c-12.44.24-24.81-8.11-27.91-19.68-3.15-11.73,4.17-22.26,16.61-22.51s24.81,8.11,27.91,19.68C228.11,170.12,220.79,180.65,208.36,180.9Z" transform="translate(-45 -39.26)"/><path class="cls-9" d="M213.51,166.33c-2-7.51-14-8.12-15.5-13.56a1.47,1.47,0,0,1,.69-1.69,3.81,3.81,0,0,1,3.75-.13,2.67,2.67,0,0,1,1.58,1.62c.09.36.19.73.29,1.09,1.89-.06,3.79-.14,5.68-.22-.08-.28-.15-.56-.22-.84-1-3.65-3.86-5.83-8.41-6.23-.31-1.17-.63-2.34-.94-3.52l-.45,0-3.59.12h-.45c.32,1.18.63,2.36.95,3.53-4.18.72-5.79,3.12-4.82,6.74,2,7.51,14.05,8.12,15.5,13.56.29,1.06-.54,1.66-1.32,2a4,4,0,0,1-2.56.09,3.11,3.11,0,0,1-2.35-1.87l-.51-1.88c-1.9.06-3.79.14-5.68.23.14.54.29,1.08.43,1.62,1,3.64,3.88,5.81,8.46,6.22.32,1.18.63,2.35.94,3.52h.45l3.59-.12.45,0c-.31-1.17-.63-2.34-.94-3.52C212.81,172.38,214.49,170,213.51,166.33Z" transform="translate(-45 -39.26)"/><path class="cls-10" d="M480,450h40a60,60,0,0,1,60,60v0a0,0,0,0,1,0,0H420a0,0,0,0,1,0,0v0A60,60,0,0,1,480,450Z" transform="translate(955 920.74) rotate(180)"/><path class="cls-11" d="M459.23,340.14l-.41.41a105.41,105.41,0,0,1-149.08,0h0c-5.08-5.08-6-13.3-1.54-18.94a14,14,0,0,1,20.93-1.27l.41.41a77.42,77.42,0,0,0,109.48,0l0,0c5.06-5.06,13.22-5.95,18.86-1.54A14,14,0,0,1,459.23,340.14Z" transform="translate(-45 -39.26)"/><circle class="cls-12" cx="274.33" cy="290.98" r="18"/><path class="cls-13" d="M540.77,340.14l.41.41a105.41,105.41,0,0,0,149.08,0h0c5.08-5.08,6-13.3,1.54-18.94a14,14,0,0,0-20.93-1.27l-.41.41a77.42,77.42,0,0,1-109.48,0l0,0c-5.06-5.06-13.22-5.95-18.86-1.54A14,14,0,0,0,540.77,340.14Z" transform="translate(-45 -39.26)"/><circle class="cls-12" cx="635.67" cy="290.98" r="18"/><path class="cls-14" d="M519,581.55h60a0,0,0,0,1,0,0v24a0,0,0,0,1,0,0H535a16,16,0,0,1-16-16v-8A0,0,0,0,1,519,581.55Z" transform="translate(613.19 1355.36) rotate(-145)"/><path class="cls-15" d="M625.86,470h0a22,22,0,0,0-30.64,5.4l-63.85,91.2,36,25.24,63.86-91.2A22,22,0,0,0,625.86,470Z" transform="translate(-45 -39.26)"/><path class="cls-14" d="M436.29,581.55h44a0,0,0,0,1,0,0v24a0,0,0,0,1,0,0h-60a0,0,0,0,1,0,0v-8A16,16,0,0,1,436.29,581.55Z" transform="translate(-304.01 326.36) rotate(-35)"/><path class="cls-15" d="M373.38,470h0a22,22,0,0,1,30.64,5.4l63.86,91.2-36,25.24L368,500.62A22,22,0,0,1,373.38,470Z" transform="translate(-45 -39.26)"/><path class="cls-13" d="M580,358a48,48,0,0,0-48-48H500V450h80Z" transform="translate(-45 -39.26)"/><path class="cls-11" d="M468,310a48,48,0,0,0-48,48v92h80V310Z" transform="translate(-45 -39.26)"/><polygon class="cls-16" points="455 330.74 455 330.74 479 270.74 431 270.74 455 330.74"/><polygon class="cls-17" points="448.33 290.74 461.67 290.74 467 270.74 443 270.74 448.33 290.74"/><polygon class="cls-18" points="455 330.74 464.32 307.45 461.67 290.74 448.33 290.74 445.68 307.45 455 330.74"/><path class="cls-15" d="M480,450h40a60,60,0,0,1,60,60v0a0,0,0,0,1,0,0H420a0,0,0,0,1,0,0v0A60,60,0,0,1,480,450Z" transform="translate(955 920.74) rotate(-180)"/><circle class="cls-14" cx="455" cy="162.74" r="104"/><circle class="cls-12" cx="369" cy="202.74" r="22"/><circle class="cls-12" cx="541" cy="202.74" r="22"/><polygon class="cls-15" points="413 283.6 421.19 270.74 431 270.74 455 330.74 420.17 313.6 428.37 300.74 413 283.6"/><polygon class="cls-15" points="497 283.6 488.8 270.74 479 270.74 455 330.74 489.83 313.6 481.63 300.74 497 283.6"/><circle class="cls-12" cx="455" cy="186.74" r="92"/><path class="cls-14" d="M456,231a12,12,0,0,0-12,12h24A12,12,0,0,0,456,231Z" transform="translate(-45 -39.26)"/><path class="cls-14" d="M544,231a12,12,0,0,0-12,12h24A12,12,0,0,0,544,231Z" transform="translate(-45 -39.26)"/><path class="cls-18" d="M516,278a16,16,0,0,1-32,0Z" transform="translate(-45 -39.26)"/><path class="cls-14" d="M355,58.74H455a100,100,0,0,1,100,100v0a0,0,0,0,1,0,0H427a72,72,0,0,1-72-72v-28A0,0,0,0,1,355,58.74Z"/><circle class="cls-13" cx="442" cy="344.74" r="6"/><circle class="cls-13" cx="442" cy="380.74" r="6"/><path class="cls-15" d="M636,488h0a22,22,0,0,0-22-22H476v44H614A22,22,0,0,0,636,488Z" transform="translate(-45 -39.26)"/><path class="cls-15" d="M364,488h0a22,22,0,0,1,22-22H524v44H386A22,22,0,0,1,364,488Z" transform="translate(-45 -39.26)"/></svg>