<?xml version="1.0" encoding="UTF-8"?>
<!DOCTYPE svg PUBLIC "-//W3C//DTD SVG 1.1//EN" "http://www.w3.org/Graphics/SVG/1.1/DTD/svg11.dtd">
<svg xmlns="http://www.w3.org/2000/svg" version="1.1" width="512px" height="512px" style="shape-rendering:geometricPrecision; text-rendering:geometricPrecision; image-rendering:optimizeQuality; fill-rule:evenodd; clip-rule:evenodd" xmlns:xlink="http://www.w3.org/1999/xlink">
<g><path style="opacity:0.998" fill="#361272" d="M 246.5,31.5 C 257.74,30.213 268.406,32.0464 278.5,37C 293.008,46.8329 306.342,58.1662 318.5,71C 324.751,76.531 332.084,79.531 340.5,80C 356.237,80.0465 371.903,81.0465 387.5,83C 408.044,87.2117 421.211,99.3784 427,119.5C 428.718,126.394 429.718,133.394 430,140.5C 430.333,150.833 430.667,161.167 431,171.5C 431.677,179.542 434.677,186.542 440,192.5C 452.12,204.28 463.12,216.947 473,230.5C 482.199,248.57 481.533,266.236 471,283.5C 461.41,295.761 451.076,307.428 440,318.5C 434.469,324.751 431.469,332.084 431,340.5C 430.953,356.237 429.953,371.903 428,387.5C 423.788,408.044 411.622,421.211 391.5,427C 384.606,428.718 377.606,429.718 370.5,430C 360.167,430.333 349.833,430.667 339.5,431C 331.458,431.677 324.458,434.677 318.5,440C 306.72,452.12 294.053,463.12 280.5,473C 262.43,482.199 244.764,481.533 227.5,471C 215.239,461.41 203.572,451.076 192.5,440C 186.249,434.469 178.916,431.469 170.5,431C 154.763,430.953 139.097,429.953 123.5,428C 102.956,423.788 89.7892,411.622 84,391.5C 82.2822,384.606 81.2822,377.606 81,370.5C 80.6667,360.167 80.3333,349.833 80,339.5C 79.3229,331.458 76.3229,324.458 71,318.5C 58.8801,306.72 47.8801,294.053 38,280.5C 28.8006,262.43 29.4673,244.764 40,227.5C 49.5902,215.239 59.9235,203.572 71,192.5C 76.531,186.249 79.531,178.916 80,170.5C 80.0465,154.763 81.0465,139.097 83,123.5C 87.2117,102.956 99.3784,89.7892 119.5,84C 126.394,82.2822 133.394,81.2822 140.5,81C 150.833,80.6667 161.167,80.3333 171.5,80C 179.542,79.3229 186.542,76.3229 192.5,71C 202.868,60.9638 213.534,51.2971 224.5,42C 231.266,37.1151 238.6,33.6151 246.5,31.5 Z M 338.5,192.5 C 350.011,191.518 356.677,196.685 358.5,208C 358.671,211.129 357.838,213.963 356,216.5C 319.167,252 282.333,287.5 245.5,323C 241.12,327.048 236.454,330.715 231.5,334C 226.251,335.779 221.251,335.113 216.5,332C 194.974,311.474 173.808,290.641 153,269.5C 149.675,258.983 153.175,251.817 163.5,248C 166.928,247.299 170.262,247.632 173.5,249C 191.017,265.351 208.683,281.518 226.5,297.5C 260.652,265.182 294.652,232.682 328.5,200C 331.734,197.252 335.068,194.752 338.5,192.5 Z"/></g>
</svg>
